<ttFont>
    <TTGlyph name=".notdef" xMin="172" yMin="0" xMax="1362" yMax="1530">
      <contour>
        <pt x="172" y="1530" on="1"/>
        <pt x="1362" y="1530" on="1"/>
        <pt x="1362" y="0" on="1"/>
        <pt x="172" y="0" on="1"/>
      </contour>
      <contour>
        <pt x="395" y="279" on="1"/>
        <pt x="764" y="648" on="1"/>
        <pt x="1135" y="280" on="1"/>
        <pt x="1232" y="376" on="1"/>
        <pt x="862" y="746" on="1"/>
        <pt x="1238" y="1122" on="1"/>
        <pt x="1144" y="1216" on="1"/>
        <pt x="768" y="841" on="1"/>
        <pt x="392" y="1216" on="1"/>
        <pt x="295" y="1118" on="1"/>
        <pt x="671" y="743" on="1"/>
        <pt x="300" y="372" on="1"/>
      </contour>
    </TTGlyph>
    <TTGlyph name="A" xMin="49" yMin="0" xMax="1318" yMax="1530">
      <contour>
        <pt x="550" y="1530" on="1"/>
        <pt x="783" y="1530" on="1"/>
        <pt x="1318" y="0" on="1"/>
        <pt x="1137" y="0" on="1"/>
        <pt x="985" y="449" on="1"/>
        <pt x="369" y="449" on="1"/>
        <pt x="225" y="0" on="1"/>
        <pt x="49" y="0" on="1"/>
      </contour>
      <contour>
        <pt x="937" y="592" on="1"/>
        <pt x="667" y="1395" on="1"/>
        <pt x="636" y="1281" on="1"/>
        <pt x="415" y="592" on="1"/>
      </contour>
    </TTGlyph>
    <TTGlyph name="AE" xMin="47" yMin="0" xMax="1811" yMax="1530">
      <contour>
        <pt x="845" y="1530" on="1"/>
        <pt x="1784" y="1530" on="1"/>
        <pt x="1784" y="1382" on="1"/>
        <pt x="1138" y="1382" on="1"/>
        <pt x="1138" y="854" on="1"/>
        <pt x="1649" y="854" on="1"/>
        <pt x="1649" y="707" on="1"/>
        <pt x="1138" y="707" on="1"/>
        <pt x="1138" y="147" on="1"/>
        <pt x="1811" y="147" on="1"/>
        <pt x="1811" y="0" on="1"/>
        <pt x="968" y="0" on="1"/>
        <pt x="968" y="420" on="1"/>
        <pt x="452" y="420" on="1"/>
        <pt x="239" y="0" on="1"/>
        <pt x="47" y="0" on="1"/>
      </contour>
      <contour>
        <pt x="968" y="563" on="1"/>
        <pt x="968" y="1437" on="1"/>
        <pt x="524" y="563" on="1"/>
      </contour>
    </TTGlyph>
    <TTGlyph name="AEacute" xMin="47" yMin="0" xMax="1811" yMax="2000">
      <contour>
        <pt x="845" y="1530" on="1"/>
        <pt x="1784" y="1530" on="1"/>
        <pt x="1784" y="1382" on="1"/>
        <pt x="1138" y="1382" on="1"/>
        <pt x="1138" y="854" on="1"/>
        <pt x="1649" y="854" on="1"/>
        <pt x="1649" y="707" on="1"/>
        <pt x="1138" y="707" on="1"/>
        <pt x="1138" y="147" on="1"/>
        <pt x="1811" y="147" on="1"/>
        <pt x="1811" y="0" on="1"/>
        <pt x="968" y="0" on="1"/>
        <pt x="968" y="420" on="1"/>
        <pt x="452" y="420" on="1"/>
        <pt x="239" y="0" on="1"/>
        <pt x="47" y="0" on="1"/>
      </contour>
      <contour>
        <pt x="968" y="563" on="1"/>
        <pt x="968" y="1437" on="1"/>
        <pt x="524" y="563" on="1"/>
      </contour>
      <contour>
        <pt x="1091" y="1741" on="1"/>
        <pt x="1507" y="2000" on="1"/>
        <pt x="1600" y="1841" on="1"/>
        <pt x="1141" y="1649" on="1"/>
      </contour>
    </TTGlyph>
    <TTGlyph name="Aacute" xMin="49" yMin="0" xMax="1318" yMax="2000">
      <contour>
        <pt x="550" y="1530" on="1"/>
        <pt x="783" y="1530" on="1"/>
        <pt x="1318" y="0" on="1"/>
        <pt x="1137" y="0" on="1"/>
        <pt x="985" y="449" on="1"/>
        <pt x="369" y="449" on="1"/>
        <pt x="225" y="0" on="1"/>
        <pt x="49" y="0" on="1"/>
      </contour>
      <contour>
        <pt x="937" y="592" on="1"/>
        <pt x="667" y="1395" on="1"/>
        <pt x="636" y="1281" on="1"/>
        <pt x="415" y="592" on="1"/>
      </contour>
      <contour>
        <pt x="457" y="1741" on="1"/>
        <pt x="873" y="2000" on="1"/>
        <pt x="966" y="1841" on="1"/>
        <pt x="507" y="1649" on="1"/>
      </contour>
    </TTGlyph>
    <TTGlyph name="Abreve" xMin="49" yMin="0" xMax="1318" yMax="2000">
      <contour>
        <pt x="550" y="1530" on="1"/>
        <pt x="783" y="1530" on="1"/>
        <pt x="1318" y="0" on="1"/>
        <pt x="1137" y="0" on="1"/>
        <pt x="985" y="449" on="1"/>
        <pt x="369" y="449" on="1"/>
        <pt x="225" y="0" on="1"/>
        <pt x="49" y="0" on="1"/>
      </contour>
      <contour>
        <pt x="937" y="592" on="1"/>
        <pt x="667" y="1395" on="1"/>
        <pt x="636" y="1281" on="1"/>
        <pt x="415" y="592" on="1"/>
      </contour>
      <contour>
        <pt x="977" y="1989" on="1"/>
        <pt x="967" y="1649" on="0"/>
        <pt x="656" y="1649" on="1"/>
        <pt x="498" y="1649" on="0"/>
        <pt x="335" y="1823" on="0"/>
        <pt x="335" y="1989" on="1"/>
        <pt x="471" y="2000" on="1"/>
        <pt x="473" y="1880" on="0"/>
        <pt x="564" y="1773" on="0"/>
        <pt x="656" y="1773" on="1"/>
        <pt x="796" y="1773" on="0"/>
        <pt x="828" y="1892" on="1"/>
        <pt x="839" y="1936" on="0"/>
        <pt x="841" y="2000" on="1"/>
      </contour>
    </TTGlyph>
    <TTGlyph name="Acircumflex" xMin="49" yMin="0" xMax="1318" yMax="1991">
      <contour>
        <pt x="550" y="1530" on="1"/>
        <pt x="783" y="1530" on="1"/>
        <pt x="1318" y="0" on="1"/>
        <pt x="1137" y="0" on="1"/>
        <pt x="985" y="449" on="1"/>
        <pt x="369" y="449" on="1"/>
        <pt x="225" y="0" on="1"/>
        <pt x="49" y="0" on="1"/>
      </contour>
      <contour>
        <pt x="937" y="592" on="1"/>
        <pt x="667" y="1395" on="1"/>
        <pt x="636" y="1281" on="1"/>
        <pt x="415" y="592" on="1"/>
      </contour>
      <contour>
        <pt x="362" y="1744" on="1"/>
        <pt x="586" y="1991" on="1"/>
        <pt x="746" y="1991" on="1"/>
        <pt x="979" y="1743" on="1"/>
        <pt x="902" y="1663" on="1"/>
        <pt x="665" y="1863" on="1"/>
        <pt x="436" y="1662" on="1"/>
      </contour>
    </TTGlyph>
    <TTGlyph name="Adieresis" xMin="49" yMin="0" xMax="1318" yMax="1948">
      <contour>
        <pt x="550" y="1530" on="1"/>
        <pt x="783" y="1530" on="1"/>
        <pt x="1318" y="0" on="1"/>
        <pt x="1137" y="0" on="1"/>
        <pt x="985" y="449" on="1"/>
        <pt x="369" y="449" on="1"/>
        <pt x="225" y="0" on="1"/>
        <pt x="49" y="0" on="1"/>
      </contour>
      <contour>
        <pt x="937" y="592" on="1"/>
        <pt x="667" y="1395" on="1"/>
        <pt x="636" y="1281" on="1"/>
        <pt x="415" y="592" on="1"/>
      </contour>
      <contour>
        <pt x="890" y="1717" on="1"/>
        <pt x="827" y="1717" on="0"/>
        <pt x="809" y="1735" on="1"/>
        <pt x="781" y="1764" on="0"/>
        <pt x="781" y="1868" on="0"/>
        <pt x="793" y="1913" on="0"/>
        <pt x="805" y="1926" on="1"/>
        <pt x="828" y="1948" on="0"/>
        <pt x="921" y="1948" on="0"/>
        <pt x="963" y="1938" on="0"/>
        <pt x="975" y="1926" on="1"/>
        <pt x="999" y="1902" on="0"/>
        <pt x="999" y="1799" on="0"/>
        <pt x="988" y="1754" on="0"/>
        <pt x="975" y="1740" on="1"/>
        <pt x="954" y="1717" on="0"/>
      </contour>
      <contour>
        <pt x="432" y="1717" on="1"/>
        <pt x="369" y="1717" on="0"/>
        <pt x="351" y="1735" on="1"/>
        <pt x="323" y="1764" on="0"/>
        <pt x="323" y="1868" on="0"/>
        <pt x="335" y="1913" on="0"/>
        <pt x="347" y="1926" on="1"/>
        <pt x="370" y="1948" on="0"/>
        <pt x="463" y="1948" on="0"/>
        <pt x="504" y="1938" on="0"/>
        <pt x="517" y="1926" on="1"/>
        <pt x="539" y="1903" on="0"/>
        <pt x="539" y="1799" on="0"/>
        <pt x="529" y="1754" on="0"/>
        <pt x="517" y="1740" on="1"/>
        <pt x="495" y="1717" on="0"/>
      </contour>
    </TTGlyph>
    <TTGlyph name="Agrave" xMin="49" yMin="0" xMax="1318" yMax="2000">
      <contour>
        <pt x="550" y="1530" on="1"/>
        <pt x="783" y="1530" on="1"/>
        <pt x="1318" y="0" on="1"/>
        <pt x="1137" y="0" on="1"/>
        <pt x="985" y="449" on="1"/>
        <pt x="369" y="449" on="1"/>
        <pt x="225" y="0" on="1"/>
        <pt x="49" y="0" on="1"/>
      </contour>
      <contour>
        <pt x="937" y="592" on="1"/>
        <pt x="667" y="1395" on="1"/>
        <pt x="636" y="1281" on="1"/>
        <pt x="415" y="592" on="1"/>
      </contour>
      <contour>
        <pt x="353" y="1836" on="1"/>
        <pt x="437" y="2000" on="1"/>
        <pt x="858" y="1741" on="1"/>
        <pt x="808" y="1649" on="1"/>
      </contour>
    </TTGlyph>
    <TTGlyph name="Amacron" xMin="49" yMin="0" xMax="1318" yMax="1876">
      <contour>
        <pt x="550" y="1530" on="1"/>
        <pt x="783" y="1530" on="1"/>
        <pt x="1318" y="0" on="1"/>
        <pt x="1137" y="0" on="1"/>
        <pt x="985" y="449" on="1"/>
        <pt x="369" y="449" on="1"/>
        <pt x="225" y="0" on="1"/>
        <pt x="49" y="0" on="1"/>
      </contour>
      <contour>
        <pt x="937" y="592" on="1"/>
        <pt x="667" y="1395" on="1"/>
        <pt x="636" y="1281" on="1"/>
        <pt x="415" y="592" on="1"/>
      </contour>
      <contour>
        <pt x="363" y="1876" on="1"/>
        <pt x="962" y="1876" on="1"/>
        <pt x="962" y="1741" on="1"/>
        <pt x="363" y="1741" on="1"/>
      </contour>
    </TTGlyph>
    <TTGlyph name="Aogonek" xMin="49" yMin="-474" xMax="1414" yMax="1530">
      <contour>
        <pt x="976" y="-275" on="1"/>
        <pt x="976" y="-123" on="0"/>
        <pt x="1153" y="0" on="1"/>
        <pt x="1137" y="0" on="1"/>
        <pt x="985" y="449" on="1"/>
        <pt x="369" y="449" on="1"/>
        <pt x="225" y="0" on="1"/>
        <pt x="49" y="0" on="1"/>
        <pt x="550" y="1530" on="1"/>
        <pt x="783" y="1530" on="1"/>
        <pt x="1318" y="0" on="1"/>
        <pt x="1310" y="0" on="1"/>
        <pt x="1166" y="-87" on="0"/>
        <pt x="1130" y="-198" on="1"/>
        <pt x="1120" y="-228" on="0"/>
        <pt x="1120" y="-251" on="1"/>
        <pt x="1120" y="-338" on="0"/>
        <pt x="1225" y="-338" on="1"/>
        <pt x="1300" y="-338" on="0"/>
        <pt x="1374" y="-307" on="1"/>
        <pt x="1414" y="-432" on="1"/>
        <pt x="1348" y="-474" on="0"/>
        <pt x="1236" y="-474" on="1"/>
        <pt x="976" y="-474" on="0"/>
      </contour>
      <contour>
        <pt x="937" y="592" on="1"/>
        <pt x="667" y="1395" on="1"/>
        <pt x="636" y="1281" on="1"/>
        <pt x="415" y="592" on="1"/>
      </contour>
    </TTGlyph>
    <TTGlyph name="Aring" xMin="49" yMin="0" xMax="1318" yMax="2000">
      <contour>
        <pt x="550" y="1530" on="1"/>
        <pt x="783" y="1530" on="1"/>
        <pt x="1318" y="0" on="1"/>
        <pt x="1137" y="0" on="1"/>
        <pt x="985" y="449" on="1"/>
        <pt x="369" y="449" on="1"/>
        <pt x="225" y="0" on="1"/>
        <pt x="49" y="0" on="1"/>
      </contour>
      <contour>
        <pt x="937" y="592" on="1"/>
        <pt x="667" y="1395" on="1"/>
        <pt x="636" y="1281" on="1"/>
        <pt x="415" y="592" on="1"/>
      </contour>
      <contour>
        <pt x="659" y="1592" on="1"/>
        <pt x="496" y="1592" on="0"/>
        <pt x="443" y="1701" on="1"/>
        <pt x="424" y="1739" on="0"/>
        <pt x="424" y="1850" on="0"/>
        <pt x="461" y="1928" on="0"/>
        <pt x="493" y="1953" on="1"/>
        <pt x="553" y="2000" on="0"/>
        <pt x="659" y="2000" on="1"/>
        <pt x="823" y="2000" on="0"/>
        <pt x="875" y="1889" on="1"/>
        <pt x="894" y="1850" on="0"/>
        <pt x="894" y="1739" on="0"/>
        <pt x="857" y="1663" on="0"/>
        <pt x="825" y="1639" on="1"/>
        <pt x="762" y="1592" on="0"/>
      </contour>
      <contour>
        <pt x="547" y="1794" on="1"/>
        <pt x="547" y="1699" on="0"/>
        <pt x="767" y="1699" on="0"/>
        <pt x="767" y="1794" on="1"/>
        <pt x="767" y="1894" on="0"/>
        <pt x="547" y="1894" on="0"/>
      </contour>
    </TTGlyph>
    <TTGlyph name="Atilde" xMin="49" yMin="0" xMax="1318" yMax="1982">
      <contour>
        <pt x="550" y="1530" on="1"/>
        <pt x="783" y="1530" on="1"/>
        <pt x="1318" y="0" on="1"/>
        <pt x="1137" y="0" on="1"/>
        <pt x="985" y="449" on="1"/>
        <pt x="369" y="449" on="1"/>
        <pt x="225" y="0" on="1"/>
        <pt x="49" y="0" on="1"/>
      </contour>
      <contour>
        <pt x="937" y="592" on="1"/>
        <pt x="667" y="1395" on="1"/>
        <pt x="636" y="1281" on="1"/>
        <pt x="415" y="592" on="1"/>
      </contour>
      <contour>
        <pt x="1058" y="1926" on="1"/>
        <pt x="959" y="1696" on="0"/>
        <pt x="792" y="1696" on="1"/>
        <pt x="744" y="1696" on="0"/>
        <pt x="659" y="1756" on="1"/>
        <pt x="628" y="1778" on="0"/>
        <pt x="567" y="1815" on="0"/>
        <pt x="519" y="1815" on="0"/>
        <pt x="478" y="1795" on="0"/>
        <pt x="432" y="1763" on="0"/>
        <pt x="408" y="1742" on="1"/>
        <pt x="362" y="1702" on="1"/>
        <pt x="291" y="1765" on="1"/>
        <pt x="347" y="1868" on="0"/>
        <pt x="488" y="1961" on="0"/>
        <pt x="557" y="1961" on="1"/>
        <pt x="570" y="1961" on="1"/>
        <pt x="625" y="1961" on="0"/>
        <pt x="706" y="1904" on="1"/>
        <pt x="762" y="1865" on="1"/>
        <pt x="788" y="1847" on="0"/>
        <pt x="834" y="1847" on="0"/>
        <pt x="874" y="1870" on="0"/>
        <pt x="913" y="1908" on="0"/>
        <pt x="932" y="1932" on="1"/>
        <pt x="971" y="1982" on="1"/>
      </contour>
    </TTGlyph>
    <TTGlyph name="B" xMin="236" yMin="0" xMax="1234" yMax="1551">
      <contour>
        <pt x="1170" y="1138" on="1"/>
        <pt x="1170" y="830" on="0"/>
        <pt x="937" y="799" on="1"/>
        <pt x="937" y="796" on="1"/>
        <pt x="1081" y="785" on="0"/>
        <pt x="1152" y="714" on="1"/>
        <pt x="1234" y="630" on="0"/>
        <pt x="1234" y="311" on="0"/>
        <pt x="1161" y="135" on="0"/>
        <pt x="1096" y="86" on="1"/>
        <pt x="985" y="0" on="0"/>
        <pt x="747" y="0" on="1"/>
        <pt x="236" y="0" on="1"/>
        <pt x="236" y="1525" on="1"/>
        <pt x="513" y="1551" on="0"/>
        <pt x="873" y="1551" on="0"/>
        <pt x="1041" y="1496" on="0"/>
        <pt x="1088" y="1444" on="1"/>
        <pt x="1170" y="1353" on="0"/>
      </contour>
      <contour>
        <pt x="631" y="847" on="1"/>
        <pt x="832" y="847" on="0"/>
        <pt x="910" y="904" on="1"/>
        <pt x="999" y="968" on="0"/>
        <pt x="999" y="1142" on="1"/>
        <pt x="999" y="1163" on="1"/>
        <pt x="999" y="1297" on="0"/>
        <pt x="940" y="1354" on="1"/>
        <pt x="881" y="1410" on="0"/>
        <pt x="739" y="1410" on="1"/>
        <pt x="620" y="1410" on="0"/>
        <pt x="537" y="1405" on="1"/>
        <pt x="406" y="1397" on="1"/>
        <pt x="406" y="847" on="1"/>
      </contour>
      <contour>
        <pt x="768" y="142" on="1"/>
        <pt x="915" y="142" on="0"/>
        <pt x="978" y="198" on="1"/>
        <pt x="1057" y="269" on="0"/>
        <pt x="1057" y="452" on="1"/>
        <pt x="1057" y="664" on="0"/>
        <pt x="902" y="700" on="1"/>
        <pt x="855" y="711" on="0"/>
        <pt x="800" y="711" on="1"/>
        <pt x="406" y="711" on="1"/>
        <pt x="406" y="142" on="1"/>
      </contour>
    </TTGlyph>
    <TTGlyph name="C" xMin="183" yMin="-20" xMax="1143" yMax="1550">
      <contour>
        <pt x="771" y="124" on="1"/>
        <pt x="934" y="124" on="0"/>
        <pt x="1099" y="187" on="1"/>
        <pt x="1143" y="49" on="1"/>
        <pt x="1067" y="11" on="0"/>
        <pt x="853" y="-20" on="0"/>
        <pt x="771" y="-20" on="1"/>
        <pt x="757" y="-20" on="1"/>
        <pt x="401" y="-20" on="0"/>
        <pt x="280" y="184" on="1"/>
        <pt x="206" y="308" on="0"/>
        <pt x="190" y="518" on="1"/>
        <pt x="183" y="619" on="0"/>
        <pt x="183" y="859" on="0"/>
        <pt x="196" y="1076" on="0"/>
        <pt x="236" y="1257" on="0"/>
        <pt x="312" y="1399" on="0"/>
        <pt x="376" y="1448" on="1"/>
        <pt x="506" y="1550" on="0"/>
        <pt x="754" y="1550" on="1"/>
        <pt x="914" y="1550" on="0"/>
        <pt x="1109" y="1509" on="0"/>
        <pt x="1143" y="1496" on="1"/>
        <pt x="1098" y="1338" on="1"/>
        <pt x="903" y="1406" on="0"/>
        <pt x="626" y="1406" on="0"/>
        <pt x="477" y="1339" on="0"/>
        <pt x="435" y="1262" on="1"/>
        <pt x="362" y="1130" on="0"/>
        <pt x="362" y="759" on="1"/>
        <pt x="362" y="685" on="1"/>
        <pt x="362" y="380" on="0"/>
        <pt x="441" y="259" on="1"/>
        <pt x="529" y="124" on="0"/>
        <pt x="762" y="124" on="1"/>
      </contour>
    </TTGlyph>
    <TTGlyph name="Cacute" xMin="183" yMin="-20" xMax="1143" yMax="2000">
      <contour>
        <pt x="771" y="124" on="1"/>
        <pt x="934" y="124" on="0"/>
        <pt x="1099" y="187" on="1"/>
        <pt x="1143" y="49" on="1"/>
        <pt x="1067" y="11" on="0"/>
        <pt x="853" y="-20" on="0"/>
        <pt x="771" y="-20" on="1"/>
        <pt x="757" y="-20" on="1"/>
        <pt x="401" y="-20" on="0"/>
        <pt x="280" y="184" on="1"/>
        <pt x="206" y="308" on="0"/>
        <pt x="190" y="518" on="1"/>
        <pt x="183" y="619" on="0"/>
        <pt x="183" y="859" on="0"/>
        <pt x="196" y="1076" on="0"/>
        <pt x="236" y="1257" on="0"/>
        <pt x="312" y="1399" on="0"/>
        <pt x="376" y="1448" on="1"/>
        <pt x="506" y="1550" on="0"/>
        <pt x="754" y="1550" on="1"/>
        <pt x="914" y="1550" on="0"/>
        <pt x="1109" y="1509" on="0"/>
        <pt x="1143" y="1496" on="1"/>
        <pt x="1098" y="1338" on="1"/>
        <pt x="903" y="1406" on="0"/>
        <pt x="626" y="1406" on="0"/>
        <pt x="477" y="1339" on="0"/>
        <pt x="435" y="1262" on="1"/>
        <pt x="362" y="1130" on="0"/>
        <pt x="362" y="759" on="1"/>
        <pt x="362" y="685" on="1"/>
        <pt x="362" y="380" on="0"/>
        <pt x="441" y="259" on="1"/>
        <pt x="529" y="124" on="0"/>
        <pt x="762" y="124" on="1"/>
      </contour>
      <contour>
        <pt x="551" y="1741" on="1"/>
        <pt x="967" y="2000" on="1"/>
        <pt x="1060" y="1841" on="1"/>
        <pt x="601" y="1649" on="1"/>
      </contour>
    </TTGlyph>
    <TTGlyph name="Ccaron" xMin="183" yMin="-20" xMax="1143" yMax="1998">
      <contour>
        <pt x="771" y="124" on="1"/>
        <pt x="934" y="124" on="0"/>
        <pt x="1099" y="187" on="1"/>
        <pt x="1143" y="49" on="1"/>
        <pt x="1067" y="11" on="0"/>
        <pt x="853" y="-20" on="0"/>
        <pt x="771" y="-20" on="1"/>
        <pt x="757" y="-20" on="1"/>
        <pt x="401" y="-20" on="0"/>
        <pt x="280" y="184" on="1"/>
        <pt x="206" y="308" on="0"/>
        <pt x="190" y="518" on="1"/>
        <pt x="183" y="619" on="0"/>
        <pt x="183" y="859" on="0"/>
        <pt x="196" y="1076" on="0"/>
        <pt x="236" y="1257" on="0"/>
        <pt x="312" y="1399" on="0"/>
        <pt x="376" y="1448" on="1"/>
        <pt x="506" y="1550" on="0"/>
        <pt x="754" y="1550" on="1"/>
        <pt x="914" y="1550" on="0"/>
        <pt x="1109" y="1509" on="0"/>
        <pt x="1143" y="1496" on="1"/>
        <pt x="1098" y="1338" on="1"/>
        <pt x="903" y="1406" on="0"/>
        <pt x="626" y="1406" on="0"/>
        <pt x="477" y="1339" on="0"/>
        <pt x="435" y="1262" on="1"/>
        <pt x="362" y="1130" on="0"/>
        <pt x="362" y="759" on="1"/>
        <pt x="362" y="685" on="1"/>
        <pt x="362" y="380" on="0"/>
        <pt x="441" y="259" on="1"/>
        <pt x="529" y="124" on="0"/>
        <pt x="762" y="124" on="1"/>
      </contour>
      <contour>
        <pt x="391" y="1917" on="1"/>
        <pt x="468" y="1997" on="1"/>
        <pt x="705" y="1797" on="1"/>
        <pt x="934" y="1998" on="1"/>
        <pt x="1008" y="1916" on="1"/>
        <pt x="784" y="1669" on="1"/>
        <pt x="624" y="1669" on="1"/>
      </contour>
    </TTGlyph>
    <TTGlyph name="Ccedilla" xMin="183" yMin="-428" xMax="1143" yMax="1550">
      <contour>
        <pt x="771" y="124" on="1"/>
        <pt x="934" y="124" on="0"/>
        <pt x="1099" y="187" on="1"/>
        <pt x="1143" y="49" on="1"/>
        <pt x="1067" y="11" on="0"/>
        <pt x="853" y="-20" on="0"/>
        <pt x="771" y="-20" on="1"/>
        <pt x="757" y="-20" on="1"/>
        <pt x="401" y="-20" on="0"/>
        <pt x="280" y="184" on="1"/>
        <pt x="206" y="308" on="0"/>
        <pt x="190" y="518" on="1"/>
        <pt x="183" y="619" on="0"/>
        <pt x="183" y="859" on="0"/>
        <pt x="196" y="1076" on="0"/>
        <pt x="236" y="1257" on="0"/>
        <pt x="312" y="1399" on="0"/>
        <pt x="376" y="1448" on="1"/>
        <pt x="506" y="1550" on="0"/>
        <pt x="754" y="1550" on="1"/>
        <pt x="914" y="1550" on="0"/>
        <pt x="1109" y="1509" on="0"/>
        <pt x="1143" y="1496" on="1"/>
        <pt x="1098" y="1338" on="1"/>
        <pt x="903" y="1406" on="0"/>
        <pt x="626" y="1406" on="0"/>
        <pt x="477" y="1339" on="0"/>
        <pt x="435" y="1262" on="1"/>
        <pt x="362" y="1130" on="0"/>
        <pt x="362" y="759" on="1"/>
        <pt x="362" y="685" on="1"/>
        <pt x="362" y="380" on="0"/>
        <pt x="441" y="259" on="1"/>
        <pt x="529" y="124" on="0"/>
        <pt x="762" y="124" on="1"/>
      </contour>
      <contour>
        <pt x="772" y="-203" on="1"/>
        <pt x="772" y="-113" on="0"/>
        <pt x="665" y="1" on="1"/>
        <pt x="666" y="11" on="1"/>
        <pt x="738" y="48" on="1"/>
        <pt x="912" y="-57" on="0"/>
        <pt x="912" y="-229" on="1"/>
        <pt x="912" y="-326" on="0"/>
        <pt x="799" y="-428" on="0"/>
        <pt x="696" y="-428" on="1"/>
        <pt x="609" y="-428" on="0"/>
        <pt x="562" y="-409" on="1"/>
        <pt x="587" y="-281" on="1"/>
        <pt x="634" y="-291" on="0"/>
        <pt x="713" y="-291" on="0"/>
        <pt x="772" y="-249" on="0"/>
      </contour>
    </TTGlyph>
    <TTGlyph name="Ccircumflex" xMin="183" yMin="-20" xMax="1143" yMax="1991">
      <contour>
        <pt x="771" y="124" on="1"/>
        <pt x="934" y="124" on="0"/>
        <pt x="1099" y="187" on="1"/>
        <pt x="1143" y="49" on="1"/>
        <pt x="1067" y="11" on="0"/>
        <pt x="853" y="-20" on="0"/>
        <pt x="771" y="-20" on="1"/>
        <pt x="757" y="-20" on="1"/>
        <pt x="401" y="-20" on="0"/>
        <pt x="280" y="184" on="1"/>
        <pt x="206" y="308" on="0"/>
        <pt x="190" y="518" on="1"/>
        <pt x="183" y="619" on="0"/>
        <pt x="183" y="859" on="0"/>
        <pt x="196" y="1076" on="0"/>
        <pt x="236" y="1257" on="0"/>
        <pt x="312" y="1399" on="0"/>
        <pt x="376" y="1448" on="1"/>
        <pt x="506" y="1550" on="0"/>
        <pt x="754" y="1550" on="1"/>
        <pt x="914" y="1550" on="0"/>
        <pt x="1109" y="1509" on="0"/>
        <pt x="1143" y="1496" on="1"/>
        <pt x="1098" y="1338" on="1"/>
        <pt x="903" y="1406" on="0"/>
        <pt x="626" y="1406" on="0"/>
        <pt x="477" y="1339" on="0"/>
        <pt x="435" y="1262" on="1"/>
        <pt x="362" y="1130" on="0"/>
        <pt x="362" y="759" on="1"/>
        <pt x="362" y="685" on="1"/>
        <pt x="362" y="380" on="0"/>
        <pt x="441" y="259" on="1"/>
        <pt x="529" y="124" on="0"/>
        <pt x="762" y="124" on="1"/>
      </contour>
      <contour>
        <pt x="404" y="1744" on="1"/>
        <pt x="628" y="1991" on="1"/>
        <pt x="788" y="1991" on="1"/>
        <pt x="1021" y="1743" on="1"/>
        <pt x="944" y="1663" on="1"/>
        <pt x="707" y="1863" on="1"/>
        <pt x="478" y="1662" on="1"/>
      </contour>
    </TTGlyph>
    <TTGlyph name="Cdotaccent" xMin="183" yMin="-20" xMax="1143" yMax="1954">
      <contour>
        <pt x="771" y="124" on="1"/>
        <pt x="934" y="124" on="0"/>
        <pt x="1099" y="187" on="1"/>
        <pt x="1143" y="49" on="1"/>
        <pt x="1067" y="11" on="0"/>
        <pt x="853" y="-20" on="0"/>
        <pt x="771" y="-20" on="1"/>
        <pt x="757" y="-20" on="1"/>
        <pt x="401" y="-20" on="0"/>
        <pt x="280" y="184" on="1"/>
        <pt x="206" y="308" on="0"/>
        <pt x="190" y="518" on="1"/>
        <pt x="183" y="619" on="0"/>
        <pt x="183" y="859" on="0"/>
        <pt x="196" y="1076" on="0"/>
        <pt x="236" y="1257" on="0"/>
        <pt x="312" y="1399" on="0"/>
        <pt x="376" y="1448" on="1"/>
        <pt x="506" y="1550" on="0"/>
        <pt x="754" y="1550" on="1"/>
        <pt x="914" y="1550" on="0"/>
        <pt x="1109" y="1509" on="0"/>
        <pt x="1143" y="1496" on="1"/>
        <pt x="1098" y="1338" on="1"/>
        <pt x="903" y="1406" on="0"/>
        <pt x="626" y="1406" on="0"/>
        <pt x="477" y="1339" on="0"/>
        <pt x="435" y="1262" on="1"/>
        <pt x="362" y="1130" on="0"/>
        <pt x="362" y="759" on="1"/>
        <pt x="362" y="685" on="1"/>
        <pt x="362" y="380" on="0"/>
        <pt x="441" y="259" on="1"/>
        <pt x="529" y="124" on="0"/>
        <pt x="762" y="124" on="1"/>
      </contour>
      <contour>
        <pt x="702" y="1711" on="1"/>
        <pt x="635" y="1711" on="0"/>
        <pt x="616" y="1730" on="1"/>
        <pt x="586" y="1761" on="0"/>
        <pt x="586" y="1870" on="0"/>
        <pt x="599" y="1917" on="0"/>
        <pt x="613" y="1930" on="1"/>
        <pt x="636" y="1954" on="0"/>
        <pt x="735" y="1954" on="0"/>
        <pt x="778" y="1944" on="0"/>
        <pt x="791" y="1930" on="1"/>
        <pt x="816" y="1906" on="0"/>
        <pt x="816" y="1797" on="0"/>
        <pt x="805" y="1750" on="0"/>
        <pt x="791" y="1736" on="1"/>
        <pt x="767" y="1711" on="0"/>
      </contour>
    </TTGlyph>
    <TTGlyph name="D" xMin="236" yMin="0" xMax="1323" yMax="1550">
      <contour>
        <pt x="236" y="1521" on="1"/>
        <pt x="236" y="1521" on="0"/>
        <pt x="386" y="1532" on="1"/>
        <pt x="611" y="1550" on="0"/>
        <pt x="879" y="1550" on="0"/>
        <pt x="1039" y="1529" on="0"/>
        <pt x="1160" y="1478" on="0"/>
        <pt x="1245" y="1390" on="0"/>
        <pt x="1272" y="1322" on="1"/>
        <pt x="1323" y="1195" on="0"/>
        <pt x="1323" y="944" on="1"/>
        <pt x="1323" y="789" on="1"/>
        <pt x="1323" y="492" on="0"/>
        <pt x="1279" y="338" on="1"/>
        <pt x="1228" y="160" on="0"/>
        <pt x="1096" y="82" on="1"/>
        <pt x="960" y="0" on="0"/>
        <pt x="697" y="0" on="1"/>
        <pt x="236" y="0" on="1"/>
      </contour>
      <contour>
        <pt x="1049" y="1344" on="0"/>
        <pt x="913" y="1402" on="0"/>
        <pt x="631" y="1402" on="0"/>
        <pt x="406" y="1385" on="1"/>
        <pt x="406" y="143" on="1"/>
        <pt x="724" y="143" on="1"/>
        <pt x="910" y="143" on="0"/>
        <pt x="1000" y="204" on="1"/>
        <pt x="1088" y="263" on="0"/>
        <pt x="1118" y="407" on="1"/>
        <pt x="1144" y="525" on="0"/>
        <pt x="1144" y="789" on="1"/>
        <pt x="1144" y="945" on="1"/>
        <pt x="1144" y="1194" on="0"/>
        <pt x="1085" y="1287" on="1"/>
      </contour>
    </TTGlyph>
    <TTGlyph name="Dcaron" xMin="236" yMin="0" xMax="1323" yMax="1998">
      <contour>
        <pt x="236" y="1521" on="1"/>
        <pt x="236" y="1521" on="0"/>
        <pt x="386" y="1532" on="1"/>
        <pt x="611" y="1550" on="0"/>
        <pt x="879" y="1550" on="0"/>
        <pt x="1039" y="1529" on="0"/>
        <pt x="1160" y="1478" on="0"/>
        <pt x="1245" y="1390" on="0"/>
        <pt x="1272" y="1322" on="1"/>
        <pt x="1323" y="1195" on="0"/>
        <pt x="1323" y="944" on="1"/>
        <pt x="1323" y="789" on="1"/>
        <pt x="1323" y="492" on="0"/>
        <pt x="1279" y="338" on="1"/>
        <pt x="1228" y="160" on="0"/>
        <pt x="1096" y="82" on="1"/>
        <pt x="960" y="0" on="0"/>
        <pt x="697" y="0" on="1"/>
        <pt x="236" y="0" on="1"/>
      </contour>
      <contour>
        <pt x="1049" y="1344" on="0"/>
        <pt x="913" y="1402" on="0"/>
        <pt x="631" y="1402" on="0"/>
        <pt x="406" y="1385" on="1"/>
        <pt x="406" y="143" on="1"/>
        <pt x="724" y="143" on="1"/>
        <pt x="910" y="143" on="0"/>
        <pt x="1000" y="204" on="1"/>
        <pt x="1088" y="263" on="0"/>
        <pt x="1118" y="407" on="1"/>
        <pt x="1144" y="525" on="0"/>
        <pt x="1144" y="789" on="1"/>
        <pt x="1144" y="945" on="1"/>
        <pt x="1144" y="1194" on="0"/>
        <pt x="1085" y="1287" on="1"/>
      </contour>
      <contour>
        <pt x="416" y="1917" on="1"/>
        <pt x="493" y="1997" on="1"/>
        <pt x="730" y="1797" on="1"/>
        <pt x="959" y="1998" on="1"/>
        <pt x="1033" y="1916" on="1"/>
        <pt x="809" y="1669" on="1"/>
        <pt x="649" y="1669" on="1"/>
      </contour>
    </TTGlyph>
    <TTGlyph name="Dcroat" xMin="74" yMin="0" xMax="1322" yMax="1552">
      <contour>
        <pt x="236" y="1520" on="1"/>
        <pt x="632" y="1552" on="0"/>
        <pt x="934" y="1552" on="0"/>
        <pt x="1085" y="1530" on="0"/>
        <pt x="1194" y="1476" on="0"/>
        <pt x="1265" y="1383" on="0"/>
        <pt x="1286" y="1311" on="1"/>
        <pt x="1322" y="1183" on="0"/>
        <pt x="1322" y="750" on="0"/>
        <pt x="1310" y="495" on="0"/>
        <pt x="1267" y="294" on="0"/>
        <pt x="1185" y="145" on="0"/>
        <pt x="1116" y="96" on="1"/>
        <pt x="977" y="0" on="0"/>
        <pt x="697" y="0" on="1"/>
        <pt x="236" y="0" on="1"/>
        <pt x="236" y="699" on="1"/>
        <pt x="74" y="699" on="1"/>
        <pt x="74" y="834" on="1"/>
        <pt x="236" y="834" on="1"/>
      </contour>
      <contour>
        <pt x="727" y="148" on="1"/>
        <pt x="915" y="148" on="0"/>
        <pt x="1091" y="271" on="0"/>
        <pt x="1122" y="416" on="1"/>
        <pt x="1147" y="535" on="0"/>
        <pt x="1147" y="799" on="1"/>
        <pt x="1147" y="974" on="1"/>
        <pt x="1147" y="1082" on="0"/>
        <pt x="1133" y="1245" on="0"/>
        <pt x="1102" y="1299" on="1"/>
        <pt x="1042" y="1407" on="0"/>
        <pt x="841" y="1407" on="1"/>
        <pt x="734" y="1407" on="0"/>
        <pt x="624" y="1400" on="1"/>
        <pt x="406" y="1385" on="1"/>
        <pt x="406" y="834" on="1"/>
        <pt x="745" y="834" on="1"/>
        <pt x="745" y="699" on="1"/>
        <pt x="406" y="699" on="1"/>
        <pt x="406" y="148" on="1"/>
      </contour>
    </TTGlyph>
    <TTGlyph name="Delta" xMin="37" yMin="0" xMax="1327" yMax="1530">
      <contour>
        <pt x="549" y="1530" on="1"/>
        <pt x="802" y="1530" on="1"/>
        <pt x="1327" y="0" on="1"/>
        <pt x="37" y="0" on="1"/>
      </contour>
      <contour>
        <pt x="1110" y="142" on="1"/>
        <pt x="677" y="1426" on="1"/>
        <pt x="252" y="142" on="1"/>
      </contour>
    </TTGlyph>
    <TTGlyph name="E" xMin="236" yMin="0" xMax="1130" yMax="1530">
      <contour>
        <pt x="236" y="1530" on="1"/>
        <pt x="1103" y="1530" on="1"/>
        <pt x="1103" y="1382" on="1"/>
        <pt x="406" y="1382" on="1"/>
        <pt x="406" y="854" on="1"/>
        <pt x="968" y="854" on="1"/>
        <pt x="968" y="707" on="1"/>
        <pt x="406" y="707" on="1"/>
        <pt x="406" y="147" on="1"/>
        <pt x="1130" y="147" on="1"/>
        <pt x="1130" y="0" on="1"/>
        <pt x="236" y="0" on="1"/>
      </contour>
    </TTGlyph>
    <TTGlyph name="Eacute" xMin="236" yMin="0" xMax="1130" yMax="2000">
      <contour>
        <pt x="236" y="1530" on="1"/>
        <pt x="1103" y="1530" on="1"/>
        <pt x="1103" y="1382" on="1"/>
        <pt x="406" y="1382" on="1"/>
        <pt x="406" y="854" on="1"/>
        <pt x="968" y="854" on="1"/>
        <pt x="968" y="707" on="1"/>
        <pt x="406" y="707" on="1"/>
        <pt x="406" y="147" on="1"/>
        <pt x="1130" y="147" on="1"/>
        <pt x="1130" y="0" on="1"/>
        <pt x="236" y="0" on="1"/>
      </contour>
      <contour>
        <pt x="454" y="1741" on="1"/>
        <pt x="870" y="2000" on="1"/>
        <pt x="963" y="1841" on="1"/>
        <pt x="504" y="1649" on="1"/>
      </contour>
    </TTGlyph>
    <TTGlyph name="Ebreve" xMin="236" yMin="0" xMax="1130" yMax="2000">
      <contour>
        <pt x="236" y="1530" on="1"/>
        <pt x="1103" y="1530" on="1"/>
        <pt x="1103" y="1382" on="1"/>
        <pt x="406" y="1382" on="1"/>
        <pt x="406" y="854" on="1"/>
        <pt x="968" y="854" on="1"/>
        <pt x="968" y="707" on="1"/>
        <pt x="406" y="707" on="1"/>
        <pt x="406" y="147" on="1"/>
        <pt x="1130" y="147" on="1"/>
        <pt x="1130" y="0" on="1"/>
        <pt x="236" y="0" on="1"/>
      </contour>
      <contour>
        <pt x="995" y="1989" on="1"/>
        <pt x="985" y="1649" on="0"/>
        <pt x="674" y="1649" on="1"/>
        <pt x="516" y="1649" on="0"/>
        <pt x="353" y="1823" on="0"/>
        <pt x="353" y="1989" on="1"/>
        <pt x="489" y="2000" on="1"/>
        <pt x="491" y="1880" on="0"/>
        <pt x="582" y="1773" on="0"/>
        <pt x="674" y="1773" on="1"/>
        <pt x="814" y="1773" on="0"/>
        <pt x="846" y="1892" on="1"/>
        <pt x="857" y="1936" on="0"/>
        <pt x="859" y="2000" on="1"/>
      </contour>
    </TTGlyph>
    <TTGlyph name="Ecaron" xMin="236" yMin="0" xMax="1130" yMax="1998">
      <contour>
        <pt x="236" y="1530" on="1"/>
        <pt x="1103" y="1530" on="1"/>
        <pt x="1103" y="1382" on="1"/>
        <pt x="406" y="1382" on="1"/>
        <pt x="406" y="854" on="1"/>
        <pt x="968" y="854" on="1"/>
        <pt x="968" y="707" on="1"/>
        <pt x="406" y="707" on="1"/>
        <pt x="406" y="147" on="1"/>
        <pt x="1130" y="147" on="1"/>
        <pt x="1130" y="0" on="1"/>
        <pt x="236" y="0" on="1"/>
      </contour>
      <contour>
        <pt x="371" y="1917" on="1"/>
        <pt x="448" y="1997" on="1"/>
        <pt x="685" y="1797" on="1"/>
        <pt x="914" y="1998" on="1"/>
        <pt x="988" y="1916" on="1"/>
        <pt x="764" y="1669" on="1"/>
        <pt x="604" y="1669" on="1"/>
      </contour>
    </TTGlyph>
    <TTGlyph name="Ecircumflex" xMin="236" yMin="0" xMax="1130" yMax="1991">
      <contour>
        <pt x="236" y="1530" on="1"/>
        <pt x="1103" y="1530" on="1"/>
        <pt x="1103" y="1382" on="1"/>
        <pt x="406" y="1382" on="1"/>
        <pt x="406" y="854" on="1"/>
        <pt x="968" y="854" on="1"/>
        <pt x="968" y="707" on="1"/>
        <pt x="406" y="707" on="1"/>
        <pt x="406" y="147" on="1"/>
        <pt x="1130" y="147" on="1"/>
        <pt x="1130" y="0" on="1"/>
        <pt x="236" y="0" on="1"/>
      </contour>
      <contour>
        <pt x="381" y="1744" on="1"/>
        <pt x="605" y="1991" on="1"/>
        <pt x="765" y="1991" on="1"/>
        <pt x="998" y="1743" on="1"/>
        <pt x="921" y="1663" on="1"/>
        <pt x="684" y="1863" on="1"/>
        <pt x="455" y="1662" on="1"/>
      </contour>
    </TTGlyph>
    <TTGlyph name="Edieresis" xMin="236" yMin="0" xMax="1130" yMax="1948">
      <contour>
        <pt x="236" y="1530" on="1"/>
        <pt x="1103" y="1530" on="1"/>
        <pt x="1103" y="1382" on="1"/>
        <pt x="406" y="1382" on="1"/>
        <pt x="406" y="854" on="1"/>
        <pt x="968" y="854" on="1"/>
        <pt x="968" y="707" on="1"/>
        <pt x="406" y="707" on="1"/>
        <pt x="406" y="147" on="1"/>
        <pt x="1130" y="147" on="1"/>
        <pt x="1130" y="0" on="1"/>
        <pt x="236" y="0" on="1"/>
      </contour>
      <contour>
        <pt x="906" y="1717" on="1"/>
        <pt x="843" y="1717" on="0"/>
        <pt x="825" y="1735" on="1"/>
        <pt x="797" y="1764" on="0"/>
        <pt x="797" y="1868" on="0"/>
        <pt x="809" y="1913" on="0"/>
        <pt x="821" y="1926" on="1"/>
        <pt x="844" y="1948" on="0"/>
        <pt x="937" y="1948" on="0"/>
        <pt x="979" y="1938" on="0"/>
        <pt x="991" y="1926" on="1"/>
        <pt x="1015" y="1902" on="0"/>
        <pt x="1015" y="1799" on="0"/>
        <pt x="1004" y="1754" on="0"/>
        <pt x="991" y="1740" on="1"/>
        <pt x="970" y="1717" on="0"/>
      </contour>
      <contour>
        <pt x="448" y="1717" on="1"/>
        <pt x="385" y="1717" on="0"/>
        <pt x="367" y="1735" on="1"/>
        <pt x="339" y="1764" on="0"/>
        <pt x="339" y="1868" on="0"/>
        <pt x="351" y="1913" on="0"/>
        <pt x="363" y="1926" on="1"/>
        <pt x="386" y="1948" on="0"/>
        <pt x="479" y="1948" on="0"/>
        <pt x="520" y="1938" on="0"/>
        <pt x="533" y="1926" on="1"/>
        <pt x="555" y="1903" on="0"/>
        <pt x="555" y="1799" on="0"/>
        <pt x="545" y="1754" on="0"/>
        <pt x="533" y="1740" on="1"/>
        <pt x="511" y="1717" on="0"/>
      </contour>
    </TTGlyph>
    <TTGlyph name="Edotaccent" xMin="236" yMin="0" xMax="1130" yMax="1954">
      <contour>
        <pt x="236" y="1530" on="1"/>
        <pt x="1103" y="1530" on="1"/>
        <pt x="1103" y="1382" on="1"/>
        <pt x="406" y="1382" on="1"/>
        <pt x="406" y="854" on="1"/>
        <pt x="968" y="854" on="1"/>
        <pt x="968" y="707" on="1"/>
        <pt x="406" y="707" on="1"/>
        <pt x="406" y="147" on="1"/>
        <pt x="1130" y="147" on="1"/>
        <pt x="1130" y="0" on="1"/>
        <pt x="236" y="0" on="1"/>
      </contour>
      <contour>
        <pt x="683" y="1711" on="1"/>
        <pt x="616" y="1711" on="0"/>
        <pt x="597" y="1730" on="1"/>
        <pt x="567" y="1761" on="0"/>
        <pt x="567" y="1870" on="0"/>
        <pt x="580" y="1917" on="0"/>
        <pt x="594" y="1930" on="1"/>
        <pt x="617" y="1954" on="0"/>
        <pt x="716" y="1954" on="0"/>
        <pt x="759" y="1944" on="0"/>
        <pt x="772" y="1930" on="1"/>
        <pt x="797" y="1906" on="0"/>
        <pt x="797" y="1797" on="0"/>
        <pt x="786" y="1750" on="0"/>
        <pt x="772" y="1736" on="1"/>
        <pt x="748" y="1711" on="0"/>
      </contour>
    </TTGlyph>
    <TTGlyph name="Egrave" xMin="236" yMin="0" xMax="1130" yMax="2000">
      <contour>
        <pt x="236" y="1530" on="1"/>
        <pt x="1103" y="1530" on="1"/>
        <pt x="1103" y="1382" on="1"/>
        <pt x="406" y="1382" on="1"/>
        <pt x="406" y="854" on="1"/>
        <pt x="968" y="854" on="1"/>
        <pt x="968" y="707" on="1"/>
        <pt x="406" y="707" on="1"/>
        <pt x="406" y="147" on="1"/>
        <pt x="1130" y="147" on="1"/>
        <pt x="1130" y="0" on="1"/>
        <pt x="236" y="0" on="1"/>
      </contour>
      <contour>
        <pt x="394" y="1836" on="1"/>
        <pt x="478" y="2000" on="1"/>
        <pt x="899" y="1741" on="1"/>
        <pt x="849" y="1649" on="1"/>
      </contour>
    </TTGlyph>
    <TTGlyph name="Emacron" xMin="236" yMin="0" xMax="1130" yMax="1876">
      <contour>
        <pt x="236" y="1530" on="1"/>
        <pt x="1103" y="1530" on="1"/>
        <pt x="1103" y="1382" on="1"/>
        <pt x="406" y="1382" on="1"/>
        <pt x="406" y="854" on="1"/>
        <pt x="968" y="854" on="1"/>
        <pt x="968" y="707" on="1"/>
        <pt x="406" y="707" on="1"/>
        <pt x="406" y="147" on="1"/>
        <pt x="1130" y="147" on="1"/>
        <pt x="1130" y="0" on="1"/>
        <pt x="236" y="0" on="1"/>
      </contour>
      <contour>
        <pt x="378" y="1876" on="1"/>
        <pt x="977" y="1876" on="1"/>
        <pt x="977" y="1741" on="1"/>
        <pt x="378" y="1741" on="1"/>
      </contour>
    </TTGlyph>
    <TTGlyph name="Eng" xMin="235" yMin="-474" xMax="1300" yMax="1530">
      <contour>
        <pt x="716" y="-260" on="1"/>
        <pt x="826" y="-322" on="0"/>
        <pt x="966" y="-322" on="1"/>
        <pt x="1115" y="-322" on="0"/>
        <pt x="1138" y="-186" on="1"/>
        <pt x="1145" y="-141" on="0"/>
        <pt x="1145" y="-80" on="1"/>
        <pt x="1145" y="17" on="1"/>
        <pt x="442" y="1122" on="1"/>
        <pt x="369" y="1281" on="1"/>
        <pt x="391" y="1107" on="1"/>
        <pt x="391" y="0" on="1"/>
        <pt x="235" y="0" on="1"/>
        <pt x="235" y="1530" on="1"/>
        <pt x="371" y="1530" on="1"/>
        <pt x="1095" y="397" on="1"/>
        <pt x="1166" y="229" on="1"/>
        <pt x="1144" y="405" on="1"/>
        <pt x="1144" y="1530" on="1"/>
        <pt x="1300" y="1530" on="1"/>
        <pt x="1300" y="102" on="1"/>
        <pt x="1300" y="-175" on="0"/>
        <pt x="1266" y="-287" on="1"/>
        <pt x="1227" y="-411" on="0"/>
        <pt x="1126" y="-449" on="1"/>
        <pt x="1060" y="-474" on="0"/>
        <pt x="897" y="-474" on="0"/>
        <pt x="793" y="-454" on="0"/>
        <pt x="756" y="-441" on="1"/>
        <pt x="709" y="-425" on="0"/>
        <pt x="664" y="-395" on="1"/>
      </contour>
    </TTGlyph>
    <TTGlyph name="Eogonek" xMin="236" yMin="-474" xMax="1150" yMax="1530">
      <contour>
        <pt x="712" y="-275" on="1"/>
        <pt x="712" y="-123" on="0"/>
        <pt x="889" y="0" on="1"/>
        <pt x="236" y="0" on="1"/>
        <pt x="236" y="1530" on="1"/>
        <pt x="1103" y="1530" on="1"/>
        <pt x="1103" y="1382" on="1"/>
        <pt x="406" y="1382" on="1"/>
        <pt x="406" y="854" on="1"/>
        <pt x="968" y="854" on="1"/>
        <pt x="968" y="707" on="1"/>
        <pt x="406" y="707" on="1"/>
        <pt x="406" y="147" on="1"/>
        <pt x="1130" y="147" on="1"/>
        <pt x="1130" y="0" on="1"/>
        <pt x="1046" y="0" on="1"/>
        <pt x="902" y="-87" on="0"/>
        <pt x="866" y="-198" on="1"/>
        <pt x="856" y="-228" on="0"/>
        <pt x="856" y="-251" on="1"/>
        <pt x="856" y="-338" on="0"/>
        <pt x="961" y="-338" on="1"/>
        <pt x="1036" y="-338" on="0"/>
        <pt x="1110" y="-307" on="1"/>
        <pt x="1150" y="-432" on="1"/>
        <pt x="1084" y="-474" on="0"/>
        <pt x="972" y="-474" on="1"/>
        <pt x="712" y="-474" on="0"/>
      </contour>
    </TTGlyph>
    <TTGlyph name="Eth" xMin="74" yMin="0" xMax="1322" yMax="1552">
      <contour>
        <pt x="236" y="1520" on="1"/>
        <pt x="632" y="1552" on="0"/>
        <pt x="934" y="1552" on="0"/>
        <pt x="1085" y="1530" on="0"/>
        <pt x="1194" y="1476" on="0"/>
        <pt x="1265" y="1383" on="0"/>
        <pt x="1286" y="1311" on="1"/>
        <pt x="1322" y="1183" on="0"/>
        <pt x="1322" y="750" on="0"/>
        <pt x="1310" y="495" on="0"/>
        <pt x="1267" y="294" on="0"/>
        <pt x="1185" y="145" on="0"/>
        <pt x="1116" y="96" on="1"/>
        <pt x="977" y="0" on="0"/>
        <pt x="697" y="0" on="1"/>
        <pt x="236" y="0" on="1"/>
        <pt x="236" y="699" on="1"/>
        <pt x="74" y="699" on="1"/>
        <pt x="74" y="834" on="1"/>
        <pt x="236" y="834" on="1"/>
      </contour>
      <contour>
        <pt x="727" y="148" on="1"/>
        <pt x="915" y="148" on="0"/>
        <pt x="1091" y="271" on="0"/>
        <pt x="1122" y="416" on="1"/>
        <pt x="1147" y="535" on="0"/>
        <pt x="1147" y="799" on="1"/>
        <pt x="1147" y="974" on="1"/>
        <pt x="1147" y="1082" on="0"/>
        <pt x="1133" y="1245" on="0"/>
        <pt x="1102" y="1299" on="1"/>
        <pt x="1042" y="1407" on="0"/>
        <pt x="841" y="1407" on="1"/>
        <pt x="734" y="1407" on="0"/>
        <pt x="624" y="1400" on="1"/>
        <pt x="406" y="1385" on="1"/>
        <pt x="406" y="834" on="1"/>
        <pt x="745" y="834" on="1"/>
        <pt x="745" y="699" on="1"/>
        <pt x="406" y="699" on="1"/>
        <pt x="406" y="148" on="1"/>
      </contour>
    </TTGlyph>
    <TTGlyph name="Euro" xMin="30" yMin="-20" xMax="1131" yMax="1550">
      <contour>
        <pt x="1084" y="1342" on="1"/>
        <pt x="904" y="1402" on="0"/>
        <pt x="650" y="1402" on="0"/>
        <pt x="518" y="1359" on="0"/>
        <pt x="474" y="1310" on="1"/>
        <pt x="393" y="1218" on="0"/>
        <pt x="375" y="993" on="1"/>
        <pt x="949" y="993" on="1"/>
        <pt x="949" y="858" on="1"/>
        <pt x="68" y="858" on="1"/>
        <pt x="68" y="993" on="1"/>
        <pt x="191" y="993" on="1"/>
        <pt x="213" y="1275" on="0"/>
        <pt x="324" y="1402" on="1"/>
        <pt x="455" y="1550" on="0"/>
        <pt x="754" y="1550" on="1"/>
        <pt x="990" y="1550" on="0"/>
        <pt x="1129" y="1501" on="1"/>
      </contour>
      <contour>
        <pt x="1131" y="46" on="1"/>
        <pt x="1006" y="-20" on="0"/>
        <pt x="768" y="-20" on="1"/>
        <pt x="757" y="-20" on="1"/>
        <pt x="452" y="-20" on="0"/>
        <pt x="320" y="128" on="1"/>
        <pt x="209" y="252" on="0"/>
        <pt x="189" y="537" on="1"/>
        <pt x="30" y="537" on="1"/>
        <pt x="30" y="672" on="1"/>
        <pt x="911" y="672" on="1"/>
        <pt x="911" y="537" on="1"/>
        <pt x="370" y="537" on="1"/>
        <pt x="386" y="319" on="0"/>
        <pt x="470" y="228" on="1"/>
        <pt x="558" y="132" on="0"/>
        <pt x="762" y="132" on="1"/>
        <pt x="771" y="132" on="1"/>
        <pt x="883" y="132" on="0"/>
        <pt x="1034" y="174" on="1"/>
        <pt x="1068" y="183" on="0"/>
        <pt x="1084" y="189" on="1"/>
      </contour>
    </TTGlyph>
    <TTGlyph name="F" xMin="236" yMin="0" xMax="1115" yMax="1530">
      <contour>
        <pt x="236" y="1530" on="1"/>
        <pt x="1115" y="1530" on="1"/>
        <pt x="1115" y="1382" on="1"/>
        <pt x="406" y="1382" on="1"/>
        <pt x="406" y="781" on="1"/>
        <pt x="1021" y="781" on="1"/>
        <pt x="1021" y="634" on="1"/>
        <pt x="406" y="634" on="1"/>
        <pt x="406" y="0" on="1"/>
        <pt x="236" y="0" on="1"/>
      </contour>
    </TTGlyph>
    <TTGlyph name="G" xMin="176" yMin="-20" xMax="1235" yMax="1550">
      <contour>
        <pt x="1165" y="1322" on="1"/>
        <pt x="924" y="1406" on="0"/>
        <pt x="702" y="1406" on="1"/>
        <pt x="473" y="1406" on="0"/>
        <pt x="404" y="1218" on="1"/>
        <pt x="363" y="1107" on="0"/>
        <pt x="354" y="824" on="0"/>
        <pt x="354" y="721" on="1"/>
        <pt x="354" y="622" on="1"/>
        <pt x="354" y="303" on="0"/>
        <pt x="461" y="199" on="1"/>
        <pt x="525" y="137" on="0"/>
        <pt x="632" y="126" on="1"/>
        <pt x="682" y="120" on="0"/>
        <pt x="788" y="120" on="0"/>
        <pt x="887" y="131" on="0"/>
        <pt x="932" y="140" on="1"/>
        <pt x="1023" y="158" on="0"/>
        <pt x="1068" y="180" on="1"/>
        <pt x="1068" y="652" on="1"/>
        <pt x="759" y="652" on="1"/>
        <pt x="759" y="790" on="1"/>
        <pt x="1235" y="790" on="1"/>
        <pt x="1235" y="105" on="1"/>
        <pt x="1141" y="34" on="0"/>
        <pt x="902" y="-6" on="1"/>
        <pt x="819" y="-20" on="0"/>
        <pt x="607" y="-20" on="0"/>
        <pt x="430" y="23" on="0"/>
        <pt x="307" y="106" on="0"/>
        <pt x="231" y="230" on="0"/>
        <pt x="210" y="311" on="1"/>
        <pt x="176" y="447" on="0"/>
        <pt x="176" y="846" on="0"/>
        <pt x="190" y="1077" on="0"/>
        <pt x="231" y="1264" on="0"/>
        <pt x="305" y="1406" on="0"/>
        <pt x="365" y="1454" on="1"/>
        <pt x="487" y="1550" on="0"/>
        <pt x="713" y="1550" on="1"/>
        <pt x="971" y="1550" on="0"/>
        <pt x="1154" y="1493" on="1"/>
        <pt x="1205" y="1477" on="1"/>
      </contour>
    </TTGlyph>
    <TTGlyph name="Gbreve" xMin="176" yMin="-20" xMax="1235" yMax="2000">
      <contour>
        <pt x="1165" y="1322" on="1"/>
        <pt x="924" y="1406" on="0"/>
        <pt x="702" y="1406" on="1"/>
        <pt x="473" y="1406" on="0"/>
        <pt x="404" y="1218" on="1"/>
        <pt x="363" y="1107" on="0"/>
        <pt x="354" y="824" on="0"/>
        <pt x="354" y="721" on="1"/>
        <pt x="354" y="622" on="1"/>
        <pt x="354" y="303" on="0"/>
        <pt x="461" y="199" on="1"/>
        <pt x="525" y="137" on="0"/>
        <pt x="632" y="126" on="1"/>
        <pt x="682" y="120" on="0"/>
        <pt x="788" y="120" on="0"/>
        <pt x="887" y="131" on="0"/>
        <pt x="932" y="140" on="1"/>
        <pt x="1023" y="158" on="0"/>
        <pt x="1068" y="180" on="1"/>
        <pt x="1068" y="652" on="1"/>
        <pt x="759" y="652" on="1"/>
        <pt x="759" y="790" on="1"/>
        <pt x="1235" y="790" on="1"/>
        <pt x="1235" y="105" on="1"/>
        <pt x="1141" y="34" on="0"/>
        <pt x="902" y="-6" on="1"/>
        <pt x="819" y="-20" on="0"/>
        <pt x="607" y="-20" on="0"/>
        <pt x="430" y="23" on="0"/>
        <pt x="307" y="106" on="0"/>
        <pt x="231" y="230" on="0"/>
        <pt x="210" y="311" on="1"/>
        <pt x="176" y="447" on="0"/>
        <pt x="176" y="846" on="0"/>
        <pt x="190" y="1077" on="0"/>
        <pt x="231" y="1264" on="0"/>
        <pt x="305" y="1406" on="0"/>
        <pt x="365" y="1454" on="1"/>
        <pt x="487" y="1550" on="0"/>
        <pt x="713" y="1550" on="1"/>
        <pt x="971" y="1550" on="0"/>
        <pt x="1154" y="1493" on="1"/>
        <pt x="1205" y="1477" on="1"/>
      </contour>
      <contour>
        <pt x="1062" y="1989" on="1"/>
        <pt x="1052" y="1649" on="0"/>
        <pt x="741" y="1649" on="1"/>
        <pt x="583" y="1649" on="0"/>
        <pt x="420" y="1823" on="0"/>
        <pt x="420" y="1989" on="1"/>
        <pt x="556" y="2000" on="1"/>
        <pt x="558" y="1880" on="0"/>
        <pt x="649" y="1773" on="0"/>
        <pt x="741" y="1773" on="1"/>
        <pt x="881" y="1773" on="0"/>
        <pt x="913" y="1892" on="1"/>
        <pt x="924" y="1936" on="0"/>
        <pt x="926" y="2000" on="1"/>
      </contour>
    </TTGlyph>
    <TTGlyph name="Gcircumflex" xMin="176" yMin="-20" xMax="1235" yMax="1991">
      <contour>
        <pt x="1165" y="1322" on="1"/>
        <pt x="924" y="1406" on="0"/>
        <pt x="702" y="1406" on="1"/>
        <pt x="473" y="1406" on="0"/>
        <pt x="404" y="1218" on="1"/>
        <pt x="363" y="1107" on="0"/>
        <pt x="354" y="824" on="0"/>
        <pt x="354" y="721" on="1"/>
        <pt x="354" y="622" on="1"/>
        <pt x="354" y="303" on="0"/>
        <pt x="461" y="199" on="1"/>
        <pt x="525" y="137" on="0"/>
        <pt x="632" y="126" on="1"/>
        <pt x="682" y="120" on="0"/>
        <pt x="788" y="120" on="0"/>
        <pt x="887" y="131" on="0"/>
        <pt x="932" y="140" on="1"/>
        <pt x="1023" y="158" on="0"/>
        <pt x="1068" y="180" on="1"/>
        <pt x="1068" y="652" on="1"/>
        <pt x="759" y="652" on="1"/>
        <pt x="759" y="790" on="1"/>
        <pt x="1235" y="790" on="1"/>
        <pt x="1235" y="105" on="1"/>
        <pt x="1141" y="34" on="0"/>
        <pt x="902" y="-6" on="1"/>
        <pt x="819" y="-20" on="0"/>
        <pt x="607" y="-20" on="0"/>
        <pt x="430" y="23" on="0"/>
        <pt x="307" y="106" on="0"/>
        <pt x="231" y="230" on="0"/>
        <pt x="210" y="311" on="1"/>
        <pt x="176" y="447" on="0"/>
        <pt x="176" y="846" on="0"/>
        <pt x="190" y="1077" on="0"/>
        <pt x="231" y="1264" on="0"/>
        <pt x="305" y="1406" on="0"/>
        <pt x="365" y="1454" on="1"/>
        <pt x="487" y="1550" on="0"/>
        <pt x="713" y="1550" on="1"/>
        <pt x="971" y="1550" on="0"/>
        <pt x="1154" y="1493" on="1"/>
        <pt x="1205" y="1477" on="1"/>
      </contour>
      <contour>
        <pt x="454" y="1744" on="1"/>
        <pt x="678" y="1991" on="1"/>
        <pt x="838" y="1991" on="1"/>
        <pt x="1071" y="1743" on="1"/>
        <pt x="994" y="1663" on="1"/>
        <pt x="757" y="1863" on="1"/>
        <pt x="528" y="1662" on="1"/>
      </contour>
    </TTGlyph>
    <TTGlyph name="Gcommaaccent" xMin="176" yMin="-560" xMax="1235" yMax="1550">
      <contour>
        <pt x="1165" y="1322" on="1"/>
        <pt x="924" y="1406" on="0"/>
        <pt x="702" y="1406" on="1"/>
        <pt x="473" y="1406" on="0"/>
        <pt x="404" y="1218" on="1"/>
        <pt x="363" y="1107" on="0"/>
        <pt x="354" y="824" on="0"/>
        <pt x="354" y="721" on="1"/>
        <pt x="354" y="622" on="1"/>
        <pt x="354" y="303" on="0"/>
        <pt x="461" y="199" on="1"/>
        <pt x="525" y="137" on="0"/>
        <pt x="632" y="126" on="1"/>
        <pt x="682" y="120" on="0"/>
        <pt x="788" y="120" on="0"/>
        <pt x="887" y="131" on="0"/>
        <pt x="932" y="140" on="1"/>
        <pt x="1023" y="158" on="0"/>
        <pt x="1068" y="180" on="1"/>
        <pt x="1068" y="652" on="1"/>
        <pt x="759" y="652" on="1"/>
        <pt x="759" y="790" on="1"/>
        <pt x="1235" y="790" on="1"/>
        <pt x="1235" y="105" on="1"/>
        <pt x="1141" y="34" on="0"/>
        <pt x="902" y="-6" on="1"/>
        <pt x="819" y="-20" on="0"/>
        <pt x="607" y="-20" on="0"/>
        <pt x="430" y="23" on="0"/>
        <pt x="307" y="106" on="0"/>
        <pt x="231" y="230" on="0"/>
        <pt x="210" y="311" on="1"/>
        <pt x="176" y="447" on="0"/>
        <pt x="176" y="846" on="0"/>
        <pt x="190" y="1077" on="0"/>
        <pt x="231" y="1264" on="0"/>
        <pt x="305" y="1406" on="0"/>
        <pt x="365" y="1454" on="1"/>
        <pt x="487" y="1550" on="0"/>
        <pt x="713" y="1550" on="1"/>
        <pt x="971" y="1550" on="0"/>
        <pt x="1154" y="1493" on="1"/>
        <pt x="1205" y="1477" on="1"/>
      </contour>
      <contour>
        <pt x="697" y="-129" on="1"/>
        <pt x="721" y="-127" on="0"/>
        <pt x="739" y="-127" on="1"/>
        <pt x="777" y="-127" on="1"/>
        <pt x="807" y="-127" on="0"/>
        <pt x="845" y="-144" on="0"/>
        <pt x="845" y="-162" on="1"/>
        <pt x="845" y="-196" on="0"/>
        <pt x="834" y="-222" on="1"/>
        <pt x="707" y="-560" on="1"/>
        <pt x="598" y="-560" on="1"/>
        <pt x="669" y="-131" on="1"/>
      </contour>
    </TTGlyph>
    <TTGlyph name="Gdotaccent" xMin="176" yMin="-20" xMax="1235" yMax="1954">
      <contour>
        <pt x="1165" y="1322" on="1"/>
        <pt x="924" y="1406" on="0"/>
        <pt x="702" y="1406" on="1"/>
        <pt x="473" y="1406" on="0"/>
        <pt x="404" y="1218" on="1"/>
        <pt x="363" y="1107" on="0"/>
        <pt x="354" y="824" on="0"/>
        <pt x="354" y="721" on="1"/>
        <pt x="354" y="622" on="1"/>
        <pt x="354" y="303" on="0"/>
        <pt x="461" y="199" on="1"/>
        <pt x="525" y="137" on="0"/>
        <pt x="632" y="126" on="1"/>
        <pt x="682" y="120" on="0"/>
        <pt x="788" y="120" on="0"/>
        <pt x="887" y="131" on="0"/>
        <pt x="932" y="140" on="1"/>
        <pt x="1023" y="158" on="0"/>
        <pt x="1068" y="180" on="1"/>
        <pt x="1068" y="652" on="1"/>
        <pt x="759" y="652" on="1"/>
        <pt x="759" y="790" on="1"/>
        <pt x="1235" y="790" on="1"/>
        <pt x="1235" y="105" on="1"/>
        <pt x="1141" y="34" on="0"/>
        <pt x="902" y="-6" on="1"/>
        <pt x="819" y="-20" on="0"/>
        <pt x="607" y="-20" on="0"/>
        <pt x="430" y="23" on="0"/>
        <pt x="307" y="106" on="0"/>
        <pt x="231" y="230" on="0"/>
        <pt x="210" y="311" on="1"/>
        <pt x="176" y="447" on="0"/>
        <pt x="176" y="846" on="0"/>
        <pt x="190" y="1077" on="0"/>
        <pt x="231" y="1264" on="0"/>
        <pt x="305" y="1406" on="0"/>
        <pt x="365" y="1454" on="1"/>
        <pt x="487" y="1550" on="0"/>
        <pt x="713" y="1550" on="1"/>
        <pt x="971" y="1550" on="0"/>
        <pt x="1154" y="1493" on="1"/>
        <pt x="1205" y="1477" on="1"/>
      </contour>
      <contour>
        <pt x="745" y="1711" on="1"/>
        <pt x="678" y="1711" on="0"/>
        <pt x="659" y="1730" on="1"/>
        <pt x="629" y="1761" on="0"/>
        <pt x="629" y="1870" on="0"/>
        <pt x="642" y="1917" on="0"/>
        <pt x="656" y="1930" on="1"/>
        <pt x="679" y="1954" on="0"/>
        <pt x="778" y="1954" on="0"/>
        <pt x="821" y="1944" on="0"/>
        <pt x="834" y="1930" on="1"/>
        <pt x="859" y="1906" on="0"/>
        <pt x="859" y="1797" on="0"/>
        <pt x="848" y="1750" on="0"/>
        <pt x="834" y="1736" on="1"/>
        <pt x="810" y="1711" on="0"/>
      </contour>
    </TTGlyph>
    <TTGlyph name="H" xMin="236" yMin="0" xMax="1298" yMax="1530">
      <contour>
        <pt x="236" y="1530" on="1"/>
        <pt x="406" y="1530" on="1"/>
        <pt x="406" y="839" on="1"/>
        <pt x="1129" y="839" on="1"/>
        <pt x="1129" y="1530" on="1"/>
        <pt x="1298" y="1530" on="1"/>
        <pt x="1298" y="0" on="1"/>
        <pt x="1129" y="0" on="1"/>
        <pt x="1129" y="694" on="1"/>
        <pt x="406" y="694" on="1"/>
        <pt x="406" y="0" on="1"/>
        <pt x="236" y="0" on="1"/>
      </contour>
    </TTGlyph>
    <TTGlyph name="Hbar" xMin="82" yMin="0" xMax="1452" yMax="1530">
      <contour>
        <pt x="236" y="1063" on="1"/>
        <pt x="82" y="1063" on="1"/>
        <pt x="82" y="1198" on="1"/>
        <pt x="236" y="1198" on="1"/>
        <pt x="236" y="1530" on="1"/>
        <pt x="406" y="1530" on="1"/>
        <pt x="406" y="1198" on="1"/>
        <pt x="1129" y="1198" on="1"/>
        <pt x="1129" y="1530" on="1"/>
        <pt x="1298" y="1530" on="1"/>
        <pt x="1298" y="1198" on="1"/>
        <pt x="1452" y="1198" on="1"/>
        <pt x="1452" y="1063" on="1"/>
        <pt x="1298" y="1063" on="1"/>
        <pt x="1298" y="0" on="1"/>
        <pt x="1129" y="0" on="1"/>
        <pt x="1129" y="694" on="1"/>
        <pt x="406" y="694" on="1"/>
        <pt x="406" y="0" on="1"/>
        <pt x="236" y="0" on="1"/>
      </contour>
      <contour>
        <pt x="1129" y="839" on="1"/>
        <pt x="1129" y="1063" on="1"/>
        <pt x="406" y="1063" on="1"/>
        <pt x="406" y="839" on="1"/>
      </contour>
    </TTGlyph>
    <TTGlyph name="Hcircumflex" xMin="236" yMin="0" xMax="1298" yMax="1991">
      <contour>
        <pt x="236" y="1530" on="1"/>
        <pt x="406" y="1530" on="1"/>
        <pt x="406" y="839" on="1"/>
        <pt x="1129" y="839" on="1"/>
        <pt x="1129" y="1530" on="1"/>
        <pt x="1298" y="1530" on="1"/>
        <pt x="1298" y="0" on="1"/>
        <pt x="1129" y="0" on="1"/>
        <pt x="1129" y="694" on="1"/>
        <pt x="406" y="694" on="1"/>
        <pt x="406" y="0" on="1"/>
        <pt x="236" y="0" on="1"/>
      </contour>
      <contour>
        <pt x="470" y="1744" on="1"/>
        <pt x="694" y="1991" on="1"/>
        <pt x="854" y="1991" on="1"/>
        <pt x="1087" y="1743" on="1"/>
        <pt x="1010" y="1663" on="1"/>
        <pt x="773" y="1863" on="1"/>
        <pt x="544" y="1662" on="1"/>
      </contour>
    </TTGlyph>
    <TTGlyph name="I" xMin="257" yMin="0" xMax="426" yMax="1530">
      <contour>
        <pt x="257" y="1530" on="1"/>
        <pt x="426" y="1530" on="1"/>
        <pt x="426" y="0" on="1"/>
        <pt x="257" y="0" on="1"/>
      </contour>
    </TTGlyph>
    <TTGlyph name="IJ" xMin="257" yMin="-20" xMax="1329" yMax="1530">
      <contour>
        <pt x="257" y="1530" on="1"/>
        <pt x="426" y="1530" on="1"/>
        <pt x="426" y="0" on="1"/>
        <pt x="257" y="0" on="1"/>
      </contour>
      <contour>
        <pt x="715" y="182" on="1"/>
        <pt x="715" y="182" on="0"/>
        <pt x="738" y="171" on="1"/>
        <pt x="847" y="119" on="0"/>
        <pt x="969" y="119" on="1"/>
        <pt x="1075" y="119" on="0"/>
        <pt x="1119" y="185" on="1"/>
        <pt x="1161" y="249" on="0"/>
        <pt x="1161" y="404" on="1"/>
        <pt x="1161" y="1530" on="1"/>
        <pt x="1329" y="1530" on="1"/>
        <pt x="1329" y="516" on="1"/>
        <pt x="1329" y="329" on="0"/>
        <pt x="1298" y="175" on="0"/>
        <pt x="1251" y="81" on="0"/>
        <pt x="1211" y="48" on="1"/>
        <pt x="1129" y="-20" on="0"/>
        <pt x="969" y="-20" on="1"/>
        <pt x="831" y="-20" on="0"/>
        <pt x="710" y="30" on="1"/>
        <pt x="681" y="42" on="0"/>
        <pt x="666" y="51" on="1"/>
      </contour>
    </TTGlyph>
    <TTGlyph name="Iacute" xMin="118" yMin="0" xMax="627" yMax="2000">
      <contour>
        <pt x="257" y="1530" on="1"/>
        <pt x="426" y="1530" on="1"/>
        <pt x="426" y="0" on="1"/>
        <pt x="257" y="0" on="1"/>
      </contour>
      <contour>
        <pt x="118" y="1741" on="1"/>
        <pt x="534" y="2000" on="1"/>
        <pt x="627" y="1841" on="1"/>
        <pt x="168" y="1649" on="1"/>
      </contour>
    </TTGlyph>
    <TTGlyph name="Ibreve" xMin="21" yMin="0" xMax="663" yMax="2000">
      <contour>
        <pt x="257" y="1530" on="1"/>
        <pt x="426" y="1530" on="1"/>
        <pt x="426" y="0" on="1"/>
        <pt x="257" y="0" on="1"/>
      </contour>
      <contour>
        <pt x="663" y="1989" on="1"/>
        <pt x="653" y="1649" on="0"/>
        <pt x="342" y="1649" on="1"/>
        <pt x="184" y="1649" on="0"/>
        <pt x="21" y="1823" on="0"/>
        <pt x="21" y="1989" on="1"/>
        <pt x="157" y="2000" on="1"/>
        <pt x="159" y="1880" on="0"/>
        <pt x="250" y="1773" on="0"/>
        <pt x="342" y="1773" on="1"/>
        <pt x="482" y="1773" on="0"/>
        <pt x="514" y="1892" on="1"/>
        <pt x="525" y="1936" on="0"/>
        <pt x="527" y="2000" on="1"/>
      </contour>
    </TTGlyph>
    <TTGlyph name="Icircumflex" xMin="37" yMin="0" xMax="654" yMax="1991">
      <contour>
        <pt x="257" y="1530" on="1"/>
        <pt x="426" y="1530" on="1"/>
        <pt x="426" y="0" on="1"/>
        <pt x="257" y="0" on="1"/>
      </contour>
      <contour>
        <pt x="37" y="1744" on="1"/>
        <pt x="261" y="1991" on="1"/>
        <pt x="421" y="1991" on="1"/>
        <pt x="654" y="1743" on="1"/>
        <pt x="577" y="1663" on="1"/>
        <pt x="340" y="1863" on="1"/>
        <pt x="111" y="1662" on="1"/>
      </contour>
    </TTGlyph>
    <TTGlyph name="Idieresis" xMin="3" yMin="0" xMax="679" yMax="1948">
      <contour>
        <pt x="257" y="1530" on="1"/>
        <pt x="426" y="1530" on="1"/>
        <pt x="426" y="0" on="1"/>
        <pt x="257" y="0" on="1"/>
      </contour>
      <contour>
        <pt x="570" y="1717" on="1"/>
        <pt x="507" y="1717" on="0"/>
        <pt x="489" y="1735" on="1"/>
        <pt x="461" y="1764" on="0"/>
        <pt x="461" y="1868" on="0"/>
        <pt x="473" y="1913" on="0"/>
        <pt x="485" y="1926" on="1"/>
        <pt x="508" y="1948" on="0"/>
        <pt x="601" y="1948" on="0"/>
        <pt x="643" y="1938" on="0"/>
        <pt x="655" y="1926" on="1"/>
        <pt x="679" y="1902" on="0"/>
        <pt x="679" y="1799" on="0"/>
        <pt x="668" y="1754" on="0"/>
        <pt x="655" y="1740" on="1"/>
        <pt x="634" y="1717" on="0"/>
      </contour>
      <contour>
        <pt x="112" y="1717" on="1"/>
        <pt x="49" y="1717" on="0"/>
        <pt x="31" y="1735" on="1"/>
        <pt x="3" y="1764" on="0"/>
        <pt x="3" y="1868" on="0"/>
        <pt x="15" y="1913" on="0"/>
        <pt x="27" y="1926" on="1"/>
        <pt x="50" y="1948" on="0"/>
        <pt x="143" y="1948" on="0"/>
        <pt x="184" y="1938" on="0"/>
        <pt x="197" y="1926" on="1"/>
        <pt x="219" y="1903" on="0"/>
        <pt x="219" y="1799" on="0"/>
        <pt x="209" y="1754" on="0"/>
        <pt x="197" y="1740" on="1"/>
        <pt x="175" y="1717" on="0"/>
      </contour>
    </TTGlyph>
    <TTGlyph name="Idotaccent" xMin="225" yMin="0" xMax="455" yMax="1954">
      <contour>
        <pt x="257" y="1530" on="1"/>
        <pt x="426" y="1530" on="1"/>
        <pt x="426" y="0" on="1"/>
        <pt x="257" y="0" on="1"/>
      </contour>
      <contour>
        <pt x="341" y="1711" on="1"/>
        <pt x="274" y="1711" on="0"/>
        <pt x="255" y="1730" on="1"/>
        <pt x="225" y="1761" on="0"/>
        <pt x="225" y="1870" on="0"/>
        <pt x="238" y="1917" on="0"/>
        <pt x="252" y="1930" on="1"/>
        <pt x="275" y="1954" on="0"/>
        <pt x="374" y="1954" on="0"/>
        <pt x="417" y="1944" on="0"/>
        <pt x="430" y="1930" on="1"/>
        <pt x="455" y="1906" on="0"/>
        <pt x="455" y="1797" on="0"/>
        <pt x="444" y="1750" on="0"/>
        <pt x="430" y="1736" on="1"/>
        <pt x="406" y="1711" on="0"/>
      </contour>
    </TTGlyph>
    <TTGlyph name="Igrave" xMin="51" yMin="0" xMax="556" yMax="2000">
      <contour>
        <pt x="257" y="1530" on="1"/>
        <pt x="426" y="1530" on="1"/>
        <pt x="426" y="0" on="1"/>
        <pt x="257" y="0" on="1"/>
      </contour>
      <contour>
        <pt x="51" y="1836" on="1"/>
        <pt x="135" y="2000" on="1"/>
        <pt x="556" y="1741" on="1"/>
        <pt x="506" y="1649" on="1"/>
      </contour>
    </TTGlyph>
    <TTGlyph name="Imacron" xMin="43" yMin="0" xMax="642" yMax="1876">
      <contour>
        <pt x="257" y="1530" on="1"/>
        <pt x="426" y="1530" on="1"/>
        <pt x="426" y="0" on="1"/>
        <pt x="257" y="0" on="1"/>
      </contour>
      <contour>
        <pt x="43" y="1876" on="1"/>
        <pt x="642" y="1876" on="1"/>
        <pt x="642" y="1741" on="1"/>
        <pt x="43" y="1741" on="1"/>
      </contour>
    </TTGlyph>
    <TTGlyph name="Iogonek" xMin="79" yMin="-475" xMax="517" yMax="1530">
      <contour>
        <pt x="79" y="-276" on="1"/>
        <pt x="79" y="-124" on="0"/>
        <pt x="258" y="0" on="1"/>
        <pt x="257" y="0" on="1"/>
        <pt x="257" y="1530" on="1"/>
        <pt x="426" y="1530" on="1"/>
        <pt x="426" y="0" on="1"/>
        <pt x="415" y="0" on="1"/>
        <pt x="269" y="-88" on="0"/>
        <pt x="233" y="-198" on="1"/>
        <pt x="223" y="-229" on="0"/>
        <pt x="223" y="-252" on="1"/>
        <pt x="223" y="-339" on="0"/>
        <pt x="328" y="-339" on="1"/>
        <pt x="403" y="-339" on="0"/>
        <pt x="477" y="-308" on="1"/>
        <pt x="517" y="-433" on="1"/>
        <pt x="451" y="-475" on="0"/>
        <pt x="339" y="-475" on="1"/>
        <pt x="79" y="-475" on="0"/>
      </contour>
    </TTGlyph>
    <TTGlyph name="Itilde" xMin="-42" yMin="0" xMax="725" yMax="1982">
      <contour>
        <pt x="257" y="1530" on="1"/>
        <pt x="426" y="1530" on="1"/>
        <pt x="426" y="0" on="1"/>
        <pt x="257" y="0" on="1"/>
      </contour>
      <contour>
        <pt x="725" y="1926" on="1"/>
        <pt x="626" y="1696" on="0"/>
        <pt x="459" y="1696" on="1"/>
        <pt x="411" y="1696" on="0"/>
        <pt x="326" y="1756" on="1"/>
        <pt x="295" y="1778" on="0"/>
        <pt x="234" y="1815" on="0"/>
        <pt x="186" y="1815" on="0"/>
        <pt x="145" y="1795" on="0"/>
        <pt x="99" y="1763" on="0"/>
        <pt x="75" y="1742" on="1"/>
        <pt x="29" y="1702" on="1"/>
        <pt x="-42" y="1765" on="1"/>
        <pt x="14" y="1868" on="0"/>
        <pt x="155" y="1961" on="0"/>
        <pt x="224" y="1961" on="1"/>
        <pt x="237" y="1961" on="1"/>
        <pt x="292" y="1961" on="0"/>
        <pt x="373" y="1904" on="1"/>
        <pt x="429" y="1865" on="1"/>
        <pt x="455" y="1847" on="0"/>
        <pt x="501" y="1847" on="0"/>
        <pt x="541" y="1870" on="0"/>
        <pt x="580" y="1908" on="0"/>
        <pt x="599" y="1932" on="1"/>
        <pt x="638" y="1982" on="1"/>
      </contour>
    </TTGlyph>
    <TTGlyph name="J" xMin="-17" yMin="-20" xMax="646" yMax="1530">
      <contour>
        <pt x="32" y="182" on="1"/>
        <pt x="32" y="182" on="0"/>
        <pt x="55" y="171" on="1"/>
        <pt x="164" y="119" on="0"/>
        <pt x="286" y="119" on="1"/>
        <pt x="392" y="119" on="0"/>
        <pt x="436" y="185" on="1"/>
        <pt x="478" y="249" on="0"/>
        <pt x="478" y="404" on="1"/>
        <pt x="478" y="1530" on="1"/>
        <pt x="646" y="1530" on="1"/>
        <pt x="646" y="516" on="1"/>
        <pt x="646" y="329" on="0"/>
        <pt x="615" y="175" on="0"/>
        <pt x="568" y="81" on="0"/>
        <pt x="528" y="48" on="1"/>
        <pt x="446" y="-20" on="0"/>
        <pt x="286" y="-20" on="1"/>
        <pt x="148" y="-20" on="0"/>
        <pt x="27" y="30" on="1"/>
        <pt x="-2" y="42" on="0"/>
        <pt x="-17" y="51" on="1"/>
      </contour>
    </TTGlyph>
    <TTGlyph name="Jcircumflex" xMin="-17" yMin="-20" xMax="872" yMax="1991">
      <contour>
        <pt x="32" y="182" on="1"/>
        <pt x="32" y="182" on="0"/>
        <pt x="55" y="171" on="1"/>
        <pt x="164" y="119" on="0"/>
        <pt x="286" y="119" on="1"/>
        <pt x="392" y="119" on="0"/>
        <pt x="436" y="185" on="1"/>
        <pt x="478" y="249" on="0"/>
        <pt x="478" y="404" on="1"/>
        <pt x="478" y="1530" on="1"/>
        <pt x="646" y="1530" on="1"/>
        <pt x="646" y="516" on="1"/>
        <pt x="646" y="329" on="0"/>
        <pt x="615" y="175" on="0"/>
        <pt x="568" y="81" on="0"/>
        <pt x="528" y="48" on="1"/>
        <pt x="446" y="-20" on="0"/>
        <pt x="286" y="-20" on="1"/>
        <pt x="148" y="-20" on="0"/>
        <pt x="27" y="30" on="1"/>
        <pt x="-2" y="42" on="0"/>
        <pt x="-17" y="51" on="1"/>
      </contour>
      <contour>
        <pt x="255" y="1744" on="1"/>
        <pt x="479" y="1991" on="1"/>
        <pt x="639" y="1991" on="1"/>
        <pt x="872" y="1743" on="1"/>
        <pt x="795" y="1663" on="1"/>
        <pt x="558" y="1863" on="1"/>
        <pt x="329" y="1662" on="1"/>
      </contour>
    </TTGlyph>
    <TTGlyph name="K" xMin="236" yMin="0" xMax="1297" yMax="1531">
      <contour>
        <pt x="453" y="688" on="1"/>
        <pt x="406" y="687" on="1"/>
        <pt x="406" y="0" on="1"/>
        <pt x="236" y="0" on="1"/>
        <pt x="236" y="1530" on="1"/>
        <pt x="406" y="1530" on="1"/>
        <pt x="406" y="812" on="1"/>
        <pt x="462" y="812" on="0"/>
        <pt x="496" y="829" on="0"/>
        <pt x="542" y="862" on="0"/>
        <pt x="632" y="965" on="0"/>
        <pt x="683" y="1031" on="1"/>
        <pt x="818" y="1214" on="0"/>
        <pt x="875" y="1299" on="1"/>
        <pt x="968" y="1441" on="1"/>
        <pt x="1004" y="1498" on="0"/>
        <pt x="1022" y="1531" on="1"/>
        <pt x="1220" y="1531" on="1"/>
        <pt x="1211" y="1511" on="0"/>
        <pt x="1185" y="1470" on="1"/>
        <pt x="1098" y="1336" on="0"/>
        <pt x="1046" y="1264" on="1"/>
        <pt x="854" y="1005" on="1"/>
        <pt x="767" y="898" on="1"/>
        <pt x="678" y="792" on="0"/>
        <pt x="649" y="781" on="1"/>
        <pt x="649" y="772" on="1"/>
        <pt x="680" y="760" on="1"/>
        <pt x="749" y="734" on="0"/>
        <pt x="857" y="591" on="1"/>
        <pt x="1297" y="0" on="1"/>
        <pt x="1080" y="0" on="1"/>
        <pt x="759" y="454" on="1"/>
        <pt x="598" y="680" on="0"/>
        <pt x="486" y="687" on="1"/>
        <pt x="470" y="688" on="0"/>
      </contour>
    </TTGlyph>
    <TTGlyph name="Kcommaaccent" xMin="236" yMin="-560" xMax="1297" yMax="1531">
      <contour>
        <pt x="453" y="688" on="1"/>
        <pt x="406" y="687" on="1"/>
        <pt x="406" y="0" on="1"/>
        <pt x="236" y="0" on="1"/>
        <pt x="236" y="1530" on="1"/>
        <pt x="406" y="1530" on="1"/>
        <pt x="406" y="812" on="1"/>
        <pt x="462" y="812" on="0"/>
        <pt x="496" y="829" on="0"/>
        <pt x="542" y="862" on="0"/>
        <pt x="632" y="965" on="0"/>
        <pt x="683" y="1031" on="1"/>
        <pt x="818" y="1214" on="0"/>
        <pt x="875" y="1299" on="1"/>
        <pt x="968" y="1441" on="1"/>
        <pt x="1004" y="1498" on="0"/>
        <pt x="1022" y="1531" on="1"/>
        <pt x="1220" y="1531" on="1"/>
        <pt x="1211" y="1511" on="0"/>
        <pt x="1185" y="1470" on="1"/>
        <pt x="1098" y="1336" on="0"/>
        <pt x="1046" y="1264" on="1"/>
        <pt x="854" y="1005" on="1"/>
        <pt x="767" y="898" on="1"/>
        <pt x="678" y="792" on="0"/>
        <pt x="649" y="781" on="1"/>
        <pt x="649" y="772" on="1"/>
        <pt x="680" y="760" on="1"/>
        <pt x="749" y="734" on="0"/>
        <pt x="857" y="591" on="1"/>
        <pt x="1297" y="0" on="1"/>
        <pt x="1080" y="0" on="1"/>
        <pt x="759" y="454" on="1"/>
        <pt x="598" y="680" on="0"/>
        <pt x="486" y="687" on="1"/>
        <pt x="470" y="688" on="0"/>
      </contour>
      <contour>
        <pt x="666" y="-129" on="1"/>
        <pt x="690" y="-127" on="0"/>
        <pt x="709" y="-127" on="1"/>
        <pt x="746" y="-127" on="1"/>
        <pt x="776" y="-127" on="0"/>
        <pt x="814" y="-144" on="0"/>
        <pt x="814" y="-162" on="1"/>
        <pt x="814" y="-196" on="0"/>
        <pt x="803" y="-222" on="1"/>
        <pt x="676" y="-560" on="1"/>
        <pt x="567" y="-560" on="1"/>
        <pt x="638" y="-131" on="1"/>
      </contour>
    </TTGlyph>
    <TTGlyph name="L" xMin="235" yMin="0" xMax="1011" yMax="1530">
      <contour>
        <pt x="235" y="1530" on="1"/>
        <pt x="405" y="1530" on="1"/>
        <pt x="405" y="147" on="1"/>
        <pt x="1011" y="147" on="1"/>
        <pt x="1011" y="0" on="1"/>
        <pt x="235" y="0" on="1"/>
      </contour>
    </TTGlyph>
    <TTGlyph name="Lacute" xMin="224" yMin="0" xMax="1011" yMax="2000">
      <contour>
        <pt x="235" y="1530" on="1"/>
        <pt x="405" y="1530" on="1"/>
        <pt x="405" y="147" on="1"/>
        <pt x="1011" y="147" on="1"/>
        <pt x="1011" y="0" on="1"/>
        <pt x="235" y="0" on="1"/>
      </contour>
      <contour>
        <pt x="224" y="1741" on="1"/>
        <pt x="640" y="2000" on="1"/>
        <pt x="733" y="1841" on="1"/>
        <pt x="274" y="1649" on="1"/>
      </contour>
    </TTGlyph>
    <TTGlyph name="Lcaron" xMin="235" yMin="0" xMax="1011" yMax="1530">
      <contour>
        <pt x="235" y="1530" on="1"/>
        <pt x="405" y="1530" on="1"/>
        <pt x="405" y="147" on="1"/>
        <pt x="1011" y="147" on="1"/>
        <pt x="1011" y="0" on="1"/>
        <pt x="235" y="0" on="1"/>
      </contour>
      <contour>
        <pt x="772" y="1524" on="1"/>
        <pt x="823" y="1524" on="0"/>
        <pt x="823" y="1477" on="1"/>
        <pt x="823" y="1464" on="0"/>
        <pt x="818" y="1429" on="1"/>
        <pt x="766" y="1091" on="1"/>
        <pt x="654" y="1091" on="1"/>
        <pt x="654" y="1510" on="1"/>
        <pt x="676" y="1514" on="1"/>
        <pt x="734" y="1524" on="0"/>
      </contour>
    </TTGlyph>
    <TTGlyph name="Lcommaaccent" xMin="235" yMin="-560" xMax="1011" yMax="1530">
      <contour>
        <pt x="235" y="1530" on="1"/>
        <pt x="405" y="1530" on="1"/>
        <pt x="405" y="147" on="1"/>
        <pt x="1011" y="147" on="1"/>
        <pt x="1011" y="0" on="1"/>
        <pt x="235" y="0" on="1"/>
      </contour>
      <contour>
        <pt x="560" y="-129" on="1"/>
        <pt x="584" y="-127" on="0"/>
        <pt x="603" y="-127" on="1"/>
        <pt x="640" y="-127" on="1"/>
        <pt x="670" y="-127" on="0"/>
        <pt x="708" y="-144" on="0"/>
        <pt x="708" y="-162" on="1"/>
        <pt x="708" y="-196" on="0"/>
        <pt x="697" y="-222" on="1"/>
        <pt x="570" y="-560" on="1"/>
        <pt x="461" y="-560" on="1"/>
        <pt x="532" y="-131" on="1"/>
      </contour>
    </TTGlyph>
    <TTGlyph name="Ldot" xMin="235" yMin="0" xMax="1011" yMax="1530">
      <contour>
        <pt x="235" y="1530" on="1"/>
        <pt x="405" y="1530" on="1"/>
        <pt x="405" y="147" on="1"/>
        <pt x="1011" y="147" on="1"/>
        <pt x="1011" y="0" on="1"/>
        <pt x="235" y="0" on="1"/>
      </contour>
      <contour>
        <pt x="645" y="693" on="0"/>
        <pt x="635" y="744" on="0"/>
        <pt x="635" y="823" on="0"/>
        <pt x="646" y="873" on="0"/>
        <pt x="660" y="887" on="1"/>
        <pt x="683" y="913" on="0"/>
        <pt x="787" y="913" on="0"/>
        <pt x="832" y="902" on="0"/>
        <pt x="845" y="887" on="1"/>
        <pt x="868" y="862" on="0"/>
        <pt x="868" y="784" on="1"/>
        <pt x="868" y="706" on="0"/>
        <pt x="850" y="685" on="1"/>
        <pt x="822" y="652" on="0"/>
        <pt x="752" y="652" on="1"/>
        <pt x="682" y="652" on="0"/>
      </contour>
    </TTGlyph>
    <TTGlyph name="Lslash" xMin="54" yMin="0" xMax="1011" yMax="1530">
      <contour>
        <pt x="235" y="504" on="1"/>
        <pt x="62" y="364" on="1"/>
        <pt x="54" y="519" on="1"/>
        <pt x="235" y="662" on="1"/>
        <pt x="235" y="1530" on="1"/>
        <pt x="405" y="1530" on="1"/>
        <pt x="405" y="799" on="1"/>
        <pt x="720" y="1060" on="1"/>
        <pt x="728" y="895" on="1"/>
        <pt x="405" y="640" on="1"/>
        <pt x="405" y="147" on="1"/>
        <pt x="1011" y="147" on="1"/>
        <pt x="1011" y="0" on="1"/>
        <pt x="235" y="0" on="1"/>
      </contour>
    </TTGlyph>
    <TTGlyph name="M" xMin="126" yMin="0" xMax="1919" yMax="1530">
      <contour>
        <pt x="362" y="1530" on="1"/>
        <pt x="623" y="1530" on="1"/>
        <pt x="971" y="400" on="1"/>
        <pt x="1030" y="156" on="1"/>
        <pt x="1087" y="401" on="1"/>
        <pt x="1423" y="1530" on="1"/>
        <pt x="1672" y="1530" on="1"/>
        <pt x="1919" y="0" on="1"/>
        <pt x="1749" y="0" on="1"/>
        <pt x="1563" y="1156" on="1"/>
        <pt x="1535" y="1426" on="1"/>
        <pt x="1474" y="1154" on="1"/>
        <pt x="1129" y="1" on="1"/>
        <pt x="932" y="1" on="1"/>
        <pt x="572" y="1160" on="1"/>
        <pt x="501" y="1426" on="1"/>
        <pt x="467" y="1158" on="1"/>
        <pt x="298" y="0" on="1"/>
        <pt x="126" y="0" on="1"/>
      </contour>
    </TTGlyph>
    <TTGlyph name="N" xMin="236" yMin="0" xMax="1299" yMax="1530">
      <contour>
        <pt x="236" y="1530" on="1"/>
        <pt x="371" y="1530" on="1"/>
        <pt x="1075" y="418" on="1"/>
        <pt x="1166" y="229" on="1"/>
        <pt x="1144" y="439" on="1"/>
        <pt x="1144" y="1530" on="1"/>
        <pt x="1299" y="1530" on="1"/>
        <pt x="1299" y="0" on="1"/>
        <pt x="1156" y="0" on="1"/>
        <pt x="457" y="1109" on="1"/>
        <pt x="369" y="1281" on="1"/>
        <pt x="391" y="1077" on="1"/>
        <pt x="391" y="0" on="1"/>
        <pt x="236" y="0" on="1"/>
      </contour>
    </TTGlyph>
    <TTGlyph name="Nacute" xMin="236" yMin="0" xMax="1299" yMax="2000">
      <contour>
        <pt x="236" y="1530" on="1"/>
        <pt x="371" y="1530" on="1"/>
        <pt x="1075" y="418" on="1"/>
        <pt x="1166" y="229" on="1"/>
        <pt x="1144" y="439" on="1"/>
        <pt x="1144" y="1530" on="1"/>
        <pt x="1299" y="1530" on="1"/>
        <pt x="1299" y="0" on="1"/>
        <pt x="1156" y="0" on="1"/>
        <pt x="457" y="1109" on="1"/>
        <pt x="369" y="1281" on="1"/>
        <pt x="391" y="1077" on="1"/>
        <pt x="391" y="0" on="1"/>
        <pt x="236" y="0" on="1"/>
      </contour>
      <contour>
        <pt x="601" y="1741" on="1"/>
        <pt x="1017" y="2000" on="1"/>
        <pt x="1110" y="1841" on="1"/>
        <pt x="651" y="1649" on="1"/>
      </contour>
    </TTGlyph>
    <TTGlyph name="Ncaron" xMin="236" yMin="0" xMax="1299" yMax="1998">
      <contour>
        <pt x="236" y="1530" on="1"/>
        <pt x="371" y="1530" on="1"/>
        <pt x="1075" y="418" on="1"/>
        <pt x="1166" y="229" on="1"/>
        <pt x="1144" y="439" on="1"/>
        <pt x="1144" y="1530" on="1"/>
        <pt x="1299" y="1530" on="1"/>
        <pt x="1299" y="0" on="1"/>
        <pt x="1156" y="0" on="1"/>
        <pt x="457" y="1109" on="1"/>
        <pt x="369" y="1281" on="1"/>
        <pt x="391" y="1077" on="1"/>
        <pt x="391" y="0" on="1"/>
        <pt x="236" y="0" on="1"/>
      </contour>
      <contour>
        <pt x="467" y="1917" on="1"/>
        <pt x="544" y="1997" on="1"/>
        <pt x="781" y="1797" on="1"/>
        <pt x="1010" y="1998" on="1"/>
        <pt x="1084" y="1916" on="1"/>
        <pt x="860" y="1669" on="1"/>
        <pt x="700" y="1669" on="1"/>
      </contour>
    </TTGlyph>
    <TTGlyph name="Ncommaaccent" xMin="236" yMin="-560" xMax="1299" yMax="1530">
      <contour>
        <pt x="236" y="1530" on="1"/>
        <pt x="371" y="1530" on="1"/>
        <pt x="1075" y="418" on="1"/>
        <pt x="1166" y="229" on="1"/>
        <pt x="1144" y="439" on="1"/>
        <pt x="1144" y="1530" on="1"/>
        <pt x="1299" y="1530" on="1"/>
        <pt x="1299" y="0" on="1"/>
        <pt x="1156" y="0" on="1"/>
        <pt x="457" y="1109" on="1"/>
        <pt x="369" y="1281" on="1"/>
        <pt x="391" y="1077" on="1"/>
        <pt x="391" y="0" on="1"/>
        <pt x="236" y="0" on="1"/>
      </contour>
      <contour>
        <pt x="708" y="-129" on="1"/>
        <pt x="732" y="-127" on="0"/>
        <pt x="751" y="-127" on="1"/>
        <pt x="788" y="-127" on="1"/>
        <pt x="818" y="-127" on="0"/>
        <pt x="856" y="-144" on="0"/>
        <pt x="856" y="-162" on="1"/>
        <pt x="856" y="-196" on="0"/>
        <pt x="845" y="-222" on="1"/>
        <pt x="718" y="-560" on="1"/>
        <pt x="609" y="-560" on="1"/>
        <pt x="680" y="-131" on="1"/>
      </contour>
    </TTGlyph>
    <TTGlyph name="Ntilde" xMin="236" yMin="0" xMax="1299" yMax="1982">
      <contour>
        <pt x="236" y="1530" on="1"/>
        <pt x="371" y="1530" on="1"/>
        <pt x="1075" y="418" on="1"/>
        <pt x="1166" y="229" on="1"/>
        <pt x="1144" y="439" on="1"/>
        <pt x="1144" y="1530" on="1"/>
        <pt x="1299" y="1530" on="1"/>
        <pt x="1299" y="0" on="1"/>
        <pt x="1156" y="0" on="1"/>
        <pt x="457" y="1109" on="1"/>
        <pt x="369" y="1281" on="1"/>
        <pt x="391" y="1077" on="1"/>
        <pt x="391" y="0" on="1"/>
        <pt x="236" y="0" on="1"/>
      </contour>
      <contour>
        <pt x="1162" y="1926" on="1"/>
        <pt x="1063" y="1696" on="0"/>
        <pt x="896" y="1696" on="1"/>
        <pt x="848" y="1696" on="0"/>
        <pt x="763" y="1756" on="1"/>
        <pt x="732" y="1778" on="0"/>
        <pt x="671" y="1815" on="0"/>
        <pt x="623" y="1815" on="0"/>
        <pt x="582" y="1795" on="0"/>
        <pt x="536" y="1763" on="0"/>
        <pt x="512" y="1742" on="1"/>
        <pt x="466" y="1702" on="1"/>
        <pt x="395" y="1765" on="1"/>
        <pt x="451" y="1868" on="0"/>
        <pt x="592" y="1961" on="0"/>
        <pt x="661" y="1961" on="1"/>
        <pt x="674" y="1961" on="1"/>
        <pt x="729" y="1961" on="0"/>
        <pt x="810" y="1904" on="1"/>
        <pt x="866" y="1865" on="1"/>
        <pt x="892" y="1847" on="0"/>
        <pt x="938" y="1847" on="0"/>
        <pt x="978" y="1870" on="0"/>
        <pt x="1017" y="1908" on="0"/>
        <pt x="1036" y="1932" on="1"/>
        <pt x="1075" y="1982" on="1"/>
      </contour>
    </TTGlyph>
    <TTGlyph name="O" xMin="185" yMin="-20" xMax="1353" yMax="1550">
      <contour>
        <pt x="739" y="-20" on="1"/>
        <pt x="383" y="-20" on="0"/>
        <pt x="269" y="204" on="1"/>
        <pt x="202" y="334" on="0"/>
        <pt x="190" y="551" on="1"/>
        <pt x="185" y="653" on="0"/>
        <pt x="185" y="893" on="0"/>
        <pt x="199" y="1108" on="0"/>
        <pt x="240" y="1282" on="0"/>
        <pt x="315" y="1415" on="0"/>
        <pt x="376" y="1460" on="1"/>
        <pt x="502" y="1550" on="0"/>
        <pt x="739" y="1550" on="1"/>
        <pt x="801" y="1550" on="1"/>
        <pt x="1172" y="1550" on="0"/>
        <pt x="1276" y="1350" on="1"/>
        <pt x="1341" y="1225" on="0"/>
        <pt x="1349" y="1002" on="1"/>
        <pt x="1353" y="893" on="0"/>
        <pt x="1353" y="650" on="0"/>
        <pt x="1341" y="445" on="0"/>
        <pt x="1303" y="271" on="0"/>
        <pt x="1230" y="131" on="0"/>
        <pt x="1168" y="82" on="1"/>
        <pt x="1040" y="-20" on="0"/>
        <pt x="801" y="-20" on="1"/>
      </contour>
      <contour>
        <pt x="799" y="124" on="1"/>
        <pt x="909" y="124" on="0"/>
        <pt x="1054" y="172" on="0"/>
        <pt x="1096" y="232" on="1"/>
        <pt x="1174" y="343" on="0"/>
        <pt x="1174" y="658" on="1"/>
        <pt x="1174" y="766" on="1"/>
        <pt x="1174" y="917" on="0"/>
        <pt x="1158" y="1153" on="0"/>
        <pt x="1123" y="1234" on="1"/>
        <pt x="1051" y="1402" on="0"/>
        <pt x="811" y="1402" on="1"/>
        <pt x="727" y="1402" on="1"/>
        <pt x="483" y="1402" on="0"/>
        <pt x="415" y="1245" on="1"/>
        <pt x="372" y="1145" on="0"/>
        <pt x="364" y="873" on="0"/>
        <pt x="364" y="766" on="1"/>
        <pt x="364" y="658" on="1"/>
        <pt x="364" y="363" on="0"/>
        <pt x="452" y="242" on="1"/>
        <pt x="537" y="124" on="0"/>
        <pt x="739" y="124" on="1"/>
      </contour>
    </TTGlyph>
    <TTGlyph name="OE" xMin="184" yMin="-20" xMax="1975" yMax="1550">
      <contour>
        <pt x="1083" y="0" on="1"/>
        <pt x="940" y="-20" on="0"/>
        <pt x="608" y="-20" on="0"/>
        <pt x="427" y="34" on="0"/>
        <pt x="304" y="133" on="0"/>
        <pt x="232" y="274" on="0"/>
        <pt x="214" y="362" on="1"/>
        <pt x="184" y="501" on="0"/>
        <pt x="184" y="893" on="0"/>
        <pt x="198" y="1108" on="0"/>
        <pt x="239" y="1282" on="0"/>
        <pt x="314" y="1415" on="0"/>
        <pt x="376" y="1460" on="1"/>
        <pt x="501" y="1550" on="0"/>
        <pt x="934" y="1550" on="0"/>
        <pt x="1094" y="1530" on="1"/>
        <pt x="1948" y="1530" on="1"/>
        <pt x="1948" y="1382" on="1"/>
        <pt x="1251" y="1382" on="1"/>
        <pt x="1251" y="854" on="1"/>
        <pt x="1813" y="854" on="1"/>
        <pt x="1813" y="707" on="1"/>
        <pt x="1251" y="707" on="1"/>
        <pt x="1251" y="147" on="1"/>
        <pt x="1975" y="147" on="1"/>
        <pt x="1975" y="0" on="1"/>
      </contour>
      <contour>
        <pt x="1081" y="1372" on="1"/>
        <pt x="943" y="1401" on="0"/>
        <pt x="656" y="1401" on="0"/>
        <pt x="528" y="1369" on="0"/>
        <pt x="442" y="1302" on="0"/>
        <pt x="393" y="1199" on="0"/>
        <pt x="381" y="1128" on="1"/>
        <pt x="363" y="1023" on="0"/>
        <pt x="363" y="766" on="1"/>
        <pt x="363" y="659" on="1"/>
        <pt x="363" y="328" on="0"/>
        <pt x="477" y="217" on="1"/>
        <pt x="549" y="147" on="0"/>
        <pt x="677" y="132" on="1"/>
        <pt x="739" y="124" on="0"/>
        <pt x="951" y="124" on="0"/>
        <pt x="1081" y="150" on="1"/>
      </contour>
    </TTGlyph>
    <TTGlyph name="Oacute" xMin="185" yMin="-20" xMax="1353" yMax="2000">
      <contour>
        <pt x="739" y="-20" on="1"/>
        <pt x="383" y="-20" on="0"/>
        <pt x="269" y="204" on="1"/>
        <pt x="202" y="334" on="0"/>
        <pt x="190" y="551" on="1"/>
        <pt x="185" y="653" on="0"/>
        <pt x="185" y="893" on="0"/>
        <pt x="199" y="1108" on="0"/>
        <pt x="240" y="1282" on="0"/>
        <pt x="315" y="1415" on="0"/>
        <pt x="376" y="1460" on="1"/>
        <pt x="502" y="1550" on="0"/>
        <pt x="739" y="1550" on="1"/>
        <pt x="801" y="1550" on="1"/>
        <pt x="1172" y="1550" on="0"/>
        <pt x="1276" y="1350" on="1"/>
        <pt x="1341" y="1225" on="0"/>
        <pt x="1349" y="1002" on="1"/>
        <pt x="1353" y="893" on="0"/>
        <pt x="1353" y="650" on="0"/>
        <pt x="1341" y="445" on="0"/>
        <pt x="1303" y="271" on="0"/>
        <pt x="1230" y="131" on="0"/>
        <pt x="1168" y="82" on="1"/>
        <pt x="1040" y="-20" on="0"/>
        <pt x="801" y="-20" on="1"/>
      </contour>
      <contour>
        <pt x="799" y="124" on="1"/>
        <pt x="909" y="124" on="0"/>
        <pt x="1054" y="172" on="0"/>
        <pt x="1096" y="232" on="1"/>
        <pt x="1174" y="343" on="0"/>
        <pt x="1174" y="658" on="1"/>
        <pt x="1174" y="766" on="1"/>
        <pt x="1174" y="917" on="0"/>
        <pt x="1158" y="1153" on="0"/>
        <pt x="1123" y="1234" on="1"/>
        <pt x="1051" y="1402" on="0"/>
        <pt x="811" y="1402" on="1"/>
        <pt x="727" y="1402" on="1"/>
        <pt x="483" y="1402" on="0"/>
        <pt x="415" y="1245" on="1"/>
        <pt x="372" y="1145" on="0"/>
        <pt x="364" y="873" on="0"/>
        <pt x="364" y="766" on="1"/>
        <pt x="364" y="658" on="1"/>
        <pt x="364" y="363" on="0"/>
        <pt x="452" y="242" on="1"/>
        <pt x="537" y="124" on="0"/>
        <pt x="739" y="124" on="1"/>
      </contour>
      <contour>
        <pt x="584" y="1741" on="1"/>
        <pt x="1000" y="2000" on="1"/>
        <pt x="1093" y="1841" on="1"/>
        <pt x="634" y="1649" on="1"/>
      </contour>
    </TTGlyph>
    <TTGlyph name="Obreve" xMin="185" yMin="-20" xMax="1353" yMax="2000">
      <contour>
        <pt x="739" y="-20" on="1"/>
        <pt x="383" y="-20" on="0"/>
        <pt x="269" y="204" on="1"/>
        <pt x="202" y="334" on="0"/>
        <pt x="190" y="551" on="1"/>
        <pt x="185" y="653" on="0"/>
        <pt x="185" y="893" on="0"/>
        <pt x="199" y="1108" on="0"/>
        <pt x="240" y="1282" on="0"/>
        <pt x="315" y="1415" on="0"/>
        <pt x="376" y="1460" on="1"/>
        <pt x="502" y="1550" on="0"/>
        <pt x="739" y="1550" on="1"/>
        <pt x="801" y="1550" on="1"/>
        <pt x="1172" y="1550" on="0"/>
        <pt x="1276" y="1350" on="1"/>
        <pt x="1341" y="1225" on="0"/>
        <pt x="1349" y="1002" on="1"/>
        <pt x="1353" y="893" on="0"/>
        <pt x="1353" y="650" on="0"/>
        <pt x="1341" y="445" on="0"/>
        <pt x="1303" y="271" on="0"/>
        <pt x="1230" y="131" on="0"/>
        <pt x="1168" y="82" on="1"/>
        <pt x="1040" y="-20" on="0"/>
        <pt x="801" y="-20" on="1"/>
      </contour>
      <contour>
        <pt x="799" y="124" on="1"/>
        <pt x="909" y="124" on="0"/>
        <pt x="1054" y="172" on="0"/>
        <pt x="1096" y="232" on="1"/>
        <pt x="1174" y="343" on="0"/>
        <pt x="1174" y="658" on="1"/>
        <pt x="1174" y="766" on="1"/>
        <pt x="1174" y="917" on="0"/>
        <pt x="1158" y="1153" on="0"/>
        <pt x="1123" y="1234" on="1"/>
        <pt x="1051" y="1402" on="0"/>
        <pt x="811" y="1402" on="1"/>
        <pt x="727" y="1402" on="1"/>
        <pt x="483" y="1402" on="0"/>
        <pt x="415" y="1245" on="1"/>
        <pt x="372" y="1145" on="0"/>
        <pt x="364" y="873" on="0"/>
        <pt x="364" y="766" on="1"/>
        <pt x="364" y="658" on="1"/>
        <pt x="364" y="363" on="0"/>
        <pt x="452" y="242" on="1"/>
        <pt x="537" y="124" on="0"/>
        <pt x="739" y="124" on="1"/>
      </contour>
      <contour>
        <pt x="1097" y="1989" on="1"/>
        <pt x="1087" y="1649" on="0"/>
        <pt x="776" y="1649" on="1"/>
        <pt x="618" y="1649" on="0"/>
        <pt x="455" y="1823" on="0"/>
        <pt x="455" y="1989" on="1"/>
        <pt x="591" y="2000" on="1"/>
        <pt x="593" y="1880" on="0"/>
        <pt x="684" y="1773" on="0"/>
        <pt x="776" y="1773" on="1"/>
        <pt x="916" y="1773" on="0"/>
        <pt x="948" y="1892" on="1"/>
        <pt x="959" y="1936" on="0"/>
        <pt x="961" y="2000" on="1"/>
      </contour>
    </TTGlyph>
    <TTGlyph name="Ocircumflex" xMin="185" yMin="-20" xMax="1353" yMax="1991">
      <contour>
        <pt x="739" y="-20" on="1"/>
        <pt x="383" y="-20" on="0"/>
        <pt x="269" y="204" on="1"/>
        <pt x="202" y="334" on="0"/>
        <pt x="190" y="551" on="1"/>
        <pt x="185" y="653" on="0"/>
        <pt x="185" y="893" on="0"/>
        <pt x="199" y="1108" on="0"/>
        <pt x="240" y="1282" on="0"/>
        <pt x="315" y="1415" on="0"/>
        <pt x="376" y="1460" on="1"/>
        <pt x="502" y="1550" on="0"/>
        <pt x="739" y="1550" on="1"/>
        <pt x="801" y="1550" on="1"/>
        <pt x="1172" y="1550" on="0"/>
        <pt x="1276" y="1350" on="1"/>
        <pt x="1341" y="1225" on="0"/>
        <pt x="1349" y="1002" on="1"/>
        <pt x="1353" y="893" on="0"/>
        <pt x="1353" y="650" on="0"/>
        <pt x="1341" y="445" on="0"/>
        <pt x="1303" y="271" on="0"/>
        <pt x="1230" y="131" on="0"/>
        <pt x="1168" y="82" on="1"/>
        <pt x="1040" y="-20" on="0"/>
        <pt x="801" y="-20" on="1"/>
      </contour>
      <contour>
        <pt x="799" y="124" on="1"/>
        <pt x="909" y="124" on="0"/>
        <pt x="1054" y="172" on="0"/>
        <pt x="1096" y="232" on="1"/>
        <pt x="1174" y="343" on="0"/>
        <pt x="1174" y="658" on="1"/>
        <pt x="1174" y="766" on="1"/>
        <pt x="1174" y="917" on="0"/>
        <pt x="1158" y="1153" on="0"/>
        <pt x="1123" y="1234" on="1"/>
        <pt x="1051" y="1402" on="0"/>
        <pt x="811" y="1402" on="1"/>
        <pt x="727" y="1402" on="1"/>
        <pt x="483" y="1402" on="0"/>
        <pt x="415" y="1245" on="1"/>
        <pt x="372" y="1145" on="0"/>
        <pt x="364" y="873" on="0"/>
        <pt x="364" y="766" on="1"/>
        <pt x="364" y="658" on="1"/>
        <pt x="364" y="363" on="0"/>
        <pt x="452" y="242" on="1"/>
        <pt x="537" y="124" on="0"/>
        <pt x="739" y="124" on="1"/>
      </contour>
      <contour>
        <pt x="466" y="1744" on="1"/>
        <pt x="690" y="1991" on="1"/>
        <pt x="850" y="1991" on="1"/>
        <pt x="1083" y="1743" on="1"/>
        <pt x="1006" y="1663" on="1"/>
        <pt x="769" y="1863" on="1"/>
        <pt x="540" y="1662" on="1"/>
      </contour>
    </TTGlyph>
    <TTGlyph name="Odieresis" xMin="185" yMin="-20" xMax="1353" yMax="1948">
      <contour>
        <pt x="739" y="-20" on="1"/>
        <pt x="383" y="-20" on="0"/>
        <pt x="269" y="204" on="1"/>
        <pt x="202" y="334" on="0"/>
        <pt x="190" y="551" on="1"/>
        <pt x="185" y="653" on="0"/>
        <pt x="185" y="893" on="0"/>
        <pt x="199" y="1108" on="0"/>
        <pt x="240" y="1282" on="0"/>
        <pt x="315" y="1415" on="0"/>
        <pt x="376" y="1460" on="1"/>
        <pt x="502" y="1550" on="0"/>
        <pt x="739" y="1550" on="1"/>
        <pt x="801" y="1550" on="1"/>
        <pt x="1172" y="1550" on="0"/>
        <pt x="1276" y="1350" on="1"/>
        <pt x="1341" y="1225" on="0"/>
        <pt x="1349" y="1002" on="1"/>
        <pt x="1353" y="893" on="0"/>
        <pt x="1353" y="650" on="0"/>
        <pt x="1341" y="445" on="0"/>
        <pt x="1303" y="271" on="0"/>
        <pt x="1230" y="131" on="0"/>
        <pt x="1168" y="82" on="1"/>
        <pt x="1040" y="-20" on="0"/>
        <pt x="801" y="-20" on="1"/>
      </contour>
      <contour>
        <pt x="799" y="124" on="1"/>
        <pt x="909" y="124" on="0"/>
        <pt x="1054" y="172" on="0"/>
        <pt x="1096" y="232" on="1"/>
        <pt x="1174" y="343" on="0"/>
        <pt x="1174" y="658" on="1"/>
        <pt x="1174" y="766" on="1"/>
        <pt x="1174" y="917" on="0"/>
        <pt x="1158" y="1153" on="0"/>
        <pt x="1123" y="1234" on="1"/>
        <pt x="1051" y="1402" on="0"/>
        <pt x="811" y="1402" on="1"/>
        <pt x="727" y="1402" on="1"/>
        <pt x="483" y="1402" on="0"/>
        <pt x="415" y="1245" on="1"/>
        <pt x="372" y="1145" on="0"/>
        <pt x="364" y="873" on="0"/>
        <pt x="364" y="766" on="1"/>
        <pt x="364" y="658" on="1"/>
        <pt x="364" y="363" on="0"/>
        <pt x="452" y="242" on="1"/>
        <pt x="537" y="124" on="0"/>
        <pt x="739" y="124" on="1"/>
      </contour>
      <contour>
        <pt x="995" y="1717" on="1"/>
        <pt x="932" y="1717" on="0"/>
        <pt x="914" y="1735" on="1"/>
        <pt x="886" y="1764" on="0"/>
        <pt x="886" y="1868" on="0"/>
        <pt x="898" y="1913" on="0"/>
        <pt x="910" y="1926" on="1"/>
        <pt x="933" y="1948" on="0"/>
        <pt x="1026" y="1948" on="0"/>
        <pt x="1068" y="1938" on="0"/>
        <pt x="1080" y="1926" on="1"/>
        <pt x="1104" y="1902" on="0"/>
        <pt x="1104" y="1799" on="0"/>
        <pt x="1093" y="1754" on="0"/>
        <pt x="1080" y="1740" on="1"/>
        <pt x="1059" y="1717" on="0"/>
      </contour>
      <contour>
        <pt x="537" y="1717" on="1"/>
        <pt x="474" y="1717" on="0"/>
        <pt x="456" y="1735" on="1"/>
        <pt x="428" y="1764" on="0"/>
        <pt x="428" y="1868" on="0"/>
        <pt x="440" y="1913" on="0"/>
        <pt x="452" y="1926" on="1"/>
        <pt x="475" y="1948" on="0"/>
        <pt x="568" y="1948" on="0"/>
        <pt x="609" y="1938" on="0"/>
        <pt x="622" y="1926" on="1"/>
        <pt x="644" y="1903" on="0"/>
        <pt x="644" y="1799" on="0"/>
        <pt x="634" y="1754" on="0"/>
        <pt x="622" y="1740" on="1"/>
        <pt x="600" y="1717" on="0"/>
      </contour>
    </TTGlyph>
    <TTGlyph name="Ograve" xMin="185" yMin="-20" xMax="1353" yMax="2000">
      <contour>
        <pt x="739" y="-20" on="1"/>
        <pt x="383" y="-20" on="0"/>
        <pt x="269" y="204" on="1"/>
        <pt x="202" y="334" on="0"/>
        <pt x="190" y="551" on="1"/>
        <pt x="185" y="653" on="0"/>
        <pt x="185" y="893" on="0"/>
        <pt x="199" y="1108" on="0"/>
        <pt x="240" y="1282" on="0"/>
        <pt x="315" y="1415" on="0"/>
        <pt x="376" y="1460" on="1"/>
        <pt x="502" y="1550" on="0"/>
        <pt x="739" y="1550" on="1"/>
        <pt x="801" y="1550" on="1"/>
        <pt x="1172" y="1550" on="0"/>
        <pt x="1276" y="1350" on="1"/>
        <pt x="1341" y="1225" on="0"/>
        <pt x="1349" y="1002" on="1"/>
        <pt x="1353" y="893" on="0"/>
        <pt x="1353" y="650" on="0"/>
        <pt x="1341" y="445" on="0"/>
        <pt x="1303" y="271" on="0"/>
        <pt x="1230" y="131" on="0"/>
        <pt x="1168" y="82" on="1"/>
        <pt x="1040" y="-20" on="0"/>
        <pt x="801" y="-20" on="1"/>
      </contour>
      <contour>
        <pt x="799" y="124" on="1"/>
        <pt x="909" y="124" on="0"/>
        <pt x="1054" y="172" on="0"/>
        <pt x="1096" y="232" on="1"/>
        <pt x="1174" y="343" on="0"/>
        <pt x="1174" y="658" on="1"/>
        <pt x="1174" y="766" on="1"/>
        <pt x="1174" y="917" on="0"/>
        <pt x="1158" y="1153" on="0"/>
        <pt x="1123" y="1234" on="1"/>
        <pt x="1051" y="1402" on="0"/>
        <pt x="811" y="1402" on="1"/>
        <pt x="727" y="1402" on="1"/>
        <pt x="483" y="1402" on="0"/>
        <pt x="415" y="1245" on="1"/>
        <pt x="372" y="1145" on="0"/>
        <pt x="364" y="873" on="0"/>
        <pt x="364" y="766" on="1"/>
        <pt x="364" y="658" on="1"/>
        <pt x="364" y="363" on="0"/>
        <pt x="452" y="242" on="1"/>
        <pt x="537" y="124" on="0"/>
        <pt x="739" y="124" on="1"/>
      </contour>
      <contour>
        <pt x="494" y="1836" on="1"/>
        <pt x="578" y="2000" on="1"/>
        <pt x="999" y="1741" on="1"/>
        <pt x="949" y="1649" on="1"/>
      </contour>
    </TTGlyph>
    <TTGlyph name="Ohungarumlaut" xMin="185" yMin="-20" xMax="1353" yMax="2000">
      <contour>
        <pt x="739" y="-20" on="1"/>
        <pt x="383" y="-20" on="0"/>
        <pt x="269" y="204" on="1"/>
        <pt x="202" y="334" on="0"/>
        <pt x="190" y="551" on="1"/>
        <pt x="185" y="653" on="0"/>
        <pt x="185" y="893" on="0"/>
        <pt x="199" y="1108" on="0"/>
        <pt x="240" y="1282" on="0"/>
        <pt x="315" y="1415" on="0"/>
        <pt x="376" y="1460" on="1"/>
        <pt x="502" y="1550" on="0"/>
        <pt x="739" y="1550" on="1"/>
        <pt x="801" y="1550" on="1"/>
        <pt x="1172" y="1550" on="0"/>
        <pt x="1276" y="1350" on="1"/>
        <pt x="1341" y="1225" on="0"/>
        <pt x="1349" y="1002" on="1"/>
        <pt x="1353" y="893" on="0"/>
        <pt x="1353" y="650" on="0"/>
        <pt x="1341" y="445" on="0"/>
        <pt x="1303" y="271" on="0"/>
        <pt x="1230" y="131" on="0"/>
        <pt x="1168" y="82" on="1"/>
        <pt x="1040" y="-20" on="0"/>
        <pt x="801" y="-20" on="1"/>
      </contour>
      <contour>
        <pt x="799" y="124" on="1"/>
        <pt x="909" y="124" on="0"/>
        <pt x="1054" y="172" on="0"/>
        <pt x="1096" y="232" on="1"/>
        <pt x="1174" y="343" on="0"/>
        <pt x="1174" y="658" on="1"/>
        <pt x="1174" y="766" on="1"/>
        <pt x="1174" y="917" on="0"/>
        <pt x="1158" y="1153" on="0"/>
        <pt x="1123" y="1234" on="1"/>
        <pt x="1051" y="1402" on="0"/>
        <pt x="811" y="1402" on="1"/>
        <pt x="727" y="1402" on="1"/>
        <pt x="483" y="1402" on="0"/>
        <pt x="415" y="1245" on="1"/>
        <pt x="372" y="1145" on="0"/>
        <pt x="364" y="873" on="0"/>
        <pt x="364" y="766" on="1"/>
        <pt x="364" y="658" on="1"/>
        <pt x="364" y="363" on="0"/>
        <pt x="452" y="242" on="1"/>
        <pt x="537" y="124" on="0"/>
        <pt x="739" y="124" on="1"/>
      </contour>
      <contour>
        <pt x="850" y="1703" on="1"/>
        <pt x="1140" y="2000" on="1"/>
        <pt x="1269" y="1880" on="1"/>
        <pt x="921" y="1629" on="1"/>
      </contour>
      <contour>
        <pt x="464" y="1706" on="1"/>
        <pt x="726" y="2000" on="1"/>
        <pt x="854" y="1881" on="1"/>
        <pt x="533" y="1633" on="1"/>
      </contour>
    </TTGlyph>
    <TTGlyph name="Omacron" xMin="185" yMin="-20" xMax="1353" yMax="1876">
      <contour>
        <pt x="739" y="-20" on="1"/>
        <pt x="383" y="-20" on="0"/>
        <pt x="269" y="204" on="1"/>
        <pt x="202" y="334" on="0"/>
        <pt x="190" y="551" on="1"/>
        <pt x="185" y="653" on="0"/>
        <pt x="185" y="893" on="0"/>
        <pt x="199" y="1108" on="0"/>
        <pt x="240" y="1282" on="0"/>
        <pt x="315" y="1415" on="0"/>
        <pt x="376" y="1460" on="1"/>
        <pt x="502" y="1550" on="0"/>
        <pt x="739" y="1550" on="1"/>
        <pt x="801" y="1550" on="1"/>
        <pt x="1172" y="1550" on="0"/>
        <pt x="1276" y="1350" on="1"/>
        <pt x="1341" y="1225" on="0"/>
        <pt x="1349" y="1002" on="1"/>
        <pt x="1353" y="893" on="0"/>
        <pt x="1353" y="650" on="0"/>
        <pt x="1341" y="445" on="0"/>
        <pt x="1303" y="271" on="0"/>
        <pt x="1230" y="131" on="0"/>
        <pt x="1168" y="82" on="1"/>
        <pt x="1040" y="-20" on="0"/>
        <pt x="801" y="-20" on="1"/>
      </contour>
      <contour>
        <pt x="799" y="124" on="1"/>
        <pt x="909" y="124" on="0"/>
        <pt x="1054" y="172" on="0"/>
        <pt x="1096" y="232" on="1"/>
        <pt x="1174" y="343" on="0"/>
        <pt x="1174" y="658" on="1"/>
        <pt x="1174" y="766" on="1"/>
        <pt x="1174" y="917" on="0"/>
        <pt x="1158" y="1153" on="0"/>
        <pt x="1123" y="1234" on="1"/>
        <pt x="1051" y="1402" on="0"/>
        <pt x="811" y="1402" on="1"/>
        <pt x="727" y="1402" on="1"/>
        <pt x="483" y="1402" on="0"/>
        <pt x="415" y="1245" on="1"/>
        <pt x="372" y="1145" on="0"/>
        <pt x="364" y="873" on="0"/>
        <pt x="364" y="766" on="1"/>
        <pt x="364" y="658" on="1"/>
        <pt x="364" y="363" on="0"/>
        <pt x="452" y="242" on="1"/>
        <pt x="537" y="124" on="0"/>
        <pt x="739" y="124" on="1"/>
      </contour>
      <contour>
        <pt x="477" y="1876" on="1"/>
        <pt x="1076" y="1876" on="1"/>
        <pt x="1076" y="1741" on="1"/>
        <pt x="477" y="1741" on="1"/>
      </contour>
    </TTGlyph>
    <TTGlyph name="Omega" xMin="103" yMin="-2" xMax="1430" yMax="1548">
      <contour>
        <pt x="103" y="133" on="1"/>
        <pt x="372" y="133" on="1"/>
        <pt x="501" y="131" on="1"/>
        <pt x="347" y="202" on="0"/>
        <pt x="252" y="382" on="1"/>
        <pt x="185" y="511" on="0"/>
        <pt x="156" y="688" on="1"/>
        <pt x="139" y="786" on="0"/>
        <pt x="139" y="1031" on="0"/>
        <pt x="210" y="1286" on="0"/>
        <pt x="284" y="1372" on="1"/>
        <pt x="436" y="1548" on="0"/>
        <pt x="749" y="1548" on="1"/>
        <pt x="790" y="1548" on="1"/>
        <pt x="1256" y="1548" on="0"/>
        <pt x="1364" y="1158" on="1"/>
        <pt x="1400" y="1031" on="0"/>
        <pt x="1400" y="864" on="1"/>
        <pt x="1400" y="728" on="0"/>
        <pt x="1324" y="464" on="0"/>
        <pt x="1284" y="387" on="1"/>
        <pt x="1191" y="209" on="0"/>
        <pt x="1038" y="131" on="1"/>
        <pt x="1167" y="133" on="1"/>
        <pt x="1430" y="133" on="1"/>
        <pt x="1430" y="-2" on="1"/>
        <pt x="887" y="-2" on="1"/>
        <pt x="887" y="209" on="1"/>
        <pt x="1127" y="290" on="0"/>
        <pt x="1202" y="634" on="1"/>
        <pt x="1222" y="729" on="0"/>
        <pt x="1222" y="807" on="1"/>
        <pt x="1222" y="864" on="1"/>
        <pt x="1222" y="1136" on="0"/>
        <pt x="1127" y="1262" on="1"/>
        <pt x="1027" y="1395" on="0"/>
        <pt x="800" y="1395" on="1"/>
        <pt x="739" y="1395" on="1"/>
        <pt x="512" y="1395" on="0"/>
        <pt x="412" y="1262" on="1"/>
        <pt x="317" y="1136" on="0"/>
        <pt x="317" y="864" on="1"/>
        <pt x="317" y="807" on="1"/>
        <pt x="317" y="669" on="0"/>
        <pt x="373" y="512" on="1"/>
        <pt x="423" y="370" on="0"/>
        <pt x="524" y="282" on="1"/>
        <pt x="578" y="234" on="0"/>
        <pt x="652" y="209" on="1"/>
        <pt x="652" y="-2" on="1"/>
        <pt x="103" y="-2" on="1"/>
      </contour>
    </TTGlyph>
    <TTGlyph name="Oslash" xMin="185" yMin="-334" xMax="1353" yMax="1846">
      <contour>
        <pt x="438" y="38" on="1"/>
        <pt x="215" y="148" on="0"/>
        <pt x="192" y="524" on="1"/>
        <pt x="185" y="638" on="0"/>
        <pt x="185" y="893" on="0"/>
        <pt x="199" y="1108" on="0"/>
        <pt x="240" y="1282" on="0"/>
        <pt x="315" y="1415" on="0"/>
        <pt x="376" y="1460" on="1"/>
        <pt x="502" y="1550" on="0"/>
        <pt x="739" y="1550" on="1"/>
        <pt x="801" y="1550" on="1"/>
        <pt x="885" y="1550" on="0"/>
        <pt x="953" y="1541" on="1"/>
        <pt x="1056" y="1846" on="1"/>
        <pt x="1189" y="1820" on="1"/>
        <pt x="1079" y="1512" on="1"/>
        <pt x="1176" y="1478" on="0"/>
        <pt x="1286" y="1349" on="0"/>
        <pt x="1340" y="1161" on="0"/>
        <pt x="1353" y="915" on="0"/>
        <pt x="1353" y="650" on="0"/>
        <pt x="1341" y="445" on="0"/>
        <pt x="1303" y="271" on="0"/>
        <pt x="1230" y="131" on="0"/>
        <pt x="1168" y="82" on="1"/>
        <pt x="1040" y="-20" on="0"/>
        <pt x="801" y="-20" on="1"/>
        <pt x="739" y="-20" on="1"/>
        <pt x="636" y="-20" on="0"/>
        <pt x="558" y="-2" on="1"/>
        <pt x="447" y="-334" on="1"/>
        <pt x="317" y="-310" on="1"/>
      </contour>
      <contour>
        <pt x="904" y="1395" on="1"/>
        <pt x="855" y="1402" on="0"/>
        <pt x="811" y="1402" on="1"/>
        <pt x="727" y="1402" on="1"/>
        <pt x="483" y="1402" on="0"/>
        <pt x="415" y="1245" on="1"/>
        <pt x="372" y="1145" on="0"/>
        <pt x="364" y="873" on="0"/>
        <pt x="364" y="766" on="1"/>
        <pt x="364" y="658" on="1"/>
        <pt x="364" y="307" on="0"/>
        <pt x="494" y="196" on="1"/>
        <pt x="700" y="785" on="1"/>
      </contour>
      <contour>
        <pt x="605" y="139" on="1"/>
        <pt x="663" y="124" on="0"/>
        <pt x="739" y="124" on="1"/>
        <pt x="799" y="124" on="1"/>
        <pt x="909" y="124" on="0"/>
        <pt x="1054" y="172" on="0"/>
        <pt x="1096" y="232" on="1"/>
        <pt x="1174" y="343" on="0"/>
        <pt x="1174" y="658" on="1"/>
        <pt x="1174" y="766" on="1"/>
        <pt x="1174" y="1028" on="0"/>
        <pt x="1137" y="1211" on="0"/>
        <pt x="1076" y="1320" on="0"/>
        <pt x="1023" y="1353" on="1"/>
        <pt x="822" y="785" on="1"/>
      </contour>
    </TTGlyph>
    <TTGlyph name="Otilde" xMin="185" yMin="-20" xMax="1353" yMax="1982">
      <contour>
        <pt x="739" y="-20" on="1"/>
        <pt x="383" y="-20" on="0"/>
        <pt x="269" y="204" on="1"/>
        <pt x="202" y="334" on="0"/>
        <pt x="190" y="551" on="1"/>
        <pt x="185" y="653" on="0"/>
        <pt x="185" y="893" on="0"/>
        <pt x="199" y="1108" on="0"/>
        <pt x="240" y="1282" on="0"/>
        <pt x="315" y="1415" on="0"/>
        <pt x="376" y="1460" on="1"/>
        <pt x="502" y="1550" on="0"/>
        <pt x="739" y="1550" on="1"/>
        <pt x="801" y="1550" on="1"/>
        <pt x="1172" y="1550" on="0"/>
        <pt x="1276" y="1350" on="1"/>
        <pt x="1341" y="1225" on="0"/>
        <pt x="1349" y="1002" on="1"/>
        <pt x="1353" y="893" on="0"/>
        <pt x="1353" y="650" on="0"/>
        <pt x="1341" y="445" on="0"/>
        <pt x="1303" y="271" on="0"/>
        <pt x="1230" y="131" on="0"/>
        <pt x="1168" y="82" on="1"/>
        <pt x="1040" y="-20" on="0"/>
        <pt x="801" y="-20" on="1"/>
      </contour>
      <contour>
        <pt x="799" y="124" on="1"/>
        <pt x="909" y="124" on="0"/>
        <pt x="1054" y="172" on="0"/>
        <pt x="1096" y="232" on="1"/>
        <pt x="1174" y="343" on="0"/>
        <pt x="1174" y="658" on="1"/>
        <pt x="1174" y="766" on="1"/>
        <pt x="1174" y="917" on="0"/>
        <pt x="1158" y="1153" on="0"/>
        <pt x="1123" y="1234" on="1"/>
        <pt x="1051" y="1402" on="0"/>
        <pt x="811" y="1402" on="1"/>
        <pt x="727" y="1402" on="1"/>
        <pt x="483" y="1402" on="0"/>
        <pt x="415" y="1245" on="1"/>
        <pt x="372" y="1145" on="0"/>
        <pt x="364" y="873" on="0"/>
        <pt x="364" y="766" on="1"/>
        <pt x="364" y="658" on="1"/>
        <pt x="364" y="363" on="0"/>
        <pt x="452" y="242" on="1"/>
        <pt x="537" y="124" on="0"/>
        <pt x="739" y="124" on="1"/>
      </contour>
      <contour>
        <pt x="1163" y="1926" on="1"/>
        <pt x="1064" y="1696" on="0"/>
        <pt x="897" y="1696" on="1"/>
        <pt x="849" y="1696" on="0"/>
        <pt x="764" y="1756" on="1"/>
        <pt x="733" y="1778" on="0"/>
        <pt x="672" y="1815" on="0"/>
        <pt x="624" y="1815" on="0"/>
        <pt x="583" y="1795" on="0"/>
        <pt x="537" y="1763" on="0"/>
        <pt x="513" y="1742" on="1"/>
        <pt x="467" y="1702" on="1"/>
        <pt x="396" y="1765" on="1"/>
        <pt x="452" y="1868" on="0"/>
        <pt x="593" y="1961" on="0"/>
        <pt x="662" y="1961" on="1"/>
        <pt x="675" y="1961" on="1"/>
        <pt x="730" y="1961" on="0"/>
        <pt x="811" y="1904" on="1"/>
        <pt x="867" y="1865" on="1"/>
        <pt x="893" y="1847" on="0"/>
        <pt x="939" y="1847" on="0"/>
        <pt x="979" y="1870" on="0"/>
        <pt x="1018" y="1908" on="0"/>
        <pt x="1037" y="1932" on="1"/>
        <pt x="1076" y="1982" on="1"/>
      </contour>
    </TTGlyph>
    <TTGlyph name="P" xMin="236" yMin="0" xMax="1236" yMax="1551">
      <contour>
        <pt x="833" y="480" on="1"/>
        <pt x="792" y="478" on="0"/>
        <pt x="587" y="478" on="0"/>
        <pt x="406" y="505" on="1"/>
        <pt x="406" y="0" on="1"/>
        <pt x="236" y="0" on="1"/>
        <pt x="236" y="1524" on="1"/>
        <pt x="527" y="1551" on="0"/>
        <pt x="815" y="1551" on="1"/>
        <pt x="1057" y="1551" on="0"/>
        <pt x="1154" y="1442" on="1"/>
        <pt x="1236" y="1350" on="0"/>
        <pt x="1236" y="1138" on="1"/>
        <pt x="1236" y="1020" on="1"/>
        <pt x="1236" y="856" on="0"/>
        <pt x="1200" y="740" on="1"/>
        <pt x="1123" y="498" on="0"/>
      </contour>
      <contour>
        <pt x="822" y="1407" on="1"/>
        <pt x="548" y="1407" on="0"/>
        <pt x="406" y="1396" on="1"/>
        <pt x="406" y="646" on="1"/>
        <pt x="581" y="623" on="0"/>
        <pt x="854" y="623" on="0"/>
        <pt x="973" y="662" on="0"/>
        <pt x="1006" y="708" on="1"/>
        <pt x="1062" y="786" on="0"/>
        <pt x="1062" y="1018" on="1"/>
        <pt x="1062" y="1142" on="1"/>
        <pt x="1062" y="1285" on="0"/>
        <pt x="1006" y="1346" on="1"/>
        <pt x="952" y="1407" on="0"/>
      </contour>
    </TTGlyph>
    <TTGlyph name="Q" xMin="185" yMin="-447" xMax="1353" yMax="1550">
      <contour>
        <pt x="822" y="-19" on="1"/>
        <pt x="801" y="-20" on="1"/>
        <pt x="739" y="-20" on="1"/>
        <pt x="383" y="-20" on="0"/>
        <pt x="269" y="204" on="1"/>
        <pt x="202" y="334" on="0"/>
        <pt x="190" y="551" on="1"/>
        <pt x="185" y="653" on="0"/>
        <pt x="185" y="893" on="0"/>
        <pt x="199" y="1108" on="0"/>
        <pt x="240" y="1282" on="0"/>
        <pt x="315" y="1415" on="0"/>
        <pt x="376" y="1460" on="1"/>
        <pt x="502" y="1550" on="0"/>
        <pt x="739" y="1550" on="1"/>
        <pt x="801" y="1550" on="1"/>
        <pt x="1172" y="1550" on="0"/>
        <pt x="1276" y="1350" on="1"/>
        <pt x="1341" y="1225" on="0"/>
        <pt x="1349" y="1002" on="1"/>
        <pt x="1353" y="893" on="0"/>
        <pt x="1353" y="612" on="0"/>
        <pt x="1330" y="352" on="0"/>
        <pt x="1290" y="251" on="1"/>
        <pt x="1204" y="37" on="0"/>
        <pt x="958" y="-7" on="1"/>
        <pt x="1077" y="-151" on="0"/>
        <pt x="1291" y="-313" on="1"/>
        <pt x="1164" y="-447" on="1"/>
        <pt x="919" y="-240" on="0"/>
      </contour>
      <contour>
        <pt x="799" y="124" on="1"/>
        <pt x="909" y="124" on="0"/>
        <pt x="1054" y="172" on="0"/>
        <pt x="1096" y="232" on="1"/>
        <pt x="1174" y="343" on="0"/>
        <pt x="1174" y="658" on="1"/>
        <pt x="1174" y="766" on="1"/>
        <pt x="1174" y="917" on="0"/>
        <pt x="1158" y="1153" on="0"/>
        <pt x="1123" y="1234" on="1"/>
        <pt x="1051" y="1402" on="0"/>
        <pt x="811" y="1402" on="1"/>
        <pt x="727" y="1402" on="1"/>
        <pt x="483" y="1402" on="0"/>
        <pt x="415" y="1245" on="1"/>
        <pt x="372" y="1145" on="0"/>
        <pt x="364" y="873" on="0"/>
        <pt x="364" y="766" on="1"/>
        <pt x="364" y="658" on="1"/>
        <pt x="364" y="363" on="0"/>
        <pt x="452" y="242" on="1"/>
        <pt x="537" y="124" on="0"/>
        <pt x="739" y="124" on="1"/>
      </contour>
    </TTGlyph>
    <TTGlyph name="R" xMin="236" yMin="0" xMax="1271" yMax="1550">
      <contour>
        <pt x="236" y="1525" on="1"/>
        <pt x="561" y="1550" on="0"/>
        <pt x="782" y="1550" on="1"/>
        <pt x="802" y="1550" on="1"/>
        <pt x="1043" y="1550" on="0"/>
        <pt x="1140" y="1442" on="1"/>
        <pt x="1221" y="1349" on="0"/>
        <pt x="1221" y="1138" on="1"/>
        <pt x="1221" y="868" on="0"/>
        <pt x="1144" y="736" on="1"/>
        <pt x="1065" y="602" on="0"/>
        <pt x="882" y="568" on="1"/>
        <pt x="916" y="526" on="0"/>
        <pt x="949" y="480" on="1"/>
        <pt x="1008" y="395" on="1"/>
        <pt x="1271" y="0" on="1"/>
        <pt x="1071" y="0" on="1"/>
        <pt x="841" y="362" on="1"/>
        <pt x="745" y="508" on="0"/>
        <pt x="699" y="555" on="1"/>
        <pt x="688" y="555" on="1"/>
        <pt x="617" y="556" on="0"/>
        <pt x="551" y="558" on="1"/>
        <pt x="406" y="564" on="1"/>
        <pt x="406" y="0" on="1"/>
        <pt x="236" y="0" on="1"/>
      </contour>
      <contour>
        <pt x="406" y="699" on="1"/>
        <pt x="511" y="694" on="0"/>
        <pt x="736" y="694" on="1"/>
        <pt x="921" y="694" on="0"/>
        <pt x="988" y="798" on="1"/>
        <pt x="1045" y="889" on="0"/>
        <pt x="1045" y="1116" on="1"/>
        <pt x="1045" y="1307" on="0"/>
        <pt x="960" y="1366" on="1"/>
        <pt x="910" y="1401" on="0"/>
        <pt x="791" y="1409" on="0"/>
        <pt x="702" y="1409" on="0"/>
        <pt x="619" y="1408" on="0"/>
        <pt x="537" y="1406" on="0"/>
        <pt x="495" y="1404" on="1"/>
        <pt x="406" y="1398" on="1"/>
      </contour>
    </TTGlyph>
    <TTGlyph name="Racute" xMin="236" yMin="0" xMax="1271" yMax="2000">
      <contour>
        <pt x="236" y="1525" on="1"/>
        <pt x="561" y="1550" on="0"/>
        <pt x="782" y="1550" on="1"/>
        <pt x="802" y="1550" on="1"/>
        <pt x="1043" y="1550" on="0"/>
        <pt x="1140" y="1442" on="1"/>
        <pt x="1221" y="1349" on="0"/>
        <pt x="1221" y="1138" on="1"/>
        <pt x="1221" y="868" on="0"/>
        <pt x="1144" y="736" on="1"/>
        <pt x="1065" y="602" on="0"/>
        <pt x="882" y="568" on="1"/>
        <pt x="916" y="526" on="0"/>
        <pt x="949" y="480" on="1"/>
        <pt x="1008" y="395" on="1"/>
        <pt x="1271" y="0" on="1"/>
        <pt x="1071" y="0" on="1"/>
        <pt x="841" y="362" on="1"/>
        <pt x="745" y="508" on="0"/>
        <pt x="699" y="555" on="1"/>
        <pt x="688" y="555" on="1"/>
        <pt x="617" y="556" on="0"/>
        <pt x="551" y="558" on="1"/>
        <pt x="406" y="564" on="1"/>
        <pt x="406" y="0" on="1"/>
        <pt x="236" y="0" on="1"/>
      </contour>
      <contour>
        <pt x="406" y="699" on="1"/>
        <pt x="511" y="694" on="0"/>
        <pt x="736" y="694" on="1"/>
        <pt x="921" y="694" on="0"/>
        <pt x="988" y="798" on="1"/>
        <pt x="1045" y="889" on="0"/>
        <pt x="1045" y="1116" on="1"/>
        <pt x="1045" y="1307" on="0"/>
        <pt x="960" y="1366" on="1"/>
        <pt x="910" y="1401" on="0"/>
        <pt x="791" y="1409" on="0"/>
        <pt x="702" y="1409" on="0"/>
        <pt x="619" y="1408" on="0"/>
        <pt x="537" y="1406" on="0"/>
        <pt x="495" y="1404" on="1"/>
        <pt x="406" y="1398" on="1"/>
      </contour>
      <contour>
        <pt x="458" y="1741" on="1"/>
        <pt x="874" y="2000" on="1"/>
        <pt x="967" y="1841" on="1"/>
        <pt x="508" y="1649" on="1"/>
      </contour>
    </TTGlyph>
    <TTGlyph name="Rcaron" xMin="236" yMin="0" xMax="1271" yMax="1998">
      <contour>
        <pt x="236" y="1525" on="1"/>
        <pt x="561" y="1550" on="0"/>
        <pt x="782" y="1550" on="1"/>
        <pt x="802" y="1550" on="1"/>
        <pt x="1043" y="1550" on="0"/>
        <pt x="1140" y="1442" on="1"/>
        <pt x="1221" y="1349" on="0"/>
        <pt x="1221" y="1138" on="1"/>
        <pt x="1221" y="868" on="0"/>
        <pt x="1144" y="736" on="1"/>
        <pt x="1065" y="602" on="0"/>
        <pt x="882" y="568" on="1"/>
        <pt x="916" y="526" on="0"/>
        <pt x="949" y="480" on="1"/>
        <pt x="1008" y="395" on="1"/>
        <pt x="1271" y="0" on="1"/>
        <pt x="1071" y="0" on="1"/>
        <pt x="841" y="362" on="1"/>
        <pt x="745" y="508" on="0"/>
        <pt x="699" y="555" on="1"/>
        <pt x="688" y="555" on="1"/>
        <pt x="617" y="556" on="0"/>
        <pt x="551" y="558" on="1"/>
        <pt x="406" y="564" on="1"/>
        <pt x="406" y="0" on="1"/>
        <pt x="236" y="0" on="1"/>
      </contour>
      <contour>
        <pt x="406" y="699" on="1"/>
        <pt x="511" y="694" on="0"/>
        <pt x="736" y="694" on="1"/>
        <pt x="921" y="694" on="0"/>
        <pt x="988" y="798" on="1"/>
        <pt x="1045" y="889" on="0"/>
        <pt x="1045" y="1116" on="1"/>
        <pt x="1045" y="1307" on="0"/>
        <pt x="960" y="1366" on="1"/>
        <pt x="910" y="1401" on="0"/>
        <pt x="791" y="1409" on="0"/>
        <pt x="702" y="1409" on="0"/>
        <pt x="619" y="1408" on="0"/>
        <pt x="537" y="1406" on="0"/>
        <pt x="495" y="1404" on="1"/>
        <pt x="406" y="1398" on="1"/>
      </contour>
      <contour>
        <pt x="373" y="1917" on="1"/>
        <pt x="450" y="1997" on="1"/>
        <pt x="687" y="1797" on="1"/>
        <pt x="916" y="1998" on="1"/>
        <pt x="990" y="1916" on="1"/>
        <pt x="766" y="1669" on="1"/>
        <pt x="606" y="1669" on="1"/>
      </contour>
    </TTGlyph>
    <TTGlyph name="Rcommaaccent" xMin="236" yMin="-560" xMax="1271" yMax="1550">
      <contour>
        <pt x="236" y="1525" on="1"/>
        <pt x="561" y="1550" on="0"/>
        <pt x="782" y="1550" on="1"/>
        <pt x="802" y="1550" on="1"/>
        <pt x="1043" y="1550" on="0"/>
        <pt x="1140" y="1442" on="1"/>
        <pt x="1221" y="1349" on="0"/>
        <pt x="1221" y="1138" on="1"/>
        <pt x="1221" y="868" on="0"/>
        <pt x="1144" y="736" on="1"/>
        <pt x="1065" y="602" on="0"/>
        <pt x="882" y="568" on="1"/>
        <pt x="916" y="526" on="0"/>
        <pt x="949" y="480" on="1"/>
        <pt x="1008" y="395" on="1"/>
        <pt x="1271" y="0" on="1"/>
        <pt x="1071" y="0" on="1"/>
        <pt x="841" y="362" on="1"/>
        <pt x="745" y="508" on="0"/>
        <pt x="699" y="555" on="1"/>
        <pt x="688" y="555" on="1"/>
        <pt x="617" y="556" on="0"/>
        <pt x="551" y="558" on="1"/>
        <pt x="406" y="564" on="1"/>
        <pt x="406" y="0" on="1"/>
        <pt x="236" y="0" on="1"/>
      </contour>
      <contour>
        <pt x="406" y="699" on="1"/>
        <pt x="511" y="694" on="0"/>
        <pt x="736" y="694" on="1"/>
        <pt x="921" y="694" on="0"/>
        <pt x="988" y="798" on="1"/>
        <pt x="1045" y="889" on="0"/>
        <pt x="1045" y="1116" on="1"/>
        <pt x="1045" y="1307" on="0"/>
        <pt x="960" y="1366" on="1"/>
        <pt x="910" y="1401" on="0"/>
        <pt x="791" y="1409" on="0"/>
        <pt x="702" y="1409" on="0"/>
        <pt x="619" y="1408" on="0"/>
        <pt x="537" y="1406" on="0"/>
        <pt x="495" y="1404" on="1"/>
        <pt x="406" y="1398" on="1"/>
      </contour>
      <contour>
        <pt x="663" y="-129" on="1"/>
        <pt x="687" y="-127" on="0"/>
        <pt x="706" y="-127" on="1"/>
        <pt x="743" y="-127" on="1"/>
        <pt x="773" y="-127" on="0"/>
        <pt x="811" y="-144" on="0"/>
        <pt x="811" y="-162" on="1"/>
        <pt x="811" y="-196" on="0"/>
        <pt x="800" y="-222" on="1"/>
        <pt x="673" y="-560" on="1"/>
        <pt x="564" y="-560" on="1"/>
        <pt x="635" y="-131" on="1"/>
      </contour>
    </TTGlyph>
    <TTGlyph name="S" xMin="85" yMin="-20" xMax="1080" yMax="1550">
      <contour>
        <pt x="151" y="241" on="1"/>
        <pt x="378" y="121" on="0"/>
        <pt x="595" y="121" on="1"/>
        <pt x="847" y="121" on="0"/>
        <pt x="890" y="282" on="1"/>
        <pt x="904" y="335" on="0"/>
        <pt x="904" y="404" on="1"/>
        <pt x="904" y="443" on="1"/>
        <pt x="904" y="513" on="0"/>
        <pt x="884" y="599" on="0"/>
        <pt x="852" y="626" on="1"/>
        <pt x="800" y="671" on="0"/>
        <pt x="606" y="701" on="1"/>
        <pt x="433" y="728" on="0"/>
        <pt x="301" y="776" on="0"/>
        <pt x="216" y="833" on="0"/>
        <pt x="186" y="876" on="1"/>
        <pt x="124" y="966" on="0"/>
        <pt x="124" y="1125" on="1"/>
        <pt x="124" y="1135" on="1"/>
        <pt x="124" y="1465" on="0"/>
        <pt x="398" y="1530" on="1"/>
        <pt x="485" y="1550" on="0"/>
        <pt x="595" y="1550" on="1"/>
        <pt x="608" y="1550" on="1"/>
        <pt x="865" y="1550" on="0"/>
        <pt x="1028" y="1476" on="1"/>
        <pt x="976" y="1323" on="1"/>
        <pt x="779" y="1408" on="0"/>
        <pt x="613" y="1408" on="1"/>
        <pt x="604" y="1408" on="1"/>
        <pt x="421" y="1408" on="0"/>
        <pt x="352" y="1339" on="1"/>
        <pt x="294" y="1281" on="0"/>
        <pt x="294" y="1138" on="1"/>
        <pt x="294" y="1134" on="1"/>
        <pt x="294" y="971" on="0"/>
        <pt x="384" y="920" on="1"/>
        <pt x="445" y="887" on="0"/>
        <pt x="760" y="837" on="0"/>
        <pt x="914" y="802" on="0"/>
        <pt x="968" y="762" on="1"/>
        <pt x="1080" y="678" on="0"/>
        <pt x="1080" y="443" on="1"/>
        <pt x="1080" y="430" on="1"/>
        <pt x="1080" y="71" on="0"/>
        <pt x="791" y="2" on="1"/>
        <pt x="702" y="-20" on="0"/>
        <pt x="544" y="-20" on="0"/>
        <pt x="415" y="-9" on="0"/>
        <pt x="348" y="5" on="1"/>
        <pt x="191" y="37" on="0"/>
        <pt x="85" y="101" on="1"/>
      </contour>
    </TTGlyph>
    <TTGlyph name="Sacute" xMin="85" yMin="-20" xMax="1080" yMax="2000">
      <contour>
        <pt x="151" y="241" on="1"/>
        <pt x="378" y="121" on="0"/>
        <pt x="595" y="121" on="1"/>
        <pt x="847" y="121" on="0"/>
        <pt x="890" y="282" on="1"/>
        <pt x="904" y="335" on="0"/>
        <pt x="904" y="404" on="1"/>
        <pt x="904" y="443" on="1"/>
        <pt x="904" y="513" on="0"/>
        <pt x="884" y="599" on="0"/>
        <pt x="852" y="626" on="1"/>
        <pt x="800" y="671" on="0"/>
        <pt x="606" y="701" on="1"/>
        <pt x="433" y="728" on="0"/>
        <pt x="301" y="776" on="0"/>
        <pt x="216" y="833" on="0"/>
        <pt x="186" y="876" on="1"/>
        <pt x="124" y="966" on="0"/>
        <pt x="124" y="1125" on="1"/>
        <pt x="124" y="1135" on="1"/>
        <pt x="124" y="1465" on="0"/>
        <pt x="398" y="1530" on="1"/>
        <pt x="485" y="1550" on="0"/>
        <pt x="595" y="1550" on="1"/>
        <pt x="608" y="1550" on="1"/>
        <pt x="865" y="1550" on="0"/>
        <pt x="1028" y="1476" on="1"/>
        <pt x="976" y="1323" on="1"/>
        <pt x="779" y="1408" on="0"/>
        <pt x="613" y="1408" on="1"/>
        <pt x="604" y="1408" on="1"/>
        <pt x="421" y="1408" on="0"/>
        <pt x="352" y="1339" on="1"/>
        <pt x="294" y="1281" on="0"/>
        <pt x="294" y="1138" on="1"/>
        <pt x="294" y="1134" on="1"/>
        <pt x="294" y="971" on="0"/>
        <pt x="384" y="920" on="1"/>
        <pt x="445" y="887" on="0"/>
        <pt x="760" y="837" on="0"/>
        <pt x="914" y="802" on="0"/>
        <pt x="968" y="762" on="1"/>
        <pt x="1080" y="678" on="0"/>
        <pt x="1080" y="443" on="1"/>
        <pt x="1080" y="430" on="1"/>
        <pt x="1080" y="71" on="0"/>
        <pt x="791" y="2" on="1"/>
        <pt x="702" y="-20" on="0"/>
        <pt x="544" y="-20" on="0"/>
        <pt x="415" y="-9" on="0"/>
        <pt x="348" y="5" on="1"/>
        <pt x="191" y="37" on="0"/>
        <pt x="85" y="101" on="1"/>
      </contour>
      <contour>
        <pt x="377" y="1741" on="1"/>
        <pt x="793" y="2000" on="1"/>
        <pt x="886" y="1841" on="1"/>
        <pt x="427" y="1649" on="1"/>
      </contour>
    </TTGlyph>
    <TTGlyph name="Scaron" xMin="85" yMin="-20" xMax="1080" yMax="1998">
      <contour>
        <pt x="151" y="241" on="1"/>
        <pt x="378" y="121" on="0"/>
        <pt x="595" y="121" on="1"/>
        <pt x="847" y="121" on="0"/>
        <pt x="890" y="282" on="1"/>
        <pt x="904" y="335" on="0"/>
        <pt x="904" y="404" on="1"/>
        <pt x="904" y="443" on="1"/>
        <pt x="904" y="513" on="0"/>
        <pt x="884" y="599" on="0"/>
        <pt x="852" y="626" on="1"/>
        <pt x="800" y="671" on="0"/>
        <pt x="606" y="701" on="1"/>
        <pt x="433" y="728" on="0"/>
        <pt x="301" y="776" on="0"/>
        <pt x="216" y="833" on="0"/>
        <pt x="186" y="876" on="1"/>
        <pt x="124" y="966" on="0"/>
        <pt x="124" y="1125" on="1"/>
        <pt x="124" y="1135" on="1"/>
        <pt x="124" y="1465" on="0"/>
        <pt x="398" y="1530" on="1"/>
        <pt x="485" y="1550" on="0"/>
        <pt x="595" y="1550" on="1"/>
        <pt x="608" y="1550" on="1"/>
        <pt x="865" y="1550" on="0"/>
        <pt x="1028" y="1476" on="1"/>
        <pt x="976" y="1323" on="1"/>
        <pt x="779" y="1408" on="0"/>
        <pt x="613" y="1408" on="1"/>
        <pt x="604" y="1408" on="1"/>
        <pt x="421" y="1408" on="0"/>
        <pt x="352" y="1339" on="1"/>
        <pt x="294" y="1281" on="0"/>
        <pt x="294" y="1138" on="1"/>
        <pt x="294" y="1134" on="1"/>
        <pt x="294" y="971" on="0"/>
        <pt x="384" y="920" on="1"/>
        <pt x="445" y="887" on="0"/>
        <pt x="760" y="837" on="0"/>
        <pt x="914" y="802" on="0"/>
        <pt x="968" y="762" on="1"/>
        <pt x="1080" y="678" on="0"/>
        <pt x="1080" y="443" on="1"/>
        <pt x="1080" y="430" on="1"/>
        <pt x="1080" y="71" on="0"/>
        <pt x="791" y="2" on="1"/>
        <pt x="702" y="-20" on="0"/>
        <pt x="544" y="-20" on="0"/>
        <pt x="415" y="-9" on="0"/>
        <pt x="348" y="5" on="1"/>
        <pt x="191" y="37" on="0"/>
        <pt x="85" y="101" on="1"/>
      </contour>
      <contour>
        <pt x="287" y="1917" on="1"/>
        <pt x="364" y="1997" on="1"/>
        <pt x="601" y="1797" on="1"/>
        <pt x="830" y="1998" on="1"/>
        <pt x="904" y="1916" on="1"/>
        <pt x="680" y="1669" on="1"/>
        <pt x="520" y="1669" on="1"/>
      </contour>
    </TTGlyph>
    <TTGlyph name="Scedilla" xMin="85" yMin="-428" xMax="1080" yMax="1550">
      <contour>
        <pt x="409" y="-281" on="1"/>
        <pt x="456" y="-291" on="0"/>
        <pt x="535" y="-291" on="0"/>
        <pt x="594" y="-249" on="0"/>
        <pt x="594" y="-207" on="1"/>
        <pt x="594" y="-121" on="0"/>
        <pt x="503" y="-16" on="1"/>
        <pt x="244" y="5" on="0"/>
        <pt x="85" y="101" on="1"/>
        <pt x="151" y="241" on="1"/>
        <pt x="378" y="121" on="0"/>
        <pt x="595" y="121" on="1"/>
        <pt x="847" y="121" on="0"/>
        <pt x="890" y="282" on="1"/>
        <pt x="904" y="335" on="0"/>
        <pt x="904" y="404" on="1"/>
        <pt x="904" y="443" on="1"/>
        <pt x="904" y="513" on="0"/>
        <pt x="884" y="599" on="0"/>
        <pt x="852" y="626" on="1"/>
        <pt x="800" y="671" on="0"/>
        <pt x="606" y="701" on="1"/>
        <pt x="433" y="728" on="0"/>
        <pt x="301" y="776" on="0"/>
        <pt x="216" y="833" on="0"/>
        <pt x="186" y="876" on="1"/>
        <pt x="124" y="966" on="0"/>
        <pt x="124" y="1125" on="1"/>
        <pt x="124" y="1135" on="1"/>
        <pt x="124" y="1465" on="0"/>
        <pt x="398" y="1530" on="1"/>
        <pt x="485" y="1550" on="0"/>
        <pt x="595" y="1550" on="1"/>
        <pt x="608" y="1550" on="1"/>
        <pt x="865" y="1550" on="0"/>
        <pt x="1028" y="1476" on="1"/>
        <pt x="976" y="1323" on="1"/>
        <pt x="779" y="1408" on="0"/>
        <pt x="613" y="1408" on="1"/>
        <pt x="604" y="1408" on="1"/>
        <pt x="421" y="1408" on="0"/>
        <pt x="352" y="1339" on="1"/>
        <pt x="294" y="1281" on="0"/>
        <pt x="294" y="1138" on="1"/>
        <pt x="294" y="1134" on="1"/>
        <pt x="294" y="971" on="0"/>
        <pt x="384" y="920" on="1"/>
        <pt x="445" y="887" on="0"/>
        <pt x="760" y="837" on="0"/>
        <pt x="914" y="802" on="0"/>
        <pt x="968" y="762" on="1"/>
        <pt x="1080" y="678" on="0"/>
        <pt x="1080" y="443" on="1"/>
        <pt x="1080" y="430" on="1"/>
        <pt x="1080" y="90" on="0"/>
        <pt x="820" y="10" on="1"/>
        <pt x="740" y="-14" on="0"/>
        <pt x="644" y="-18" on="1"/>
        <pt x="734" y="-112" on="0"/>
        <pt x="734" y="-219" on="1"/>
        <pt x="734" y="-428" on="0"/>
        <pt x="518" y="-428" on="1"/>
        <pt x="432" y="-428" on="0"/>
        <pt x="384" y="-409" on="1"/>
      </contour>
    </TTGlyph>
    <TTGlyph name="Scircumflex" xMin="85" yMin="-20" xMax="1080" yMax="1991">
      <contour>
        <pt x="151" y="241" on="1"/>
        <pt x="378" y="121" on="0"/>
        <pt x="595" y="121" on="1"/>
        <pt x="847" y="121" on="0"/>
        <pt x="890" y="282" on="1"/>
        <pt x="904" y="335" on="0"/>
        <pt x="904" y="404" on="1"/>
        <pt x="904" y="443" on="1"/>
        <pt x="904" y="513" on="0"/>
        <pt x="884" y="599" on="0"/>
        <pt x="852" y="626" on="1"/>
        <pt x="800" y="671" on="0"/>
        <pt x="606" y="701" on="1"/>
        <pt x="433" y="728" on="0"/>
        <pt x="301" y="776" on="0"/>
        <pt x="216" y="833" on="0"/>
        <pt x="186" y="876" on="1"/>
        <pt x="124" y="966" on="0"/>
        <pt x="124" y="1125" on="1"/>
        <pt x="124" y="1135" on="1"/>
        <pt x="124" y="1465" on="0"/>
        <pt x="398" y="1530" on="1"/>
        <pt x="485" y="1550" on="0"/>
        <pt x="595" y="1550" on="1"/>
        <pt x="608" y="1550" on="1"/>
        <pt x="865" y="1550" on="0"/>
        <pt x="1028" y="1476" on="1"/>
        <pt x="976" y="1323" on="1"/>
        <pt x="779" y="1408" on="0"/>
        <pt x="613" y="1408" on="1"/>
        <pt x="604" y="1408" on="1"/>
        <pt x="421" y="1408" on="0"/>
        <pt x="352" y="1339" on="1"/>
        <pt x="294" y="1281" on="0"/>
        <pt x="294" y="1138" on="1"/>
        <pt x="294" y="1134" on="1"/>
        <pt x="294" y="971" on="0"/>
        <pt x="384" y="920" on="1"/>
        <pt x="445" y="887" on="0"/>
        <pt x="760" y="837" on="0"/>
        <pt x="914" y="802" on="0"/>
        <pt x="968" y="762" on="1"/>
        <pt x="1080" y="678" on="0"/>
        <pt x="1080" y="443" on="1"/>
        <pt x="1080" y="430" on="1"/>
        <pt x="1080" y="71" on="0"/>
        <pt x="791" y="2" on="1"/>
        <pt x="702" y="-20" on="0"/>
        <pt x="544" y="-20" on="0"/>
        <pt x="415" y="-9" on="0"/>
        <pt x="348" y="5" on="1"/>
        <pt x="191" y="37" on="0"/>
        <pt x="85" y="101" on="1"/>
      </contour>
      <contour>
        <pt x="278" y="1744" on="1"/>
        <pt x="502" y="1991" on="1"/>
        <pt x="662" y="1991" on="1"/>
        <pt x="895" y="1743" on="1"/>
        <pt x="818" y="1663" on="1"/>
        <pt x="581" y="1863" on="1"/>
        <pt x="352" y="1662" on="1"/>
      </contour>
    </TTGlyph>
    <TTGlyph name="Scommaaccent" xMin="85" yMin="-560" xMax="1080" yMax="1550">
      <contour>
        <pt x="151" y="241" on="1"/>
        <pt x="378" y="121" on="0"/>
        <pt x="595" y="121" on="1"/>
        <pt x="847" y="121" on="0"/>
        <pt x="890" y="282" on="1"/>
        <pt x="904" y="335" on="0"/>
        <pt x="904" y="404" on="1"/>
        <pt x="904" y="443" on="1"/>
        <pt x="904" y="513" on="0"/>
        <pt x="884" y="599" on="0"/>
        <pt x="852" y="626" on="1"/>
        <pt x="800" y="671" on="0"/>
        <pt x="606" y="701" on="1"/>
        <pt x="433" y="728" on="0"/>
        <pt x="301" y="776" on="0"/>
        <pt x="216" y="833" on="0"/>
        <pt x="186" y="876" on="1"/>
        <pt x="124" y="966" on="0"/>
        <pt x="124" y="1125" on="1"/>
        <pt x="124" y="1135" on="1"/>
        <pt x="124" y="1465" on="0"/>
        <pt x="398" y="1530" on="1"/>
        <pt x="485" y="1550" on="0"/>
        <pt x="595" y="1550" on="1"/>
        <pt x="608" y="1550" on="1"/>
        <pt x="865" y="1550" on="0"/>
        <pt x="1028" y="1476" on="1"/>
        <pt x="976" y="1323" on="1"/>
        <pt x="779" y="1408" on="0"/>
        <pt x="613" y="1408" on="1"/>
        <pt x="604" y="1408" on="1"/>
        <pt x="421" y="1408" on="0"/>
        <pt x="352" y="1339" on="1"/>
        <pt x="294" y="1281" on="0"/>
        <pt x="294" y="1138" on="1"/>
        <pt x="294" y="1134" on="1"/>
        <pt x="294" y="971" on="0"/>
        <pt x="384" y="920" on="1"/>
        <pt x="445" y="887" on="0"/>
        <pt x="760" y="837" on="0"/>
        <pt x="914" y="802" on="0"/>
        <pt x="968" y="762" on="1"/>
        <pt x="1080" y="678" on="0"/>
        <pt x="1080" y="443" on="1"/>
        <pt x="1080" y="430" on="1"/>
        <pt x="1080" y="71" on="0"/>
        <pt x="791" y="2" on="1"/>
        <pt x="702" y="-20" on="0"/>
        <pt x="544" y="-20" on="0"/>
        <pt x="415" y="-9" on="0"/>
        <pt x="348" y="5" on="1"/>
        <pt x="191" y="37" on="0"/>
        <pt x="85" y="101" on="1"/>
      </contour>
      <contour>
        <pt x="533" y="-129" on="1"/>
        <pt x="557" y="-127" on="0"/>
        <pt x="576" y="-127" on="1"/>
        <pt x="613" y="-127" on="1"/>
        <pt x="643" y="-127" on="0"/>
        <pt x="681" y="-144" on="0"/>
        <pt x="681" y="-162" on="1"/>
        <pt x="681" y="-196" on="0"/>
        <pt x="670" y="-222" on="1"/>
        <pt x="543" y="-560" on="1"/>
        <pt x="434" y="-560" on="1"/>
        <pt x="505" y="-131" on="1"/>
      </contour>
    </TTGlyph>
    <TTGlyph name="T" xMin="12" yMin="0" xMax="1012" yMax="1530">
      <contour>
        <pt x="420" y="1382" on="1"/>
        <pt x="12" y="1382" on="1"/>
        <pt x="12" y="1530" on="1"/>
        <pt x="1012" y="1530" on="1"/>
        <pt x="1012" y="1382" on="1"/>
        <pt x="590" y="1382" on="1"/>
        <pt x="590" y="0" on="1"/>
        <pt x="420" y="0" on="1"/>
      </contour>
    </TTGlyph>
    <TTGlyph name="Tbar" xMin="12" yMin="0" xMax="1012" yMax="1530">
      <contour>
        <pt x="420" y="868" on="1"/>
        <pt x="210" y="868" on="1"/>
        <pt x="210" y="1003" on="1"/>
        <pt x="420" y="1003" on="1"/>
        <pt x="420" y="1382" on="1"/>
        <pt x="12" y="1382" on="1"/>
        <pt x="12" y="1530" on="1"/>
        <pt x="1012" y="1530" on="1"/>
        <pt x="1012" y="1382" on="1"/>
        <pt x="590" y="1382" on="1"/>
        <pt x="590" y="1003" on="1"/>
        <pt x="812" y="1003" on="1"/>
        <pt x="812" y="868" on="1"/>
        <pt x="590" y="868" on="1"/>
        <pt x="590" y="0" on="1"/>
        <pt x="420" y="0" on="1"/>
      </contour>
    </TTGlyph>
    <TTGlyph name="Tcaron" xMin="12" yMin="0" xMax="1012" yMax="1998">
      <contour>
        <pt x="420" y="1382" on="1"/>
        <pt x="12" y="1382" on="1"/>
        <pt x="12" y="1530" on="1"/>
        <pt x="1012" y="1530" on="1"/>
        <pt x="1012" y="1382" on="1"/>
        <pt x="590" y="1382" on="1"/>
        <pt x="590" y="0" on="1"/>
        <pt x="420" y="0" on="1"/>
      </contour>
      <contour>
        <pt x="196" y="1917" on="1"/>
        <pt x="273" y="1997" on="1"/>
        <pt x="510" y="1797" on="1"/>
        <pt x="739" y="1998" on="1"/>
        <pt x="813" y="1916" on="1"/>
        <pt x="589" y="1669" on="1"/>
        <pt x="429" y="1669" on="1"/>
      </contour>
    </TTGlyph>
    <TTGlyph name="Tcommaaccent" xMin="12" yMin="-560" xMax="1012" yMax="1530">
      <contour>
        <pt x="420" y="1382" on="1"/>
        <pt x="12" y="1382" on="1"/>
        <pt x="12" y="1530" on="1"/>
        <pt x="1012" y="1530" on="1"/>
        <pt x="1012" y="1382" on="1"/>
        <pt x="590" y="1382" on="1"/>
        <pt x="590" y="0" on="1"/>
        <pt x="420" y="0" on="1"/>
      </contour>
      <contour>
        <pt x="454" y="-129" on="1"/>
        <pt x="478" y="-127" on="0"/>
        <pt x="497" y="-127" on="1"/>
        <pt x="534" y="-127" on="1"/>
        <pt x="564" y="-127" on="0"/>
        <pt x="602" y="-144" on="0"/>
        <pt x="602" y="-162" on="1"/>
        <pt x="602" y="-196" on="0"/>
        <pt x="591" y="-222" on="1"/>
        <pt x="464" y="-560" on="1"/>
        <pt x="355" y="-560" on="1"/>
        <pt x="426" y="-131" on="1"/>
      </contour>
    </TTGlyph>
    <TTGlyph name="Thorn" xMin="236" yMin="0" xMax="1236" yMax="1530">
      <contour>
        <pt x="874" y="254" on="0"/>
        <pt x="792" y="249" on="0"/>
        <pt x="587" y="249" on="0"/>
        <pt x="406" y="276" on="1"/>
        <pt x="406" y="0" on="1"/>
        <pt x="236" y="0" on="1"/>
        <pt x="236" y="1530" on="1"/>
        <pt x="406" y="1530" on="1"/>
        <pt x="406" y="1271" on="1"/>
        <pt x="626" y="1291" on="0"/>
        <pt x="943" y="1291" on="0"/>
        <pt x="1107" y="1235" on="0"/>
        <pt x="1154" y="1182" on="1"/>
        <pt x="1236" y="1090" on="0"/>
        <pt x="1236" y="878" on="1"/>
        <pt x="1236" y="660" on="0"/>
        <pt x="1187" y="474" on="0"/>
        <pt x="1123" y="368" on="0"/>
        <pt x="1035" y="303" on="0"/>
        <pt x="956" y="271" on="0"/>
      </contour>
      <contour>
        <pt x="968" y="1117" on="0"/>
        <pt x="875" y="1146" on="0"/>
        <pt x="635" y="1146" on="0"/>
        <pt x="406" y="1126" on="1"/>
        <pt x="406" y="417" on="1"/>
        <pt x="558" y="397" on="0"/>
        <pt x="852" y="397" on="0"/>
        <pt x="975" y="444" on="0"/>
        <pt x="1037" y="556" on="0"/>
        <pt x="1054" y="742" on="0"/>
        <pt x="1054" y="954" on="0"/>
        <pt x="1026" y="1054" on="0"/>
      </contour>
    </TTGlyph>
    <TTGlyph name="U" xMin="214" yMin="-20" xMax="1321" yMax="1530">
      <contour>
        <pt x="214" y="1530" on="1"/>
        <pt x="382" y="1530" on="1"/>
        <pt x="382" y="712" on="1"/>
        <pt x="382" y="470" on="0"/>
        <pt x="424" y="294" on="0"/>
        <pt x="479" y="205" on="0"/>
        <pt x="523" y="178" on="1"/>
        <pt x="606" y="127" on="0"/>
        <pt x="897" y="127" on="0"/>
        <pt x="1044" y="177" on="0"/>
        <pt x="1125" y="307" on="0"/>
        <pt x="1153" y="535" on="0"/>
        <pt x="1153" y="712" on="1"/>
        <pt x="1153" y="1530" on="1"/>
        <pt x="1321" y="1530" on="1"/>
        <pt x="1321" y="718" on="1"/>
        <pt x="1321" y="461" on="0"/>
        <pt x="1283" y="266" on="0"/>
        <pt x="1216" y="130" on="0"/>
        <pt x="1155" y="82" on="1"/>
        <pt x="1027" y="-20" on="0"/>
        <pt x="773" y="-20" on="1"/>
        <pt x="395" y="-20" on="0"/>
        <pt x="285" y="196" on="1"/>
        <pt x="224" y="317" on="0"/>
        <pt x="217" y="516" on="1"/>
        <pt x="214" y="607" on="0"/>
        <pt x="214" y="705" on="1"/>
      </contour>
    </TTGlyph>
    <TTGlyph name="Uacute" xMin="214" yMin="-20" xMax="1321" yMax="2000">
      <contour>
        <pt x="214" y="1530" on="1"/>
        <pt x="382" y="1530" on="1"/>
        <pt x="382" y="712" on="1"/>
        <pt x="382" y="470" on="0"/>
        <pt x="424" y="294" on="0"/>
        <pt x="479" y="205" on="0"/>
        <pt x="523" y="178" on="1"/>
        <pt x="606" y="127" on="0"/>
        <pt x="897" y="127" on="0"/>
        <pt x="1044" y="177" on="0"/>
        <pt x="1125" y="307" on="0"/>
        <pt x="1153" y="535" on="0"/>
        <pt x="1153" y="712" on="1"/>
        <pt x="1153" y="1530" on="1"/>
        <pt x="1321" y="1530" on="1"/>
        <pt x="1321" y="718" on="1"/>
        <pt x="1321" y="461" on="0"/>
        <pt x="1283" y="266" on="0"/>
        <pt x="1216" y="130" on="0"/>
        <pt x="1155" y="82" on="1"/>
        <pt x="1027" y="-20" on="0"/>
        <pt x="773" y="-20" on="1"/>
        <pt x="395" y="-20" on="0"/>
        <pt x="285" y="196" on="1"/>
        <pt x="224" y="317" on="0"/>
        <pt x="217" y="516" on="1"/>
        <pt x="214" y="607" on="0"/>
        <pt x="214" y="705" on="1"/>
      </contour>
      <contour>
        <pt x="524" y="1741" on="1"/>
        <pt x="940" y="2000" on="1"/>
        <pt x="1033" y="1841" on="1"/>
        <pt x="574" y="1649" on="1"/>
      </contour>
    </TTGlyph>
    <TTGlyph name="Ubreve" xMin="214" yMin="-20" xMax="1321" yMax="2000">
      <contour>
        <pt x="214" y="1530" on="1"/>
        <pt x="382" y="1530" on="1"/>
        <pt x="382" y="712" on="1"/>
        <pt x="382" y="470" on="0"/>
        <pt x="424" y="294" on="0"/>
        <pt x="479" y="205" on="0"/>
        <pt x="523" y="178" on="1"/>
        <pt x="606" y="127" on="0"/>
        <pt x="897" y="127" on="0"/>
        <pt x="1044" y="177" on="0"/>
        <pt x="1125" y="307" on="0"/>
        <pt x="1153" y="535" on="0"/>
        <pt x="1153" y="712" on="1"/>
        <pt x="1153" y="1530" on="1"/>
        <pt x="1321" y="1530" on="1"/>
        <pt x="1321" y="718" on="1"/>
        <pt x="1321" y="461" on="0"/>
        <pt x="1283" y="266" on="0"/>
        <pt x="1216" y="130" on="0"/>
        <pt x="1155" y="82" on="1"/>
        <pt x="1027" y="-20" on="0"/>
        <pt x="773" y="-20" on="1"/>
        <pt x="395" y="-20" on="0"/>
        <pt x="285" y="196" on="1"/>
        <pt x="224" y="317" on="0"/>
        <pt x="217" y="516" on="1"/>
        <pt x="214" y="607" on="0"/>
        <pt x="214" y="705" on="1"/>
      </contour>
      <contour>
        <pt x="1092" y="1989" on="1"/>
        <pt x="1082" y="1649" on="0"/>
        <pt x="771" y="1649" on="1"/>
        <pt x="613" y="1649" on="0"/>
        <pt x="450" y="1823" on="0"/>
        <pt x="450" y="1989" on="1"/>
        <pt x="586" y="2000" on="1"/>
        <pt x="588" y="1880" on="0"/>
        <pt x="679" y="1773" on="0"/>
        <pt x="771" y="1773" on="1"/>
        <pt x="911" y="1773" on="0"/>
        <pt x="943" y="1892" on="1"/>
        <pt x="954" y="1936" on="0"/>
        <pt x="956" y="2000" on="1"/>
      </contour>
    </TTGlyph>
    <TTGlyph name="Ucircumflex" xMin="214" yMin="-20" xMax="1321" yMax="1991">
      <contour>
        <pt x="214" y="1530" on="1"/>
        <pt x="382" y="1530" on="1"/>
        <pt x="382" y="712" on="1"/>
        <pt x="382" y="470" on="0"/>
        <pt x="424" y="294" on="0"/>
        <pt x="479" y="205" on="0"/>
        <pt x="523" y="178" on="1"/>
        <pt x="606" y="127" on="0"/>
        <pt x="897" y="127" on="0"/>
        <pt x="1044" y="177" on="0"/>
        <pt x="1125" y="307" on="0"/>
        <pt x="1153" y="535" on="0"/>
        <pt x="1153" y="712" on="1"/>
        <pt x="1153" y="1530" on="1"/>
        <pt x="1321" y="1530" on="1"/>
        <pt x="1321" y="718" on="1"/>
        <pt x="1321" y="461" on="0"/>
        <pt x="1283" y="266" on="0"/>
        <pt x="1216" y="130" on="0"/>
        <pt x="1155" y="82" on="1"/>
        <pt x="1027" y="-20" on="0"/>
        <pt x="773" y="-20" on="1"/>
        <pt x="395" y="-20" on="0"/>
        <pt x="285" y="196" on="1"/>
        <pt x="224" y="317" on="0"/>
        <pt x="217" y="516" on="1"/>
        <pt x="214" y="607" on="0"/>
        <pt x="214" y="705" on="1"/>
      </contour>
      <contour>
        <pt x="458" y="1744" on="1"/>
        <pt x="682" y="1991" on="1"/>
        <pt x="842" y="1991" on="1"/>
        <pt x="1075" y="1743" on="1"/>
        <pt x="998" y="1663" on="1"/>
        <pt x="761" y="1863" on="1"/>
        <pt x="532" y="1662" on="1"/>
      </contour>
    </TTGlyph>
    <TTGlyph name="Udieresis" xMin="214" yMin="-20" xMax="1321" yMax="1948">
      <contour>
        <pt x="214" y="1530" on="1"/>
        <pt x="382" y="1530" on="1"/>
        <pt x="382" y="712" on="1"/>
        <pt x="382" y="470" on="0"/>
        <pt x="424" y="294" on="0"/>
        <pt x="479" y="205" on="0"/>
        <pt x="523" y="178" on="1"/>
        <pt x="606" y="127" on="0"/>
        <pt x="897" y="127" on="0"/>
        <pt x="1044" y="177" on="0"/>
        <pt x="1125" y="307" on="0"/>
        <pt x="1153" y="535" on="0"/>
        <pt x="1153" y="712" on="1"/>
        <pt x="1153" y="1530" on="1"/>
        <pt x="1321" y="1530" on="1"/>
        <pt x="1321" y="718" on="1"/>
        <pt x="1321" y="461" on="0"/>
        <pt x="1283" y="266" on="0"/>
        <pt x="1216" y="130" on="0"/>
        <pt x="1155" y="82" on="1"/>
        <pt x="1027" y="-20" on="0"/>
        <pt x="773" y="-20" on="1"/>
        <pt x="395" y="-20" on="0"/>
        <pt x="285" y="196" on="1"/>
        <pt x="224" y="317" on="0"/>
        <pt x="217" y="516" on="1"/>
        <pt x="214" y="607" on="0"/>
        <pt x="214" y="705" on="1"/>
      </contour>
      <contour>
        <pt x="998" y="1717" on="1"/>
        <pt x="935" y="1717" on="0"/>
        <pt x="917" y="1735" on="1"/>
        <pt x="889" y="1764" on="0"/>
        <pt x="889" y="1868" on="0"/>
        <pt x="901" y="1913" on="0"/>
        <pt x="913" y="1926" on="1"/>
        <pt x="936" y="1948" on="0"/>
        <pt x="1029" y="1948" on="0"/>
        <pt x="1071" y="1938" on="0"/>
        <pt x="1083" y="1926" on="1"/>
        <pt x="1107" y="1902" on="0"/>
        <pt x="1107" y="1799" on="0"/>
        <pt x="1096" y="1754" on="0"/>
        <pt x="1083" y="1740" on="1"/>
        <pt x="1062" y="1717" on="0"/>
      </contour>
      <contour>
        <pt x="540" y="1717" on="1"/>
        <pt x="477" y="1717" on="0"/>
        <pt x="459" y="1735" on="1"/>
        <pt x="431" y="1764" on="0"/>
        <pt x="431" y="1868" on="0"/>
        <pt x="443" y="1913" on="0"/>
        <pt x="455" y="1926" on="1"/>
        <pt x="478" y="1948" on="0"/>
        <pt x="571" y="1948" on="0"/>
        <pt x="612" y="1938" on="0"/>
        <pt x="625" y="1926" on="1"/>
        <pt x="647" y="1903" on="0"/>
        <pt x="647" y="1799" on="0"/>
        <pt x="637" y="1754" on="0"/>
        <pt x="625" y="1740" on="1"/>
        <pt x="603" y="1717" on="0"/>
      </contour>
    </TTGlyph>
    <TTGlyph name="Ugrave" xMin="214" yMin="-20" xMax="1321" yMax="2000">
      <contour>
        <pt x="214" y="1530" on="1"/>
        <pt x="382" y="1530" on="1"/>
        <pt x="382" y="712" on="1"/>
        <pt x="382" y="470" on="0"/>
        <pt x="424" y="294" on="0"/>
        <pt x="479" y="205" on="0"/>
        <pt x="523" y="178" on="1"/>
        <pt x="606" y="127" on="0"/>
        <pt x="897" y="127" on="0"/>
        <pt x="1044" y="177" on="0"/>
        <pt x="1125" y="307" on="0"/>
        <pt x="1153" y="535" on="0"/>
        <pt x="1153" y="712" on="1"/>
        <pt x="1153" y="1530" on="1"/>
        <pt x="1321" y="1530" on="1"/>
        <pt x="1321" y="718" on="1"/>
        <pt x="1321" y="461" on="0"/>
        <pt x="1283" y="266" on="0"/>
        <pt x="1216" y="130" on="0"/>
        <pt x="1155" y="82" on="1"/>
        <pt x="1027" y="-20" on="0"/>
        <pt x="773" y="-20" on="1"/>
        <pt x="395" y="-20" on="0"/>
        <pt x="285" y="196" on="1"/>
        <pt x="224" y="317" on="0"/>
        <pt x="217" y="516" on="1"/>
        <pt x="214" y="607" on="0"/>
        <pt x="214" y="705" on="1"/>
      </contour>
      <contour>
        <pt x="517" y="1836" on="1"/>
        <pt x="601" y="2000" on="1"/>
        <pt x="1022" y="1741" on="1"/>
        <pt x="972" y="1649" on="1"/>
      </contour>
    </TTGlyph>
    <TTGlyph name="Uhungarumlaut" xMin="214" yMin="-20" xMax="1321" yMax="2000">
      <contour>
        <pt x="214" y="1530" on="1"/>
        <pt x="382" y="1530" on="1"/>
        <pt x="382" y="712" on="1"/>
        <pt x="382" y="470" on="0"/>
        <pt x="424" y="294" on="0"/>
        <pt x="479" y="205" on="0"/>
        <pt x="523" y="178" on="1"/>
        <pt x="606" y="127" on="0"/>
        <pt x="897" y="127" on="0"/>
        <pt x="1044" y="177" on="0"/>
        <pt x="1125" y="307" on="0"/>
        <pt x="1153" y="535" on="0"/>
        <pt x="1153" y="712" on="1"/>
        <pt x="1153" y="1530" on="1"/>
        <pt x="1321" y="1530" on="1"/>
        <pt x="1321" y="718" on="1"/>
        <pt x="1321" y="461" on="0"/>
        <pt x="1283" y="266" on="0"/>
        <pt x="1216" y="130" on="0"/>
        <pt x="1155" y="82" on="1"/>
        <pt x="1027" y="-20" on="0"/>
        <pt x="773" y="-20" on="1"/>
        <pt x="395" y="-20" on="0"/>
        <pt x="285" y="196" on="1"/>
        <pt x="224" y="317" on="0"/>
        <pt x="217" y="516" on="1"/>
        <pt x="214" y="607" on="0"/>
        <pt x="214" y="705" on="1"/>
      </contour>
      <contour>
        <pt x="880" y="1703" on="1"/>
        <pt x="1170" y="2000" on="1"/>
        <pt x="1299" y="1880" on="1"/>
        <pt x="951" y="1629" on="1"/>
      </contour>
      <contour>
        <pt x="494" y="1706" on="1"/>
        <pt x="756" y="2000" on="1"/>
        <pt x="884" y="1881" on="1"/>
        <pt x="563" y="1633" on="1"/>
      </contour>
    </TTGlyph>
    <TTGlyph name="Umacron" xMin="214" yMin="-20" xMax="1321" yMax="1876">
      <contour>
        <pt x="214" y="1530" on="1"/>
        <pt x="382" y="1530" on="1"/>
        <pt x="382" y="712" on="1"/>
        <pt x="382" y="470" on="0"/>
        <pt x="424" y="294" on="0"/>
        <pt x="479" y="205" on="0"/>
        <pt x="523" y="178" on="1"/>
        <pt x="606" y="127" on="0"/>
        <pt x="897" y="127" on="0"/>
        <pt x="1044" y="177" on="0"/>
        <pt x="1125" y="307" on="0"/>
        <pt x="1153" y="535" on="0"/>
        <pt x="1153" y="712" on="1"/>
        <pt x="1153" y="1530" on="1"/>
        <pt x="1321" y="1530" on="1"/>
        <pt x="1321" y="718" on="1"/>
        <pt x="1321" y="461" on="0"/>
        <pt x="1283" y="266" on="0"/>
        <pt x="1216" y="130" on="0"/>
        <pt x="1155" y="82" on="1"/>
        <pt x="1027" y="-20" on="0"/>
        <pt x="773" y="-20" on="1"/>
        <pt x="395" y="-20" on="0"/>
        <pt x="285" y="196" on="1"/>
        <pt x="224" y="317" on="0"/>
        <pt x="217" y="516" on="1"/>
        <pt x="214" y="607" on="0"/>
        <pt x="214" y="705" on="1"/>
      </contour>
      <contour>
        <pt x="469" y="1876" on="1"/>
        <pt x="1068" y="1876" on="1"/>
        <pt x="1068" y="1741" on="1"/>
        <pt x="469" y="1741" on="1"/>
      </contour>
    </TTGlyph>
    <TTGlyph name="Uogonek" xMin="214" yMin="-475" xMax="1321" yMax="1530">
      <contour>
        <pt x="874" y="-475" on="1"/>
        <pt x="614" y="-475" on="0"/>
        <pt x="614" y="-276" on="1"/>
        <pt x="614" y="-134" on="0"/>
        <pt x="766" y="-20" on="1"/>
        <pt x="393" y="-17" on="0"/>
        <pt x="284" y="198" on="1"/>
        <pt x="224" y="319" on="0"/>
        <pt x="217" y="516" on="1"/>
        <pt x="214" y="607" on="0"/>
        <pt x="214" y="705" on="1"/>
        <pt x="214" y="1530" on="1"/>
        <pt x="382" y="1530" on="1"/>
        <pt x="382" y="712" on="1"/>
        <pt x="382" y="470" on="0"/>
        <pt x="424" y="294" on="0"/>
        <pt x="479" y="205" on="0"/>
        <pt x="523" y="178" on="1"/>
        <pt x="606" y="127" on="0"/>
        <pt x="897" y="127" on="0"/>
        <pt x="1044" y="177" on="0"/>
        <pt x="1125" y="307" on="0"/>
        <pt x="1153" y="535" on="0"/>
        <pt x="1153" y="712" on="1"/>
        <pt x="1153" y="1530" on="1"/>
        <pt x="1321" y="1530" on="1"/>
        <pt x="1321" y="718" on="1"/>
        <pt x="1321" y="495" on="0"/>
        <pt x="1294" y="311" on="0"/>
        <pt x="1247" y="181" on="0"/>
        <pt x="1204" y="130" on="1"/>
        <pt x="1114" y="23" on="0"/>
        <pt x="938" y="-7" on="1"/>
        <pt x="802" y="-91" on="0"/>
        <pt x="768" y="-200" on="1"/>
        <pt x="758" y="-229" on="0"/>
        <pt x="758" y="-252" on="1"/>
        <pt x="758" y="-339" on="0"/>
        <pt x="863" y="-339" on="1"/>
        <pt x="938" y="-339" on="0"/>
        <pt x="1012" y="-308" on="1"/>
        <pt x="1052" y="-433" on="1"/>
        <pt x="986" y="-475" on="0"/>
      </contour>
    </TTGlyph>
    <TTGlyph name="Uring" xMin="214" yMin="-20" xMax="1321" yMax="2000">
      <contour>
        <pt x="214" y="1530" on="1"/>
        <pt x="382" y="1530" on="1"/>
        <pt x="382" y="712" on="1"/>
        <pt x="382" y="470" on="0"/>
        <pt x="424" y="294" on="0"/>
        <pt x="479" y="205" on="0"/>
        <pt x="523" y="178" on="1"/>
        <pt x="606" y="127" on="0"/>
        <pt x="897" y="127" on="0"/>
        <pt x="1044" y="177" on="0"/>
        <pt x="1125" y="307" on="0"/>
        <pt x="1153" y="535" on="0"/>
        <pt x="1153" y="712" on="1"/>
        <pt x="1153" y="1530" on="1"/>
        <pt x="1321" y="1530" on="1"/>
        <pt x="1321" y="718" on="1"/>
        <pt x="1321" y="461" on="0"/>
        <pt x="1283" y="266" on="0"/>
        <pt x="1216" y="130" on="0"/>
        <pt x="1155" y="82" on="1"/>
        <pt x="1027" y="-20" on="0"/>
        <pt x="773" y="-20" on="1"/>
        <pt x="395" y="-20" on="0"/>
        <pt x="285" y="196" on="1"/>
        <pt x="224" y="317" on="0"/>
        <pt x="217" y="516" on="1"/>
        <pt x="214" y="607" on="0"/>
        <pt x="214" y="705" on="1"/>
      </contour>
      <contour>
        <pt x="762" y="1592" on="1"/>
        <pt x="599" y="1592" on="0"/>
        <pt x="546" y="1701" on="1"/>
        <pt x="527" y="1739" on="0"/>
        <pt x="527" y="1850" on="0"/>
        <pt x="564" y="1928" on="0"/>
        <pt x="596" y="1953" on="1"/>
        <pt x="656" y="2000" on="0"/>
        <pt x="762" y="2000" on="1"/>
        <pt x="926" y="2000" on="0"/>
        <pt x="978" y="1889" on="1"/>
        <pt x="997" y="1850" on="0"/>
        <pt x="997" y="1739" on="0"/>
        <pt x="960" y="1663" on="0"/>
        <pt x="928" y="1639" on="1"/>
        <pt x="865" y="1592" on="0"/>
      </contour>
      <contour>
        <pt x="650" y="1794" on="1"/>
        <pt x="650" y="1699" on="0"/>
        <pt x="870" y="1699" on="0"/>
        <pt x="870" y="1794" on="1"/>
        <pt x="870" y="1894" on="0"/>
        <pt x="650" y="1894" on="0"/>
      </contour>
    </TTGlyph>
    <TTGlyph name="Utilde" xMin="214" yMin="-20" xMax="1321" yMax="1982">
      <contour>
        <pt x="214" y="1530" on="1"/>
        <pt x="382" y="1530" on="1"/>
        <pt x="382" y="712" on="1"/>
        <pt x="382" y="470" on="0"/>
        <pt x="424" y="294" on="0"/>
        <pt x="479" y="205" on="0"/>
        <pt x="523" y="178" on="1"/>
        <pt x="606" y="127" on="0"/>
        <pt x="897" y="127" on="0"/>
        <pt x="1044" y="177" on="0"/>
        <pt x="1125" y="307" on="0"/>
        <pt x="1153" y="535" on="0"/>
        <pt x="1153" y="712" on="1"/>
        <pt x="1153" y="1530" on="1"/>
        <pt x="1321" y="1530" on="1"/>
        <pt x="1321" y="718" on="1"/>
        <pt x="1321" y="461" on="0"/>
        <pt x="1283" y="266" on="0"/>
        <pt x="1216" y="130" on="0"/>
        <pt x="1155" y="82" on="1"/>
        <pt x="1027" y="-20" on="0"/>
        <pt x="773" y="-20" on="1"/>
        <pt x="395" y="-20" on="0"/>
        <pt x="285" y="196" on="1"/>
        <pt x="224" y="317" on="0"/>
        <pt x="217" y="516" on="1"/>
        <pt x="214" y="607" on="0"/>
        <pt x="214" y="705" on="1"/>
      </contour>
      <contour>
        <pt x="1154" y="1926" on="1"/>
        <pt x="1055" y="1696" on="0"/>
        <pt x="888" y="1696" on="1"/>
        <pt x="840" y="1696" on="0"/>
        <pt x="755" y="1756" on="1"/>
        <pt x="724" y="1778" on="0"/>
        <pt x="663" y="1815" on="0"/>
        <pt x="615" y="1815" on="0"/>
        <pt x="574" y="1795" on="0"/>
        <pt x="528" y="1763" on="0"/>
        <pt x="504" y="1742" on="1"/>
        <pt x="458" y="1702" on="1"/>
        <pt x="387" y="1765" on="1"/>
        <pt x="443" y="1868" on="0"/>
        <pt x="584" y="1961" on="0"/>
        <pt x="653" y="1961" on="1"/>
        <pt x="666" y="1961" on="1"/>
        <pt x="721" y="1961" on="0"/>
        <pt x="802" y="1904" on="1"/>
        <pt x="858" y="1865" on="1"/>
        <pt x="884" y="1847" on="0"/>
        <pt x="930" y="1847" on="0"/>
        <pt x="970" y="1870" on="0"/>
        <pt x="1009" y="1908" on="0"/>
        <pt x="1028" y="1932" on="1"/>
        <pt x="1067" y="1982" on="1"/>
      </contour>
    </TTGlyph>
    <TTGlyph name="V" xMin="66" yMin="-1" xMax="1304" yMax="1530">
      <contour>
        <pt x="66" y="1530" on="1"/>
        <pt x="250" y="1530" on="1"/>
        <pt x="636" y="365" on="1"/>
        <pt x="688" y="160" on="1"/>
        <pt x="745" y="365" on="1"/>
        <pt x="1122" y="1530" on="1"/>
        <pt x="1304" y="1530" on="1"/>
        <pt x="789" y="-1" on="1"/>
        <pt x="592" y="-1" on="1"/>
      </contour>
    </TTGlyph>
    <TTGlyph name="W" xMin="34" yMin="0" xMax="2013" yMax="1530">
      <contour>
        <pt x="34" y="1530" on="1"/>
        <pt x="218" y="1530" on="1"/>
        <pt x="514" y="374" on="1"/>
        <pt x="566" y="130" on="1"/>
        <pt x="624" y="374" on="1"/>
        <pt x="932" y="1530" on="1"/>
        <pt x="1131" y="1530" on="1"/>
        <pt x="1498" y="122" on="1"/>
        <pt x="1551" y="378" on="1"/>
        <pt x="1833" y="1530" on="1"/>
        <pt x="2013" y="1530" on="1"/>
        <pt x="1621" y="0" on="1"/>
        <pt x="1367" y="0" on="1"/>
        <pt x="1074" y="1094" on="1"/>
        <pt x="1029" y="1352" on="1"/>
        <pt x="982" y="1094" on="1"/>
        <pt x="680" y="0" on="1"/>
        <pt x="446" y="0" on="1"/>
      </contour>
    </TTGlyph>
    <TTGlyph name="Wacute" xMin="34" yMin="0" xMax="2013" yMax="2000">
      <contour>
        <pt x="34" y="1530" on="1"/>
        <pt x="218" y="1530" on="1"/>
        <pt x="514" y="374" on="1"/>
        <pt x="566" y="130" on="1"/>
        <pt x="624" y="374" on="1"/>
        <pt x="932" y="1530" on="1"/>
        <pt x="1131" y="1530" on="1"/>
        <pt x="1498" y="122" on="1"/>
        <pt x="1551" y="378" on="1"/>
        <pt x="1833" y="1530" on="1"/>
        <pt x="2013" y="1530" on="1"/>
        <pt x="1621" y="0" on="1"/>
        <pt x="1367" y="0" on="1"/>
        <pt x="1074" y="1094" on="1"/>
        <pt x="1029" y="1352" on="1"/>
        <pt x="982" y="1094" on="1"/>
        <pt x="680" y="0" on="1"/>
        <pt x="446" y="0" on="1"/>
      </contour>
      <contour>
        <pt x="818" y="1741" on="1"/>
        <pt x="1234" y="2000" on="1"/>
        <pt x="1327" y="1841" on="1"/>
        <pt x="868" y="1649" on="1"/>
      </contour>
    </TTGlyph>
    <TTGlyph name="Wcircumflex" xMin="34" yMin="0" xMax="2013" yMax="1991">
      <contour>
        <pt x="34" y="1530" on="1"/>
        <pt x="218" y="1530" on="1"/>
        <pt x="514" y="374" on="1"/>
        <pt x="566" y="130" on="1"/>
        <pt x="624" y="374" on="1"/>
        <pt x="932" y="1530" on="1"/>
        <pt x="1131" y="1530" on="1"/>
        <pt x="1498" y="122" on="1"/>
        <pt x="1551" y="378" on="1"/>
        <pt x="1833" y="1530" on="1"/>
        <pt x="2013" y="1530" on="1"/>
        <pt x="1621" y="0" on="1"/>
        <pt x="1367" y="0" on="1"/>
        <pt x="1074" y="1094" on="1"/>
        <pt x="1029" y="1352" on="1"/>
        <pt x="982" y="1094" on="1"/>
        <pt x="680" y="0" on="1"/>
        <pt x="446" y="0" on="1"/>
      </contour>
      <contour>
        <pt x="723" y="1744" on="1"/>
        <pt x="947" y="1991" on="1"/>
        <pt x="1107" y="1991" on="1"/>
        <pt x="1340" y="1743" on="1"/>
        <pt x="1263" y="1663" on="1"/>
        <pt x="1026" y="1863" on="1"/>
        <pt x="797" y="1662" on="1"/>
      </contour>
    </TTGlyph>
    <TTGlyph name="Wdieresis" xMin="34" yMin="0" xMax="2013" yMax="1948">
      <contour>
        <pt x="34" y="1530" on="1"/>
        <pt x="218" y="1530" on="1"/>
        <pt x="514" y="374" on="1"/>
        <pt x="566" y="130" on="1"/>
        <pt x="624" y="374" on="1"/>
        <pt x="932" y="1530" on="1"/>
        <pt x="1131" y="1530" on="1"/>
        <pt x="1498" y="122" on="1"/>
        <pt x="1551" y="378" on="1"/>
        <pt x="1833" y="1530" on="1"/>
        <pt x="2013" y="1530" on="1"/>
        <pt x="1621" y="0" on="1"/>
        <pt x="1367" y="0" on="1"/>
        <pt x="1074" y="1094" on="1"/>
        <pt x="1029" y="1352" on="1"/>
        <pt x="982" y="1094" on="1"/>
        <pt x="680" y="0" on="1"/>
        <pt x="446" y="0" on="1"/>
      </contour>
      <contour>
        <pt x="1260" y="1717" on="1"/>
        <pt x="1197" y="1717" on="0"/>
        <pt x="1179" y="1735" on="1"/>
        <pt x="1151" y="1764" on="0"/>
        <pt x="1151" y="1868" on="0"/>
        <pt x="1163" y="1913" on="0"/>
        <pt x="1175" y="1926" on="1"/>
        <pt x="1198" y="1948" on="0"/>
        <pt x="1291" y="1948" on="0"/>
        <pt x="1333" y="1938" on="0"/>
        <pt x="1345" y="1926" on="1"/>
        <pt x="1369" y="1902" on="0"/>
        <pt x="1369" y="1799" on="0"/>
        <pt x="1358" y="1754" on="0"/>
        <pt x="1345" y="1740" on="1"/>
        <pt x="1324" y="1717" on="0"/>
      </contour>
      <contour>
        <pt x="802" y="1717" on="1"/>
        <pt x="739" y="1717" on="0"/>
        <pt x="721" y="1735" on="1"/>
        <pt x="693" y="1764" on="0"/>
        <pt x="693" y="1868" on="0"/>
        <pt x="705" y="1913" on="0"/>
        <pt x="717" y="1926" on="1"/>
        <pt x="740" y="1948" on="0"/>
        <pt x="833" y="1948" on="0"/>
        <pt x="874" y="1938" on="0"/>
        <pt x="887" y="1926" on="1"/>
        <pt x="909" y="1903" on="0"/>
        <pt x="909" y="1799" on="0"/>
        <pt x="899" y="1754" on="0"/>
        <pt x="887" y="1740" on="1"/>
        <pt x="865" y="1717" on="0"/>
      </contour>
    </TTGlyph>
    <TTGlyph name="Wgrave" xMin="34" yMin="0" xMax="2013" yMax="2000">
      <contour>
        <pt x="34" y="1530" on="1"/>
        <pt x="218" y="1530" on="1"/>
        <pt x="514" y="374" on="1"/>
        <pt x="566" y="130" on="1"/>
        <pt x="624" y="374" on="1"/>
        <pt x="932" y="1530" on="1"/>
        <pt x="1131" y="1530" on="1"/>
        <pt x="1498" y="122" on="1"/>
        <pt x="1551" y="378" on="1"/>
        <pt x="1833" y="1530" on="1"/>
        <pt x="2013" y="1530" on="1"/>
        <pt x="1621" y="0" on="1"/>
        <pt x="1367" y="0" on="1"/>
        <pt x="1074" y="1094" on="1"/>
        <pt x="1029" y="1352" on="1"/>
        <pt x="982" y="1094" on="1"/>
        <pt x="680" y="0" on="1"/>
        <pt x="446" y="0" on="1"/>
      </contour>
      <contour>
        <pt x="736" y="1836" on="1"/>
        <pt x="820" y="2000" on="1"/>
        <pt x="1241" y="1741" on="1"/>
        <pt x="1191" y="1649" on="1"/>
      </contour>
    </TTGlyph>
    <TTGlyph name="X" xMin="68" yMin="0" xMax="1293" yMax="1530">
      <contour>
        <pt x="555" y="782" on="1"/>
        <pt x="68" y="1530" on="1"/>
        <pt x="262" y="1530" on="1"/>
        <pt x="658" y="897" on="1"/>
        <pt x="1045" y="1530" on="1"/>
        <pt x="1240" y="1530" on="1"/>
        <pt x="763" y="786" on="1"/>
        <pt x="1293" y="0" on="1"/>
        <pt x="1090" y="0" on="1"/>
        <pt x="661" y="661" on="1"/>
        <pt x="259" y="0" on="1"/>
        <pt x="68" y="0" on="1"/>
      </contour>
    </TTGlyph>
    <TTGlyph name="Y" xMin="13" yMin="0" xMax="1181" yMax="1530">
      <contour>
        <pt x="512" y="565" on="1"/>
        <pt x="13" y="1530" on="1"/>
        <pt x="199" y="1530" on="1"/>
        <pt x="526" y="873" on="1"/>
        <pt x="600" y="704" on="1"/>
        <pt x="673" y="876" on="1"/>
        <pt x="993" y="1530" on="1"/>
        <pt x="1181" y="1530" on="1"/>
        <pt x="682" y="565" on="1"/>
        <pt x="681" y="0" on="1"/>
        <pt x="513" y="0" on="1"/>
      </contour>
    </TTGlyph>
    <TTGlyph name="Yacute" xMin="13" yMin="0" xMax="1181" yMax="2000">
      <contour>
        <pt x="512" y="565" on="1"/>
        <pt x="13" y="1530" on="1"/>
        <pt x="199" y="1530" on="1"/>
        <pt x="526" y="873" on="1"/>
        <pt x="600" y="704" on="1"/>
        <pt x="673" y="876" on="1"/>
        <pt x="993" y="1530" on="1"/>
        <pt x="1181" y="1530" on="1"/>
        <pt x="682" y="565" on="1"/>
        <pt x="681" y="0" on="1"/>
        <pt x="513" y="0" on="1"/>
      </contour>
      <contour>
        <pt x="385" y="1741" on="1"/>
        <pt x="801" y="2000" on="1"/>
        <pt x="894" y="1841" on="1"/>
        <pt x="435" y="1649" on="1"/>
      </contour>
    </TTGlyph>
    <TTGlyph name="Ycircumflex" xMin="13" yMin="0" xMax="1181" yMax="1991">
      <contour>
        <pt x="512" y="565" on="1"/>
        <pt x="13" y="1530" on="1"/>
        <pt x="199" y="1530" on="1"/>
        <pt x="526" y="873" on="1"/>
        <pt x="600" y="704" on="1"/>
        <pt x="673" y="876" on="1"/>
        <pt x="993" y="1530" on="1"/>
        <pt x="1181" y="1530" on="1"/>
        <pt x="682" y="565" on="1"/>
        <pt x="681" y="0" on="1"/>
        <pt x="513" y="0" on="1"/>
      </contour>
      <contour>
        <pt x="294" y="1744" on="1"/>
        <pt x="518" y="1991" on="1"/>
        <pt x="678" y="1991" on="1"/>
        <pt x="911" y="1743" on="1"/>
        <pt x="834" y="1663" on="1"/>
        <pt x="597" y="1863" on="1"/>
        <pt x="368" y="1662" on="1"/>
      </contour>
    </TTGlyph>
    <TTGlyph name="Ydieresis" xMin="13" yMin="0" xMax="1181" yMax="1948">
      <contour>
        <pt x="512" y="565" on="1"/>
        <pt x="13" y="1530" on="1"/>
        <pt x="199" y="1530" on="1"/>
        <pt x="526" y="873" on="1"/>
        <pt x="600" y="704" on="1"/>
        <pt x="673" y="876" on="1"/>
        <pt x="993" y="1530" on="1"/>
        <pt x="1181" y="1530" on="1"/>
        <pt x="682" y="565" on="1"/>
        <pt x="681" y="0" on="1"/>
        <pt x="513" y="0" on="1"/>
      </contour>
      <contour>
        <pt x="827" y="1717" on="1"/>
        <pt x="764" y="1717" on="0"/>
        <pt x="746" y="1735" on="1"/>
        <pt x="718" y="1764" on="0"/>
        <pt x="718" y="1868" on="0"/>
        <pt x="730" y="1913" on="0"/>
        <pt x="742" y="1926" on="1"/>
        <pt x="765" y="1948" on="0"/>
        <pt x="858" y="1948" on="0"/>
        <pt x="900" y="1938" on="0"/>
        <pt x="912" y="1926" on="1"/>
        <pt x="936" y="1902" on="0"/>
        <pt x="936" y="1799" on="0"/>
        <pt x="925" y="1754" on="0"/>
        <pt x="912" y="1740" on="1"/>
        <pt x="891" y="1717" on="0"/>
      </contour>
      <contour>
        <pt x="369" y="1717" on="1"/>
        <pt x="306" y="1717" on="0"/>
        <pt x="288" y="1735" on="1"/>
        <pt x="260" y="1764" on="0"/>
        <pt x="260" y="1868" on="0"/>
        <pt x="272" y="1913" on="0"/>
        <pt x="284" y="1926" on="1"/>
        <pt x="307" y="1948" on="0"/>
        <pt x="400" y="1948" on="0"/>
        <pt x="441" y="1938" on="0"/>
        <pt x="454" y="1926" on="1"/>
        <pt x="476" y="1903" on="0"/>
        <pt x="476" y="1799" on="0"/>
        <pt x="466" y="1754" on="0"/>
        <pt x="454" y="1740" on="1"/>
        <pt x="432" y="1717" on="0"/>
      </contour>
    </TTGlyph>
    <TTGlyph name="Ygrave" xMin="13" yMin="0" xMax="1181" yMax="2000">
      <contour>
        <pt x="512" y="565" on="1"/>
        <pt x="13" y="1530" on="1"/>
        <pt x="199" y="1530" on="1"/>
        <pt x="526" y="873" on="1"/>
        <pt x="600" y="704" on="1"/>
        <pt x="673" y="876" on="1"/>
        <pt x="993" y="1530" on="1"/>
        <pt x="1181" y="1530" on="1"/>
        <pt x="682" y="565" on="1"/>
        <pt x="681" y="0" on="1"/>
        <pt x="513" y="0" on="1"/>
      </contour>
      <contour>
        <pt x="319" y="1836" on="1"/>
        <pt x="403" y="2000" on="1"/>
        <pt x="824" y="1741" on="1"/>
        <pt x="774" y="1649" on="1"/>
      </contour>
    </TTGlyph>
    <TTGlyph name="Z" xMin="106" yMin="0" xMax="1080" yMax="1530">
      <contour>
        <pt x="106" y="85" on="1"/>
        <pt x="871" y="1387" on="1"/>
        <pt x="158" y="1387" on="1"/>
        <pt x="158" y="1530" on="1"/>
        <pt x="1080" y="1530" on="1"/>
        <pt x="1080" y="1442" on="1"/>
        <pt x="318" y="141" on="1"/>
        <pt x="1074" y="141" on="1"/>
        <pt x="1074" y="0" on="1"/>
        <pt x="106" y="0" on="1"/>
      </contour>
    </TTGlyph>
    <TTGlyph name="Zacute" xMin="106" yMin="0" xMax="1080" yMax="2000">
      <contour>
        <pt x="106" y="85" on="1"/>
        <pt x="871" y="1387" on="1"/>
        <pt x="158" y="1387" on="1"/>
        <pt x="158" y="1530" on="1"/>
        <pt x="1080" y="1530" on="1"/>
        <pt x="1080" y="1442" on="1"/>
        <pt x="318" y="141" on="1"/>
        <pt x="1074" y="141" on="1"/>
        <pt x="1074" y="0" on="1"/>
        <pt x="106" y="0" on="1"/>
      </contour>
      <contour>
        <pt x="433" y="1741" on="1"/>
        <pt x="849" y="2000" on="1"/>
        <pt x="942" y="1841" on="1"/>
        <pt x="483" y="1649" on="1"/>
      </contour>
    </TTGlyph>
    <TTGlyph name="Zcaron" xMin="106" yMin="0" xMax="1080" yMax="1998">
      <contour>
        <pt x="106" y="85" on="1"/>
        <pt x="871" y="1387" on="1"/>
        <pt x="158" y="1387" on="1"/>
        <pt x="158" y="1530" on="1"/>
        <pt x="1080" y="1530" on="1"/>
        <pt x="1080" y="1442" on="1"/>
        <pt x="318" y="141" on="1"/>
        <pt x="1074" y="141" on="1"/>
        <pt x="1074" y="0" on="1"/>
        <pt x="106" y="0" on="1"/>
      </contour>
      <contour>
        <pt x="312" y="1917" on="1"/>
        <pt x="389" y="1997" on="1"/>
        <pt x="626" y="1797" on="1"/>
        <pt x="855" y="1998" on="1"/>
        <pt x="929" y="1916" on="1"/>
        <pt x="705" y="1669" on="1"/>
        <pt x="545" y="1669" on="1"/>
      </contour>
    </TTGlyph>
    <TTGlyph name="Zdotaccent" xMin="106" yMin="0" xMax="1080" yMax="1954">
      <contour>
        <pt x="106" y="85" on="1"/>
        <pt x="871" y="1387" on="1"/>
        <pt x="158" y="1387" on="1"/>
        <pt x="158" y="1530" on="1"/>
        <pt x="1080" y="1530" on="1"/>
        <pt x="1080" y="1442" on="1"/>
        <pt x="318" y="141" on="1"/>
        <pt x="1074" y="141" on="1"/>
        <pt x="1074" y="0" on="1"/>
        <pt x="106" y="0" on="1"/>
      </contour>
      <contour>
        <pt x="595" y="1711" on="1"/>
        <pt x="528" y="1711" on="0"/>
        <pt x="509" y="1730" on="1"/>
        <pt x="479" y="1761" on="0"/>
        <pt x="479" y="1870" on="0"/>
        <pt x="492" y="1917" on="0"/>
        <pt x="506" y="1930" on="1"/>
        <pt x="529" y="1954" on="0"/>
        <pt x="628" y="1954" on="0"/>
        <pt x="671" y="1944" on="0"/>
        <pt x="684" y="1930" on="1"/>
        <pt x="709" y="1906" on="0"/>
        <pt x="709" y="1797" on="0"/>
        <pt x="698" y="1750" on="0"/>
        <pt x="684" y="1736" on="1"/>
        <pt x="660" y="1711" on="0"/>
      </contour>
    </TTGlyph>
    <TTGlyph name="a" xMin="175" yMin="-20" xMax="1153" yMax="1210">
      <contour>
        <pt x="1134" y="422" on="1"/>
        <pt x="1134" y="223" on="0"/>
        <pt x="1153" y="8" on="1"/>
        <pt x="1005" y="-4" on="1"/>
        <pt x="980" y="135" on="1"/>
        <pt x="853" y="33" on="0"/>
        <pt x="644" y="-7" on="1"/>
        <pt x="576" y="-20" on="0"/>
        <pt x="470" y="-20" on="0"/>
        <pt x="389" y="-10" on="0"/>
        <pt x="314" y="19" on="0"/>
        <pt x="250" y="71" on="0"/>
        <pt x="226" y="114" on="1"/>
        <pt x="175" y="205" on="0"/>
        <pt x="175" y="460" on="0"/>
        <pt x="212" y="601" on="0"/>
        <pt x="255" y="648" on="1"/>
        <pt x="340" y="741" on="0"/>
        <pt x="742" y="741" on="0"/>
        <pt x="970" y="665" on="1"/>
        <pt x="970" y="795" on="1"/>
        <pt x="970" y="1012" on="0"/>
        <pt x="791" y="1052" on="1"/>
        <pt x="733" y="1065" on="0"/>
        <pt x="658" y="1065" on="1"/>
        <pt x="487" y="1065" on="0"/>
        <pt x="303" y="997" on="1"/>
        <pt x="266" y="1141" on="1"/>
        <pt x="317" y="1175" on="0"/>
        <pt x="526" y="1202" on="1"/>
        <pt x="592" y="1210" on="0"/>
        <pt x="777" y="1210" on="0"/>
        <pt x="955" y="1166" on="0"/>
        <pt x="1014" y="1116" on="1"/>
        <pt x="1134" y="1017" on="0"/>
        <pt x="1134" y="795" on="1"/>
      </contour>
      <contour>
        <pt x="966" y="540" on="1"/>
        <pt x="732" y="599" on="0"/>
        <pt x="534" y="599" on="1"/>
        <pt x="412" y="599" on="0"/>
        <pt x="372" y="529" on="1"/>
        <pt x="345" y="480" on="0"/>
        <pt x="345" y="288" on="0"/>
        <pt x="366" y="202" on="0"/>
        <pt x="390" y="174" on="1"/>
        <pt x="437" y="121" on="0"/>
        <pt x="545" y="121" on="1"/>
        <pt x="714" y="121" on="0"/>
        <pt x="880" y="208" on="1"/>
        <pt x="931" y="234" on="0"/>
        <pt x="972" y="266" on="1"/>
        <pt x="966" y="374" on="0"/>
      </contour>
    </TTGlyph>
    <TTGlyph name="aacute" xMin="175" yMin="-20" xMax="1153" yMax="1837">
      <contour>
        <pt x="1134" y="422" on="1"/>
        <pt x="1134" y="223" on="0"/>
        <pt x="1153" y="8" on="1"/>
        <pt x="1005" y="-4" on="1"/>
        <pt x="980" y="135" on="1"/>
        <pt x="853" y="33" on="0"/>
        <pt x="644" y="-7" on="1"/>
        <pt x="576" y="-20" on="0"/>
        <pt x="470" y="-20" on="0"/>
        <pt x="389" y="-10" on="0"/>
        <pt x="314" y="19" on="0"/>
        <pt x="250" y="71" on="0"/>
        <pt x="226" y="114" on="1"/>
        <pt x="175" y="205" on="0"/>
        <pt x="175" y="460" on="0"/>
        <pt x="212" y="601" on="0"/>
        <pt x="255" y="648" on="1"/>
        <pt x="340" y="741" on="0"/>
        <pt x="742" y="741" on="0"/>
        <pt x="970" y="665" on="1"/>
        <pt x="970" y="795" on="1"/>
        <pt x="970" y="1012" on="0"/>
        <pt x="791" y="1052" on="1"/>
        <pt x="733" y="1065" on="0"/>
        <pt x="658" y="1065" on="1"/>
        <pt x="487" y="1065" on="0"/>
        <pt x="303" y="997" on="1"/>
        <pt x="266" y="1141" on="1"/>
        <pt x="317" y="1175" on="0"/>
        <pt x="526" y="1202" on="1"/>
        <pt x="592" y="1210" on="0"/>
        <pt x="777" y="1210" on="0"/>
        <pt x="955" y="1166" on="0"/>
        <pt x="1014" y="1116" on="1"/>
        <pt x="1134" y="1017" on="0"/>
        <pt x="1134" y="795" on="1"/>
      </contour>
      <contour>
        <pt x="966" y="540" on="1"/>
        <pt x="732" y="599" on="0"/>
        <pt x="534" y="599" on="1"/>
        <pt x="412" y="599" on="0"/>
        <pt x="372" y="529" on="1"/>
        <pt x="345" y="480" on="0"/>
        <pt x="345" y="288" on="0"/>
        <pt x="366" y="202" on="0"/>
        <pt x="390" y="174" on="1"/>
        <pt x="437" y="121" on="0"/>
        <pt x="545" y="121" on="1"/>
        <pt x="714" y="121" on="0"/>
        <pt x="880" y="208" on="1"/>
        <pt x="931" y="234" on="0"/>
        <pt x="972" y="266" on="1"/>
        <pt x="966" y="374" on="0"/>
      </contour>
      <contour>
        <pt x="507" y="1486" on="1"/>
        <pt x="830" y="1837" on="1"/>
        <pt x="960" y="1716" on="1"/>
        <pt x="590" y="1399" on="1"/>
      </contour>
    </TTGlyph>
    <TTGlyph name="abreve" xMin="175" yMin="-20" xMax="1153" yMax="1744">
      <contour>
        <pt x="1134" y="422" on="1"/>
        <pt x="1134" y="223" on="0"/>
        <pt x="1153" y="8" on="1"/>
        <pt x="1005" y="-4" on="1"/>
        <pt x="980" y="135" on="1"/>
        <pt x="853" y="33" on="0"/>
        <pt x="644" y="-7" on="1"/>
        <pt x="576" y="-20" on="0"/>
        <pt x="470" y="-20" on="0"/>
        <pt x="389" y="-10" on="0"/>
        <pt x="314" y="19" on="0"/>
        <pt x="250" y="71" on="0"/>
        <pt x="226" y="114" on="1"/>
        <pt x="175" y="205" on="0"/>
        <pt x="175" y="460" on="0"/>
        <pt x="212" y="601" on="0"/>
        <pt x="255" y="648" on="1"/>
        <pt x="340" y="741" on="0"/>
        <pt x="742" y="741" on="0"/>
        <pt x="970" y="665" on="1"/>
        <pt x="970" y="795" on="1"/>
        <pt x="970" y="1012" on="0"/>
        <pt x="791" y="1052" on="1"/>
        <pt x="733" y="1065" on="0"/>
        <pt x="658" y="1065" on="1"/>
        <pt x="487" y="1065" on="0"/>
        <pt x="303" y="997" on="1"/>
        <pt x="266" y="1141" on="1"/>
        <pt x="317" y="1175" on="0"/>
        <pt x="526" y="1202" on="1"/>
        <pt x="592" y="1210" on="0"/>
        <pt x="777" y="1210" on="0"/>
        <pt x="955" y="1166" on="0"/>
        <pt x="1014" y="1116" on="1"/>
        <pt x="1134" y="1017" on="0"/>
        <pt x="1134" y="795" on="1"/>
      </contour>
      <contour>
        <pt x="966" y="540" on="1"/>
        <pt x="732" y="599" on="0"/>
        <pt x="534" y="599" on="1"/>
        <pt x="412" y="599" on="0"/>
        <pt x="372" y="529" on="1"/>
        <pt x="345" y="480" on="0"/>
        <pt x="345" y="288" on="0"/>
        <pt x="366" y="202" on="0"/>
        <pt x="390" y="174" on="1"/>
        <pt x="437" y="121" on="0"/>
        <pt x="545" y="121" on="1"/>
        <pt x="714" y="121" on="0"/>
        <pt x="880" y="208" on="1"/>
        <pt x="931" y="234" on="0"/>
        <pt x="972" y="266" on="1"/>
        <pt x="966" y="374" on="0"/>
      </contour>
      <contour>
        <pt x="1011" y="1733" on="1"/>
        <pt x="1001" y="1393" on="0"/>
        <pt x="690" y="1393" on="1"/>
        <pt x="532" y="1393" on="0"/>
        <pt x="369" y="1567" on="0"/>
        <pt x="369" y="1733" on="1"/>
        <pt x="505" y="1744" on="1"/>
        <pt x="507" y="1624" on="0"/>
        <pt x="598" y="1517" on="0"/>
        <pt x="690" y="1517" on="1"/>
        <pt x="830" y="1517" on="0"/>
        <pt x="862" y="1637" on="1"/>
        <pt x="873" y="1680" on="0"/>
        <pt x="875" y="1744" on="1"/>
      </contour>
    </TTGlyph>
    <TTGlyph name="acircumflex" xMin="175" yMin="-20" xMax="1153" yMax="1830">
      <contour>
        <pt x="1134" y="422" on="1"/>
        <pt x="1134" y="223" on="0"/>
        <pt x="1153" y="8" on="1"/>
        <pt x="1005" y="-4" on="1"/>
        <pt x="980" y="135" on="1"/>
        <pt x="853" y="33" on="0"/>
        <pt x="644" y="-7" on="1"/>
        <pt x="576" y="-20" on="0"/>
        <pt x="470" y="-20" on="0"/>
        <pt x="389" y="-10" on="0"/>
        <pt x="314" y="19" on="0"/>
        <pt x="250" y="71" on="0"/>
        <pt x="226" y="114" on="1"/>
        <pt x="175" y="205" on="0"/>
        <pt x="175" y="460" on="0"/>
        <pt x="212" y="601" on="0"/>
        <pt x="255" y="648" on="1"/>
        <pt x="340" y="741" on="0"/>
        <pt x="742" y="741" on="0"/>
        <pt x="970" y="665" on="1"/>
        <pt x="970" y="795" on="1"/>
        <pt x="970" y="1012" on="0"/>
        <pt x="791" y="1052" on="1"/>
        <pt x="733" y="1065" on="0"/>
        <pt x="658" y="1065" on="1"/>
        <pt x="487" y="1065" on="0"/>
        <pt x="303" y="997" on="1"/>
        <pt x="266" y="1141" on="1"/>
        <pt x="317" y="1175" on="0"/>
        <pt x="526" y="1202" on="1"/>
        <pt x="592" y="1210" on="0"/>
        <pt x="777" y="1210" on="0"/>
        <pt x="955" y="1166" on="0"/>
        <pt x="1014" y="1116" on="1"/>
        <pt x="1134" y="1017" on="0"/>
        <pt x="1134" y="795" on="1"/>
      </contour>
      <contour>
        <pt x="966" y="540" on="1"/>
        <pt x="732" y="599" on="0"/>
        <pt x="534" y="599" on="1"/>
        <pt x="412" y="599" on="0"/>
        <pt x="372" y="529" on="1"/>
        <pt x="345" y="480" on="0"/>
        <pt x="345" y="288" on="0"/>
        <pt x="366" y="202" on="0"/>
        <pt x="390" y="174" on="1"/>
        <pt x="437" y="121" on="0"/>
        <pt x="545" y="121" on="1"/>
        <pt x="714" y="121" on="0"/>
        <pt x="880" y="208" on="1"/>
        <pt x="931" y="234" on="0"/>
        <pt x="972" y="266" on="1"/>
        <pt x="966" y="374" on="0"/>
      </contour>
      <contour>
        <pt x="324" y="1479" on="1"/>
        <pt x="603" y="1830" on="1"/>
        <pt x="724" y="1830" on="1"/>
        <pt x="1012" y="1480" on="1"/>
        <pt x="931" y="1400" on="1"/>
        <pt x="665" y="1665" on="1"/>
        <pt x="406" y="1400" on="1"/>
      </contour>
    </TTGlyph>
    <TTGlyph name="acute" xMin="26" yMin="1399" xMax="479" yMax="1837">
      <contour>
        <pt x="26" y="1486" on="1"/>
        <pt x="349" y="1837" on="1"/>
        <pt x="479" y="1716" on="1"/>
        <pt x="109" y="1399" on="1"/>
      </contour>
    </TTGlyph>
    <TTGlyph name="acute.cap" xMin="0" yMin="1649" xMax="509" yMax="2000">
      <contour>
        <pt x="0" y="1741" on="1"/>
        <pt x="416" y="2000" on="1"/>
        <pt x="509" y="1841" on="1"/>
        <pt x="50" y="1649" on="1"/>
      </contour>
    </TTGlyph>
    <TTGlyph name="adieresis" xMin="175" yMin="-20" xMax="1153" yMax="1712">
      <contour>
        <pt x="1134" y="422" on="1"/>
        <pt x="1134" y="223" on="0"/>
        <pt x="1153" y="8" on="1"/>
        <pt x="1005" y="-4" on="1"/>
        <pt x="980" y="135" on="1"/>
        <pt x="853" y="33" on="0"/>
        <pt x="644" y="-7" on="1"/>
        <pt x="576" y="-20" on="0"/>
        <pt x="470" y="-20" on="0"/>
        <pt x="389" y="-10" on="0"/>
        <pt x="314" y="19" on="0"/>
        <pt x="250" y="71" on="0"/>
        <pt x="226" y="114" on="1"/>
        <pt x="175" y="205" on="0"/>
        <pt x="175" y="460" on="0"/>
        <pt x="212" y="601" on="0"/>
        <pt x="255" y="648" on="1"/>
        <pt x="340" y="741" on="0"/>
        <pt x="742" y="741" on="0"/>
        <pt x="970" y="665" on="1"/>
        <pt x="970" y="795" on="1"/>
        <pt x="970" y="1012" on="0"/>
        <pt x="791" y="1052" on="1"/>
        <pt x="733" y="1065" on="0"/>
        <pt x="658" y="1065" on="1"/>
        <pt x="487" y="1065" on="0"/>
        <pt x="303" y="997" on="1"/>
        <pt x="266" y="1141" on="1"/>
        <pt x="317" y="1175" on="0"/>
        <pt x="526" y="1202" on="1"/>
        <pt x="592" y="1210" on="0"/>
        <pt x="777" y="1210" on="0"/>
        <pt x="955" y="1166" on="0"/>
        <pt x="1014" y="1116" on="1"/>
        <pt x="1134" y="1017" on="0"/>
        <pt x="1134" y="795" on="1"/>
      </contour>
      <contour>
        <pt x="966" y="540" on="1"/>
        <pt x="732" y="599" on="0"/>
        <pt x="534" y="599" on="1"/>
        <pt x="412" y="599" on="0"/>
        <pt x="372" y="529" on="1"/>
        <pt x="345" y="480" on="0"/>
        <pt x="345" y="288" on="0"/>
        <pt x="366" y="202" on="0"/>
        <pt x="390" y="174" on="1"/>
        <pt x="437" y="121" on="0"/>
        <pt x="545" y="121" on="1"/>
        <pt x="714" y="121" on="0"/>
        <pt x="880" y="208" on="1"/>
        <pt x="931" y="234" on="0"/>
        <pt x="972" y="266" on="1"/>
        <pt x="966" y="374" on="0"/>
      </contour>
      <contour>
        <pt x="897" y="1481" on="1"/>
        <pt x="834" y="1481" on="0"/>
        <pt x="816" y="1499" on="1"/>
        <pt x="788" y="1528" on="0"/>
        <pt x="788" y="1632" on="0"/>
        <pt x="800" y="1677" on="0"/>
        <pt x="812" y="1690" on="1"/>
        <pt x="835" y="1712" on="0"/>
        <pt x="928" y="1712" on="0"/>
        <pt x="970" y="1702" on="0"/>
        <pt x="982" y="1690" on="1"/>
        <pt x="1006" y="1666" on="0"/>
        <pt x="1006" y="1563" on="0"/>
        <pt x="995" y="1518" on="0"/>
        <pt x="982" y="1504" on="1"/>
        <pt x="961" y="1481" on="0"/>
      </contour>
      <contour>
        <pt x="439" y="1481" on="1"/>
        <pt x="376" y="1481" on="0"/>
        <pt x="358" y="1499" on="1"/>
        <pt x="330" y="1528" on="0"/>
        <pt x="330" y="1632" on="0"/>
        <pt x="342" y="1677" on="0"/>
        <pt x="354" y="1690" on="1"/>
        <pt x="377" y="1712" on="0"/>
        <pt x="470" y="1712" on="0"/>
        <pt x="511" y="1702" on="0"/>
        <pt x="524" y="1690" on="1"/>
        <pt x="546" y="1667" on="0"/>
        <pt x="546" y="1563" on="0"/>
        <pt x="536" y="1518" on="0"/>
        <pt x="524" y="1504" on="1"/>
        <pt x="502" y="1481" on="0"/>
      </contour>
    </TTGlyph>
    <TTGlyph name="ae" xMin="228" yMin="-20" xMax="1987" yMax="1210">
      <contour>
        <pt x="1980" y="63" on="1"/>
        <pt x="1772" y="-20" on="0"/>
        <pt x="1523" y="-20" on="1"/>
        <pt x="1237" y="-20" on="0"/>
        <pt x="1115" y="125" on="1"/>
        <pt x="1104" y="138" on="0"/>
        <pt x="1092" y="159" on="1"/>
        <pt x="1033" y="120" on="1"/>
        <pt x="894" y="28" on="0"/>
        <pt x="696" y="-8" on="1"/>
        <pt x="629" y="-20" on="0"/>
        <pt x="523" y="-20" on="0"/>
        <pt x="442" y="-10" on="0"/>
        <pt x="367" y="19" on="0"/>
        <pt x="303" y="71" on="0"/>
        <pt x="279" y="114" on="1"/>
        <pt x="228" y="205" on="0"/>
        <pt x="228" y="365" on="1"/>
        <pt x="228" y="549" on="0"/>
        <pt x="302" y="642" on="1"/>
        <pt x="386" y="749" on="0"/>
        <pt x="780" y="749" on="0"/>
        <pt x="1027" y="672" on="1"/>
        <pt x="1025" y="795" on="1"/>
        <pt x="1025" y="1011" on="0"/>
        <pt x="844" y="1052" on="1"/>
        <pt x="786" y="1065" on="0"/>
        <pt x="711" y="1065" on="1"/>
        <pt x="540" y="1065" on="0"/>
        <pt x="356" y="997" on="1"/>
        <pt x="319" y="1141" on="1"/>
        <pt x="370" y="1175" on="0"/>
        <pt x="578" y="1202" on="1"/>
        <pt x="645" y="1210" on="0"/>
        <pt x="863" y="1210" on="0"/>
        <pt x="1069" y="1132" on="0"/>
        <pt x="1122" y="1039" on="1"/>
        <pt x="1122" y="1038" on="1"/>
        <pt x="1123" y="1039" on="1"/>
        <pt x="1177" y="1135" on="0"/>
        <pt x="1390" y="1210" on="0"/>
        <pt x="1688" y="1210" on="0"/>
        <pt x="1864" y="1141" on="0"/>
        <pt x="1957" y="1011" on="0"/>
        <pt x="1987" y="826" on="0"/>
        <pt x="1987" y="742" on="1"/>
        <pt x="1987" y="609" on="0"/>
        <pt x="1981" y="537" on="1"/>
        <pt x="1840" y="531" on="0"/>
        <pt x="1730" y="531" on="1"/>
        <pt x="1572" y="531" on="1"/>
        <pt x="1297" y="531" on="0"/>
        <pt x="1179" y="550" on="1"/>
        <pt x="1179" y="321" on="0"/>
        <pt x="1240" y="231" on="1"/>
        <pt x="1313" y="122" on="0"/>
        <pt x="1734" y="122" on="0"/>
        <pt x="1931" y="206" on="1"/>
      </contour>
      <contour>
        <pt x="1818" y="672" on="1"/>
        <pt x="1818" y="768" on="1"/>
        <pt x="1818" y="925" on="0"/>
        <pt x="1760" y="992" on="1"/>
        <pt x="1695" y="1067" on="0"/>
        <pt x="1527" y="1067" on="1"/>
        <pt x="1326" y="1067" on="0"/>
        <pt x="1252" y="980" on="1"/>
        <pt x="1179" y="896" on="0"/>
        <pt x="1179" y="672" on="1"/>
      </contour>
      <contour>
        <pt x="398" y="288" on="0"/>
        <pt x="419" y="205" on="0"/>
        <pt x="443" y="180" on="1"/>
        <pt x="489" y="131" on="0"/>
        <pt x="598" y="131" on="1"/>
        <pt x="779" y="131" on="0"/>
        <pt x="954" y="212" on="1"/>
        <pt x="1008" y="238" on="0"/>
        <pt x="1049" y="270" on="1"/>
        <pt x="1028" y="369" on="0"/>
        <pt x="1024" y="550" on="1"/>
        <pt x="822" y="605" on="0"/>
        <pt x="587" y="605" on="1"/>
        <pt x="465" y="605" on="0"/>
        <pt x="426" y="532" on="1"/>
        <pt x="398" y="481" on="0"/>
      </contour>
    </TTGlyph>
    <TTGlyph name="aeacute" xMin="228" yMin="-20" xMax="1987" yMax="1837">
      <contour>
        <pt x="1980" y="63" on="1"/>
        <pt x="1772" y="-20" on="0"/>
        <pt x="1523" y="-20" on="1"/>
        <pt x="1237" y="-20" on="0"/>
        <pt x="1115" y="125" on="1"/>
        <pt x="1104" y="138" on="0"/>
        <pt x="1092" y="159" on="1"/>
        <pt x="1033" y="120" on="1"/>
        <pt x="894" y="28" on="0"/>
        <pt x="696" y="-8" on="1"/>
        <pt x="629" y="-20" on="0"/>
        <pt x="523" y="-20" on="0"/>
        <pt x="442" y="-10" on="0"/>
        <pt x="367" y="19" on="0"/>
        <pt x="303" y="71" on="0"/>
        <pt x="279" y="114" on="1"/>
        <pt x="228" y="205" on="0"/>
        <pt x="228" y="365" on="1"/>
        <pt x="228" y="549" on="0"/>
        <pt x="302" y="642" on="1"/>
        <pt x="386" y="749" on="0"/>
        <pt x="780" y="749" on="0"/>
        <pt x="1027" y="672" on="1"/>
        <pt x="1025" y="795" on="1"/>
        <pt x="1025" y="1011" on="0"/>
        <pt x="844" y="1052" on="1"/>
        <pt x="786" y="1065" on="0"/>
        <pt x="711" y="1065" on="1"/>
        <pt x="540" y="1065" on="0"/>
        <pt x="356" y="997" on="1"/>
        <pt x="319" y="1141" on="1"/>
        <pt x="370" y="1175" on="0"/>
        <pt x="578" y="1202" on="1"/>
        <pt x="645" y="1210" on="0"/>
        <pt x="863" y="1210" on="0"/>
        <pt x="1069" y="1132" on="0"/>
        <pt x="1122" y="1039" on="1"/>
        <pt x="1122" y="1038" on="1"/>
        <pt x="1123" y="1039" on="1"/>
        <pt x="1177" y="1135" on="0"/>
        <pt x="1390" y="1210" on="0"/>
        <pt x="1688" y="1210" on="0"/>
        <pt x="1864" y="1141" on="0"/>
        <pt x="1957" y="1011" on="0"/>
        <pt x="1987" y="826" on="0"/>
        <pt x="1987" y="742" on="1"/>
        <pt x="1987" y="609" on="0"/>
        <pt x="1981" y="537" on="1"/>
        <pt x="1840" y="531" on="0"/>
        <pt x="1730" y="531" on="1"/>
        <pt x="1572" y="531" on="1"/>
        <pt x="1297" y="531" on="0"/>
        <pt x="1179" y="550" on="1"/>
        <pt x="1179" y="321" on="0"/>
        <pt x="1240" y="231" on="1"/>
        <pt x="1313" y="122" on="0"/>
        <pt x="1734" y="122" on="0"/>
        <pt x="1931" y="206" on="1"/>
      </contour>
      <contour>
        <pt x="1818" y="672" on="1"/>
        <pt x="1818" y="768" on="1"/>
        <pt x="1818" y="925" on="0"/>
        <pt x="1760" y="992" on="1"/>
        <pt x="1695" y="1067" on="0"/>
        <pt x="1527" y="1067" on="1"/>
        <pt x="1326" y="1067" on="0"/>
        <pt x="1252" y="980" on="1"/>
        <pt x="1179" y="896" on="0"/>
        <pt x="1179" y="672" on="1"/>
      </contour>
      <contour>
        <pt x="398" y="288" on="0"/>
        <pt x="419" y="205" on="0"/>
        <pt x="443" y="180" on="1"/>
        <pt x="489" y="131" on="0"/>
        <pt x="598" y="131" on="1"/>
        <pt x="779" y="131" on="0"/>
        <pt x="954" y="212" on="1"/>
        <pt x="1008" y="238" on="0"/>
        <pt x="1049" y="270" on="1"/>
        <pt x="1028" y="369" on="0"/>
        <pt x="1024" y="550" on="1"/>
        <pt x="822" y="605" on="0"/>
        <pt x="587" y="605" on="1"/>
        <pt x="465" y="605" on="0"/>
        <pt x="426" y="532" on="1"/>
        <pt x="398" y="481" on="0"/>
      </contour>
      <contour>
        <pt x="981" y="1486" on="1"/>
        <pt x="1304" y="1837" on="1"/>
        <pt x="1434" y="1716" on="1"/>
        <pt x="1064" y="1399" on="1"/>
      </contour>
    </TTGlyph>
    <TTGlyph name="agrave" xMin="175" yMin="-20" xMax="1153" yMax="1839">
      <contour>
        <pt x="1134" y="422" on="1"/>
        <pt x="1134" y="223" on="0"/>
        <pt x="1153" y="8" on="1"/>
        <pt x="1005" y="-4" on="1"/>
        <pt x="980" y="135" on="1"/>
        <pt x="853" y="33" on="0"/>
        <pt x="644" y="-7" on="1"/>
        <pt x="576" y="-20" on="0"/>
        <pt x="470" y="-20" on="0"/>
        <pt x="389" y="-10" on="0"/>
        <pt x="314" y="19" on="0"/>
        <pt x="250" y="71" on="0"/>
        <pt x="226" y="114" on="1"/>
        <pt x="175" y="205" on="0"/>
        <pt x="175" y="460" on="0"/>
        <pt x="212" y="601" on="0"/>
        <pt x="255" y="648" on="1"/>
        <pt x="340" y="741" on="0"/>
        <pt x="742" y="741" on="0"/>
        <pt x="970" y="665" on="1"/>
        <pt x="970" y="795" on="1"/>
        <pt x="970" y="1012" on="0"/>
        <pt x="791" y="1052" on="1"/>
        <pt x="733" y="1065" on="0"/>
        <pt x="658" y="1065" on="1"/>
        <pt x="487" y="1065" on="0"/>
        <pt x="303" y="997" on="1"/>
        <pt x="266" y="1141" on="1"/>
        <pt x="317" y="1175" on="0"/>
        <pt x="526" y="1202" on="1"/>
        <pt x="592" y="1210" on="0"/>
        <pt x="777" y="1210" on="0"/>
        <pt x="955" y="1166" on="0"/>
        <pt x="1014" y="1116" on="1"/>
        <pt x="1134" y="1017" on="0"/>
        <pt x="1134" y="795" on="1"/>
      </contour>
      <contour>
        <pt x="966" y="540" on="1"/>
        <pt x="732" y="599" on="0"/>
        <pt x="534" y="599" on="1"/>
        <pt x="412" y="599" on="0"/>
        <pt x="372" y="529" on="1"/>
        <pt x="345" y="480" on="0"/>
        <pt x="345" y="288" on="0"/>
        <pt x="366" y="202" on="0"/>
        <pt x="390" y="174" on="1"/>
        <pt x="437" y="121" on="0"/>
        <pt x="545" y="121" on="1"/>
        <pt x="714" y="121" on="0"/>
        <pt x="880" y="208" on="1"/>
        <pt x="931" y="234" on="0"/>
        <pt x="972" y="266" on="1"/>
        <pt x="966" y="374" on="0"/>
      </contour>
      <contour>
        <pt x="423" y="1714" on="1"/>
        <pt x="548" y="1839" on="1"/>
        <pt x="873" y="1486" on="1"/>
        <pt x="790" y="1399" on="1"/>
      </contour>
    </TTGlyph>
</ttFont>
